<svg xmlns="http://www.w3.org/2000/svg" height="512pt" version="1.1" viewBox="0 0 512 512" width="512pt">
<g id="surface1">
<path d="M 512 256 C 512 397.386719 397.386719 512 256 512 C 114.613281 512 0 397.386719 0 256 C 0 114.613281 114.613281 0 256 0 C 397.386719 0 512 114.613281 512 256 Z M 512 256 " style=" stroke:none;fill-rule:nonzero;fill:rgb(100%,91.372549%,33.333333%);fill-opacity:1;" />
<path d="M 0 256 C 0 282.050781 3.890625 307.191406 11.128906 330.871094 C 43.140625 435.71875 140.671875 512 256 512 C 360.558594 512 450.488281 449.300781 490.230469 359.449219 C 504.230469 327.820312 512 292.820312 512 256 C 512 209.78125 499.75 166.429688 478.320312 129 C 434.199219 206.070312 351.160156 258 256 258 C 160.839844 258 77.789062 206.070312 33.679688 129 C 12.25 166.429688 0 209.78125 0 256 Z M 0 256 " style=" stroke:none;fill-rule:nonzero;fill:rgb(100%,81.960784%,7.058824%);fill-opacity:1;" />
<path d="M 395.648438 470.558594 C 394.851562 471.089844 394.039062 471.609375 393.230469 472.128906 C 394.039062 471.628906 394.851562 471.109375 395.660156 470.578125 C 395.660156 470.570312 395.648438 470.570312 395.648438 470.558594 Z M 395.648438 470.558594 " style=" stroke:none;fill-rule:nonzero;fill:rgb(100%,91.372549%,33.333333%);fill-opacity:1;" />
<path d="M 19.007812 282.683594 C 19.007812 282.589844 19 282.492188 19 282.398438 C 19 264.816406 33.253906 250.5625 50.835938 250.5625 C 55.011719 250.5625 58.996094 251.375 62.652344 252.835938 C 69.710938 240.191406 83.21875 231.632812 98.730469 231.632812 C 118.875 231.632812 135.640625 246.058594 139.285156 265.140625 C 140.371094 264.984375 141.480469 264.902344 142.609375 264.902344 C 153.5625 264.902344 162.738281 272.484375 165.191406 282.683594 Z M 19.007812 282.683594 " style=" stroke:none;fill-rule:nonzero;fill:rgb(100%,100%,100%);fill-opacity:1;" />
<path d="M 50.066406 282.683594 C 50.066406 282.628906 50.0625 282.574219 50.0625 282.519531 C 50.0625 272.410156 58.261719 264.214844 68.371094 264.214844 C 70.773438 264.214844 73.0625 264.679688 75.164062 265.519531 C 79.222656 258.25 86.992188 253.328125 95.910156 253.328125 C 107.496094 253.328125 117.136719 261.625 119.230469 272.597656 C 119.855469 272.507812 120.492188 272.460938 121.144531 272.460938 C 127.441406 272.460938 132.71875 276.820312 134.128906 282.683594 Z M 50.066406 282.683594 " style=" stroke:none;fill-rule:nonzero;fill:rgb(81.568627%,96.470588%,100%);fill-opacity:1;" />
<path d="M 492.464844 273.160156 C 492.46875 273.066406 492.472656 272.972656 492.472656 272.875 C 492.472656 255.292969 478.21875 241.039062 460.636719 241.039062 C 456.460938 241.039062 452.476562 241.851562 448.820312 243.316406 C 441.761719 230.667969 428.253906 222.109375 412.742188 222.109375 C 392.597656 222.109375 375.832031 236.535156 372.1875 255.621094 C 371.101562 255.464844 369.992188 255.378906 368.863281 255.378906 C 357.910156 255.378906 348.734375 262.960938 346.28125 273.160156 Z M 492.464844 273.160156 " style=" stroke:none;fill-rule:nonzero;fill:rgb(100%,100%,100%);fill-opacity:1;" />
<path d="M 461.40625 273.160156 C 461.40625 273.105469 461.410156 273.050781 461.410156 272.996094 C 461.410156 262.886719 453.214844 254.691406 443.101562 254.691406 C 440.699219 254.691406 438.410156 255.15625 436.308594 256 C 432.25 248.726562 424.480469 243.804688 415.5625 243.804688 C 403.976562 243.804688 394.335938 252.101562 392.242188 263.074219 C 391.617188 262.984375 390.980469 262.9375 390.328125 262.9375 C 384.03125 262.9375 378.757812 267.296875 377.34375 273.160156 Z M 461.40625 273.160156 " style=" stroke:none;fill-rule:nonzero;fill:rgb(81.568627%,96.470588%,100%);fill-opacity:1;" />
<path d="M 369.890625 131.746094 C 369.890625 131.679688 369.898438 131.609375 369.898438 131.542969 C 369.898438 119.015625 359.742188 108.863281 347.214844 108.863281 C 344.238281 108.863281 341.402344 109.441406 338.796875 110.484375 C 333.769531 101.472656 324.144531 95.375 313.09375 95.375 C 298.738281 95.375 286.792969 105.652344 284.199219 119.25 C 283.425781 119.140625 282.632812 119.078125 281.828125 119.078125 C 274.027344 119.078125 267.488281 124.480469 265.738281 131.746094 Z M 369.890625 131.746094 " style=" stroke:none;fill-rule:nonzero;fill:rgb(100%,100%,100%);fill-opacity:1;" />
<path d="M 347.761719 131.746094 C 347.761719 131.707031 347.765625 131.667969 347.765625 131.628906 C 347.765625 124.425781 341.925781 118.585938 334.722656 118.585938 C 333.011719 118.585938 331.378906 118.921875 329.882812 119.519531 C 326.992188 114.339844 321.457031 110.832031 315.101562 110.832031 C 306.847656 110.832031 299.980469 116.742188 298.488281 124.558594 C 298.042969 124.496094 297.589844 124.460938 297.125 124.460938 C 292.636719 124.460938 288.878906 127.566406 287.875 131.746094 Z M 347.761719 131.746094 " style=" stroke:none;fill-rule:nonzero;fill:rgb(81.568627%,96.470588%,100%);fill-opacity:1;" />
<path d="M 232.75 131.746094 C 232.75 131.679688 232.757812 131.609375 232.757812 131.542969 C 232.757812 119.015625 222.601562 108.863281 210.074219 108.863281 C 207.097656 108.863281 204.261719 109.441406 201.65625 110.484375 C 196.628906 101.472656 187.003906 95.375 175.949219 95.375 C 161.597656 95.375 149.652344 105.652344 147.058594 119.25 C 146.28125 119.140625 145.492188 119.078125 144.6875 119.078125 C 136.886719 119.078125 130.347656 124.480469 128.597656 131.746094 Z M 232.75 131.746094 " style=" stroke:none;fill-rule:nonzero;fill:rgb(100%,100%,100%);fill-opacity:1;" />
<path d="M 210.621094 131.746094 C 210.621094 131.707031 210.625 131.667969 210.625 131.628906 C 210.625 124.425781 204.785156 118.585938 197.582031 118.585938 C 195.871094 118.585938 194.238281 118.921875 192.742188 119.519531 C 189.847656 114.339844 184.316406 110.832031 177.960938 110.832031 C 169.707031 110.832031 162.839844 116.742188 161.34375 124.558594 C 160.898438 124.496094 160.445312 124.460938 159.984375 124.460938 C 155.496094 124.460938 151.738281 127.566406 150.730469 131.746094 Z M 210.621094 131.746094 " style=" stroke:none;fill-rule:nonzero;fill:rgb(81.568627%,96.470588%,100%);fill-opacity:1;" />
<path d="M 272.515625 178.804688 C 276.457031 173.875 282.523438 170.722656 289.316406 170.722656 C 294.722656 170.722656 299.65625 172.710938 303.433594 175.996094 C 307.210938 172.710938 312.144531 170.722656 317.546875 170.722656 C 324.34375 170.722656 330.410156 173.875 334.347656 178.804688 C 330.679688 177.265625 326.648438 176.410156 322.414062 176.410156 C 316.910156 176.410156 311.742188 177.855469 307.273438 180.386719 C 309.355469 183.539062 310.636719 187.269531 310.808594 191.285156 C 308.871094 188.082031 306.363281 185.261719 303.429688 182.960938 C 300.496094 185.261719 297.988281 188.082031 296.050781 191.285156 C 296.226562 187.265625 297.503906 183.539062 299.585938 180.386719 C 295.117188 177.855469 289.949219 176.410156 284.445312 176.410156 C 280.21875 176.410156 276.1875 177.265625 272.515625 178.804688 Z M 272.515625 178.804688 " style=" stroke:none;fill-rule:nonzero;fill:rgb(65.098039%,22.352941%,7.843137%);fill-opacity:1;" />
<path d="M 143.414062 208.84375 C 147.355469 203.914062 153.421875 200.757812 160.21875 200.757812 C 165.621094 200.757812 170.554688 202.75 174.332031 206.035156 C 178.109375 202.75 183.042969 200.757812 188.445312 200.757812 C 195.242188 200.757812 201.308594 203.914062 205.25 208.84375 C 201.578125 207.304688 197.546875 206.449219 193.3125 206.449219 C 187.808594 206.449219 182.644531 207.894531 178.171875 210.425781 C 180.257812 213.574219 181.535156 217.304688 181.707031 221.324219 C 179.769531 218.117188 177.261719 215.300781 174.328125 213 C 171.398438 215.300781 168.890625 218.117188 166.953125 221.324219 C 167.125 217.304688 168.40625 213.574219 170.488281 210.425781 C 166.015625 207.894531 160.851562 206.449219 155.347656 206.449219 C 151.117188 206.449219 147.085938 207.304688 143.414062 208.84375 Z M 143.414062 208.84375 " style=" stroke:none;fill-rule:nonzero;fill:rgb(65.098039%,22.352941%,7.843137%);fill-opacity:1;" />
<path d="M 392.300781 310.75 C 396.242188 305.820312 402.308594 302.667969 409.105469 302.667969 C 414.507812 302.667969 419.441406 304.65625 423.21875 307.945312 C 426.996094 304.65625 431.929688 302.667969 437.332031 302.667969 C 444.128906 302.667969 450.195312 305.820312 454.136719 310.75 C 450.464844 309.210938 446.433594 308.355469 442.199219 308.355469 C 436.695312 308.355469 431.53125 309.804688 427.058594 312.332031 C 429.140625 315.484375 430.421875 319.214844 430.59375 323.230469 C 428.65625 320.027344 426.148438 317.207031 423.214844 314.90625 C 420.28125 317.207031 417.777344 320.027344 415.839844 323.230469 C 416.011719 319.214844 417.289062 315.484375 419.371094 312.332031 C 414.902344 309.804688 409.738281 308.355469 404.230469 308.355469 C 400.003906 308.355469 395.972656 309.210938 392.300781 310.75 Z M 392.300781 310.75 " style=" stroke:none;fill-rule:nonzero;fill:rgb(65.098039%,22.352941%,7.843137%);fill-opacity:1;" />
<path d="M 42.589844 342.4375 C 46.53125 337.507812 52.597656 334.355469 59.394531 334.355469 C 64.796875 334.355469 69.730469 336.34375 73.507812 339.632812 C 77.285156 336.34375 82.21875 334.355469 87.621094 334.355469 C 94.417969 334.355469 100.484375 337.507812 104.425781 342.4375 C 100.753906 340.898438 96.722656 340.042969 92.488281 340.042969 C 86.984375 340.042969 81.820312 341.488281 77.347656 344.019531 C 79.433594 347.171875 80.710938 350.902344 80.882812 354.917969 C 78.945312 351.714844 76.4375 348.894531 73.507812 346.59375 C 70.574219 348.894531 68.066406 351.714844 66.128906 354.917969 C 66.300781 350.898438 67.582031 347.171875 69.664062 344.019531 C 65.191406 341.488281 60.027344 340.042969 54.523438 340.042969 C 50.292969 340.042969 46.261719 340.898438 42.589844 342.4375 Z M 42.589844 342.4375 " style=" stroke:none;fill-rule:nonzero;fill:rgb(65.098039%,22.352941%,7.843137%);fill-opacity:1;" />
<path d="M 153.339844 344.019531 C 153.339844 400.710938 199.300781 446.679688 256 446.679688 L 256.011719 446.679688 C 312.710938 446.671875 358.660156 400.710938 358.660156 344.019531 C 358.660156 287.320312 312.710938 241.371094 256.011719 241.359375 L 256 241.359375 C 199.300781 241.359375 153.339844 287.320312 153.339844 344.019531 Z M 153.339844 344.019531 " style=" stroke:none;fill-rule:nonzero;fill:rgb(92.156863%,46.666667%,13.333333%);fill-opacity:1;" />
<path d="M 153.339844 344.019531 C 153.339844 400.710938 199.300781 446.679688 256 446.679688 L 256.011719 446.679688 L 256.011719 241.359375 L 256 241.359375 C 199.300781 241.359375 153.339844 287.320312 153.339844 344.019531 Z M 153.339844 344.019531 " style=" stroke:none;fill-rule:nonzero;fill:rgb(100%,62.352941%,0%);fill-opacity:1;" />
<path d="M 30.738281 377.699219 C 37.898438 390.921875 46.171875 403.441406 55.460938 415.128906 C 72.449219 436.511719 92.78125 455.109375 115.671875 470.140625 C 155.96875 496.601562 204.191406 512 256 512 C 307.53125 512 355.5 496.769531 395.660156 470.578125 C 418.820312 455.46875 439.390625 436.71875 456.539062 415.128906 C 465.828125 403.441406 474.101562 390.921875 481.261719 377.699219 Z M 30.738281 377.699219 " style=" stroke:none;fill-rule:nonzero;fill:rgb(100%,100%,100%);fill-opacity:1;" />
<path d="M 455.019531 417 L 360.121094 417 C 369.28125 427.429688 381.019531 420.878906 389.78125 433.988281 C 399.148438 448.011719 386.429688 456.570312 395.648438 470.558594 C 401.011719 467.070312 406.230469 463.378906 411.300781 459.5 C 427.5 447.121094 442.179688 432.839844 455.019531 417 Z M 455.019531 417 " style=" stroke:none;fill-rule:nonzero;fill:rgb(39.607843%,69.803922%,100%);fill-opacity:1;" />
<path d="M 213.238281 508.441406 C 212.480469 508.308594 211.730469 508.179688 210.96875 508.050781 C 211.261719 508.101562 211.550781 508.160156 211.851562 508.210938 C 212.308594 508.289062 212.78125 508.371094 213.238281 508.441406 Z M 213.238281 508.441406 " style=" stroke:none;fill-rule:nonzero;fill:rgb(39.607843%,69.803922%,100%);fill-opacity:1;" />
<path d="M 194.929688 504.660156 C 194.171875 504.480469 193.421875 504.289062 192.671875 504.101562 C 193.101562 504.210938 193.539062 504.320312 193.96875 504.429688 C 194.289062 504.511719 194.609375 504.589844 194.929688 504.660156 Z M 194.929688 504.660156 " style=" stroke:none;fill-rule:nonzero;fill:rgb(39.607843%,69.803922%,100%);fill-opacity:1;" />
<path d="M 185.960938 502.289062 C 185.210938 502.078125 184.46875 501.871094 183.730469 501.648438 C 184.398438 501.851562 185.078125 502.050781 185.761719 502.238281 C 185.828125 502.261719 185.890625 502.28125 185.960938 502.289062 Z M 185.960938 502.289062 " style=" stroke:none;fill-rule:nonzero;fill:rgb(39.607843%,69.803922%,100%);fill-opacity:1;" />
<path d="M 181.519531 500.988281 C 178.570312 500.101562 175.648438 499.148438 172.75 498.148438 C 172.960938 498.230469 173.160156 498.300781 173.371094 498.371094 C 173.710938 498.480469 174.050781 498.601562 174.398438 498.710938 C 175.238281 499 176.089844 499.28125 176.949219 499.558594 C 177.039062 499.589844 177.128906 499.621094 177.21875 499.648438 C 178.210938 499.96875 179.210938 500.28125 180.21875 500.601562 C 180.648438 500.730469 181.089844 500.859375 181.519531 500.988281 Z M 181.519531 500.988281 " style=" stroke:none;fill-rule:nonzero;fill:rgb(39.607843%,69.803922%,100%);fill-opacity:1;" />
<path d="M 172.75 498.148438 C 171.460938 497.710938 170.179688 497.261719 168.898438 496.789062 C 169.300781 496.941406 169.710938 497.089844 170.121094 497.230469 C 170.300781 497.300781 170.488281 497.371094 170.679688 497.429688 C 171.359375 497.679688 172.058594 497.921875 172.75 498.148438 Z M 172.75 498.148438 " style=" stroke:none;fill-rule:nonzero;fill:rgb(39.607843%,69.803922%,100%);fill-opacity:1;" />
<path d="M 167.710938 496.359375 C 166.550781 495.941406 165.398438 495.511719 164.261719 495.058594 C 165.039062 495.371094 165.820312 495.660156 166.609375 495.949219 C 166.96875 496.089844 167.339844 496.230469 167.710938 496.359375 Z M 167.710938 496.359375 " style=" stroke:none;fill-rule:nonzero;fill:rgb(39.607843%,69.803922%,100%);fill-opacity:1;" />
<path d="M 150.609375 489.359375 C 149.519531 488.871094 148.429688 488.371094 147.339844 487.859375 C 147.398438 487.878906 147.460938 487.910156 147.53125 487.949219 C 148.550781 488.421875 149.578125 488.898438 150.609375 489.359375 Z M 150.609375 489.359375 " style=" stroke:none;fill-rule:nonzero;fill:rgb(39.607843%,69.803922%,100%);fill-opacity:1;" />
<path d="M 147.308594 487.839844 C 145.96875 487.21875 144.640625 486.578125 143.320312 485.921875 C 143.621094 486.070312 143.929688 486.21875 144.230469 486.371094 C 145.25 486.871094 146.28125 487.359375 147.308594 487.839844 Z M 147.308594 487.839844 " style=" stroke:none;fill-rule:nonzero;fill:rgb(39.607843%,69.803922%,100%);fill-opacity:1;" />
<path d="M 56.988281 417 C 69.820312 432.828125 84.488281 447.121094 100.691406 459.5 C 105.539062 463.21875 110.539062 466.761719 115.671875 470.128906 C 124.339844 456.390625 111.988281 447.871094 121.261719 433.988281 C 130.019531 420.878906 141.761719 427.429688 150.921875 417 Z M 56.988281 417 " style=" stroke:none;fill-rule:nonzero;fill:rgb(39.607843%,69.803922%,100%);fill-opacity:1;" />
<path d="M 100.691406 459.5 C 105.539062 463.21875 110.539062 466.761719 115.671875 470.128906 L 115.671875 470.140625 C 116.511719 470.691406 117.351562 471.230469 118.191406 471.761719 C 118.898438 472.21875 119.609375 472.671875 120.320312 473.109375 C 121.128906 473.628906 121.949219 474.140625 122.78125 474.628906 C 123.339844 474.980469 123.910156 475.320312 124.46875 475.660156 C 125.121094 476.050781 125.769531 476.441406 126.421875 476.820312 C 126.460938 476.839844 126.488281 476.859375 126.519531 476.878906 L 128.171875 477.839844 C 128.820312 478.210938 129.460938 478.578125 130.109375 478.941406 C 130.761719 479.320312 131.421875 479.691406 132.078125 480.050781 C 132.738281 480.429688 133.410156 480.789062 134.078125 481.148438 C 134.089844 481.148438 134.089844 481.160156 134.101562 481.160156 C 134.609375 481.441406 135.121094 481.710938 135.628906 481.988281 C 136.800781 482.609375 137.96875 483.21875 139.148438 483.828125 C 140.261719 484.398438 141.371094 484.96875 142.5 485.519531 C 142.699219 485.621094 142.898438 485.71875 143.101562 485.820312 C 143.171875 485.851562 143.238281 485.890625 143.320312 485.921875 C 143.671875 486.089844 144.019531 486.269531 144.371094 486.441406 C 145.140625 486.808594 145.910156 487.179688 146.691406 487.550781 C 146.890625 487.648438 147.101562 487.738281 147.308594 487.839844 C 147.320312 487.851562 147.328125 487.851562 147.339844 487.859375 C 148.429688 488.371094 149.519531 488.871094 150.609375 489.359375 C 150.640625 489.378906 150.660156 489.390625 150.691406 489.398438 C 151.378906 489.710938 152.078125 490.019531 152.78125 490.328125 C 152.980469 490.421875 153.191406 490.511719 153.390625 490.601562 C 154.441406 491.058594 155.5 491.511719 156.558594 491.960938 C 157.820312 492.488281 159.078125 493.019531 160.359375 493.53125 C 161.429688 493.960938 162.5 494.390625 163.578125 494.800781 C 163.808594 494.890625 164.03125 494.980469 164.261719 495.058594 C 164.390625 495.109375 164.53125 495.160156 164.660156 495.210938 C 165.308594 495.46875 165.960938 495.710938 166.609375 495.949219 C 166.96875 496.089844 167.339844 496.230469 167.710938 496.359375 C 168.101562 496.511719 168.5 496.648438 168.898438 496.789062 C 170.179688 497.261719 171.460938 497.710938 172.75 498.148438 C 172.960938 498.230469 173.160156 498.300781 173.371094 498.371094 C 173.710938 498.480469 174.039062 498.601562 174.390625 498.710938 C 175.238281 499 176.089844 499.28125 176.949219 499.558594 C 177.039062 499.589844 177.128906 499.621094 177.21875 499.648438 C 177.910156 499.871094 178.609375 500.089844 179.308594 500.308594 C 179.609375 500.410156 179.921875 500.5 180.21875 500.601562 C 180.648438 500.730469 181.089844 500.859375 181.519531 500.988281 C 182.261719 501.21875 182.988281 501.441406 183.730469 501.648438 C 184.398438 501.851562 185.078125 502.050781 185.761719 502.238281 C 185.828125 502.261719 185.890625 502.28125 185.960938 502.289062 C 187.660156 502.78125 189.371094 503.25 191.101562 503.691406 C 191.621094 503.828125 192.148438 503.96875 192.671875 504.101562 C 193.101562 504.210938 193.539062 504.320312 193.96875 504.429688 C 194.289062 504.511719 194.609375 504.589844 194.929688 504.660156 C 195.421875 504.789062 195.921875 504.910156 196.429688 505.03125 C 197.148438 505.199219 197.871094 505.371094 198.589844 505.53125 C 200.21875 505.910156 201.871094 506.269531 203.519531 506.609375 C 204.269531 506.769531 205.019531 506.921875 205.769531 507.070312 C 206.628906 507.238281 207.488281 507.410156 208.359375 507.570312 C 209.230469 507.730469 210.101562 507.890625 210.96875 508.050781 C 211.011719 508.058594 211.050781 508.058594 211.089844 508.070312 C 211.339844 508.121094 211.601562 508.160156 211.851562 508.210938 C 212.308594 508.289062 212.78125 508.371094 213.238281 508.441406 C 214.78125 508.699219 216.328125 508.949219 217.890625 509.179688 C 218.878906 509.328125 219.859375 509.46875 220.851562 509.601562 C 225.101562 510.191406 229.378906 510.671875 233.699219 511.039062 C 234.710938 511.128906 235.730469 511.210938 236.75 511.289062 C 236.808594 511.289062 236.871094 511.300781 236.929688 511.300781 C 238.238281 511.398438 239.550781 511.480469 240.878906 511.558594 L 240.949219 511.558594 C 242.160156 511.628906 243.371094 511.699219 244.589844 511.75 L 244.730469 511.75 C 245.871094 511.800781 247.019531 511.851562 248.171875 511.878906 C 248.359375 511.890625 248.550781 511.890625 248.738281 511.898438 C 249.890625 511.929688 251.050781 511.960938 252.199219 511.96875 C 253.46875 511.988281 254.730469 512 256 512 C 256.980469 512 257.949219 511.988281 258.921875 511.980469 C 259.890625 511.96875 260.859375 511.960938 261.828125 511.929688 C 262.640625 511.921875 263.449219 511.890625 264.261719 511.859375 C 264.378906 511.859375 264.511719 511.859375 264.628906 511.851562 L 264.738281 511.851562 C 266.089844 511.800781 267.441406 511.75 268.78125 511.679688 L 268.859375 511.679688 C 269.960938 511.628906 271.058594 511.570312 272.160156 511.488281 C 272.421875 511.480469 272.691406 511.46875 272.949219 511.449219 C 273.679688 511.398438 274.421875 511.351562 275.148438 511.289062 C 275.800781 511.25 276.441406 511.199219 277.089844 511.140625 C 277.769531 511.089844 278.460938 511.03125 279.140625 510.96875 C 279.578125 510.929688 280.03125 510.890625 280.46875 510.839844 C 281.839844 510.71875 283.210938 510.570312 284.578125 510.421875 C 286.140625 510.25 287.699219 510.058594 289.261719 509.859375 C 290.039062 509.761719 290.808594 509.660156 291.578125 509.550781 C 292.359375 509.441406 293.140625 509.320312 293.910156 509.210938 C 294.609375 509.109375 295.300781 509 296 508.890625 C 296.851562 508.761719 297.691406 508.621094 298.539062 508.480469 C 300.070312 508.21875 301.609375 507.949219 303.128906 507.671875 C 303.898438 507.519531 304.660156 507.378906 305.421875 507.230469 C 306.179688 507.078125 306.941406 506.929688 307.699219 506.769531 C 308.511719 506.609375 309.308594 506.441406 310.109375 506.269531 C 310.820312 506.109375 311.53125 505.960938 312.238281 505.800781 C 313 505.628906 313.75 505.460938 314.5 505.28125 C 314.800781 505.210938 315.101562 505.140625 315.398438 505.070312 C 316.480469 504.808594 317.550781 504.550781 318.621094 504.28125 C 319.488281 504.058594 320.359375 503.839844 321.230469 503.609375 C 322.71875 503.21875 324.199219 502.820312 325.679688 502.398438 C 327.148438 501.980469 328.621094 501.550781 330.089844 501.109375 C 331.558594 500.671875 333.019531 500.210938 334.46875 499.738281 C 335.921875 499.28125 337.359375 498.800781 338.800781 498.308594 C 340.238281 497.820312 341.679688 497.320312 343.101562 496.800781 C 343.230469 496.75 343.359375 496.699219 343.488281 496.660156 C 344.898438 496.140625 346.300781 495.621094 347.691406 495.089844 C 348.648438 494.71875 349.609375 494.339844 350.570312 493.960938 C 351.429688 493.621094 352.289062 493.269531 353.140625 492.910156 C 353.148438 492.910156 353.160156 492.898438 353.171875 492.898438 C 353.648438 492.710938 354.128906 492.519531 354.601562 492.308594 C 355.378906 491.988281 356.148438 491.671875 356.910156 491.328125 C 357.589844 491.050781 358.261719 490.761719 358.929688 490.449219 C 359.019531 490.410156 359.121094 490.371094 359.210938 490.328125 C 359.898438 490.03125 360.589844 489.71875 361.28125 489.398438 C 361.378906 489.359375 361.488281 489.308594 361.589844 489.261719 C 361.910156 489.128906 362.230469 488.980469 362.539062 488.828125 L 362.550781 488.828125 C 363.558594 488.371094 364.558594 487.898438 365.558594 487.421875 C 365.621094 487.390625 365.671875 487.371094 365.730469 487.339844 C 365.980469 487.230469 366.238281 487.109375 366.488281 486.980469 C 367.570312 486.46875 368.648438 485.941406 369.71875 485.410156 C 370 485.28125 370.28125 485.140625 370.558594 484.988281 C 371.730469 484.398438 372.898438 483.800781 374.070312 483.191406 C 375.378906 482.511719 376.691406 481.808594 377.980469 481.109375 C 379.28125 480.398438 380.570312 479.691406 381.859375 478.960938 C 383.140625 478.230469 384.421875 477.488281 385.691406 476.75 C 386.960938 476 388.230469 475.238281 389.480469 474.46875 C 390.738281 473.699219 391.988281 472.921875 393.230469 472.128906 C 394.039062 471.609375 394.851562 471.089844 395.648438 470.558594 C 401.011719 467.070312 406.230469 463.378906 411.300781 459.5 Z M 100.691406 459.5 " style=" stroke:none;fill-rule:nonzero;fill:rgb(5.882353%,60.784314%,90.980392%);fill-opacity:1;" />
<path d="M 118.941406 459.5 L 392.101562 459.5 C 391.949219 451.148438 396.441406 443.949219 389.78125 433.988281 C 381.019531 420.878906 369.28125 427.429688 360.121094 417 L 150.921875 417 C 141.761719 427.429688 130.019531 420.878906 121.261719 433.988281 C 114.609375 443.949219 119.089844 451.148438 118.941406 459.5 Z M 118.941406 459.5 " style=" stroke:none;fill-rule:nonzero;fill:rgb(100%,81.960784%,7.058824%);fill-opacity:1;" />
<path d="M 115.835938 470.039062 C 128.113281 480.605469 145.3125 487.707031 160.21875 493.726562 C 176.65625 500.363281 193.839844 505.113281 211.316406 508.035156 C 246.339844 513.890625 282.566406 512.46875 317.085938 504.199219 C 323.613281 502.632812 330.082031 500.820312 336.472656 498.761719 C 351.53125 493.910156 366.15625 487.671875 380.007812 480.019531 C 384.5 477.539062 388.910156 474.90625 393.230469 472.132812 C 394.039062 471.613281 394.851562 471.09375 395.652344 470.5625 C 392.980469 466.511719 392.152344 462.910156 392.101562 459.503906 L 118.941406 459.503906 C 118.882812 463.324219 117.613281 466.707031 115.835938 470.039062 Z M 115.835938 470.039062 " style=" stroke:none;fill-rule:nonzero;fill:rgb(100%,62.352941%,0%);fill-opacity:1;" />
<path d="M 150.921875 417 L 360.121094 417 C 359.449219 416.238281 358.789062 415.378906 358.148438 414.421875 C 348.75 400.351562 361.578125 391.78125 352.179688 377.699219 L 158.859375 377.699219 C 149.460938 391.78125 162.289062 400.351562 152.890625 414.421875 C 152.25 415.378906 151.589844 416.238281 150.921875 417 Z M 150.921875 417 " style=" stroke:none;fill-rule:nonzero;fill:rgb(100%,91.372549%,33.333333%);fill-opacity:1;" />
</g>
</svg>