<svg xmlns="http://www.w3.org/2000/svg" height="512pt" version="1.1" viewBox="0 0 512 512" width="512pt">
<g id="surface1">
<path d="M 512 256 C 512 397.386719 397.386719 512 256 512 C 114.613281 512 0 397.386719 0 256 C 0 114.613281 114.613281 0 256 0 C 397.386719 0 512 114.613281 512 256 Z M 512 256 " style=" stroke:none;fill-rule:nonzero;fill:rgb(100%,91.372549%,33.333333%);fill-opacity:1;" />
<path d="M 512 256 C 512 273.21875 510.300781 290.050781 507.058594 306.308594 C 505.390625 314.648438 503.320312 322.851562 500.871094 330.871094 C 468.859375 435.71875 371.328125 512 256 512 C 151.441406 512 61.511719 449.300781 21.769531 359.449219 C 14.320312 342.609375 8.628906 324.820312 4.949219 306.308594 C 1.699219 290.039062 0 273.21875 0 256 C 0 209.78125 12.25 166.429688 33.679688 129 C 77.800781 206.070312 160.839844 258 256 258 C 351.160156 258 434.210938 206.070312 478.320312 129 C 499.75 166.429688 512 209.78125 512 256 Z M 512 256 " style=" stroke:none;fill-rule:nonzero;fill:rgb(100%,81.960784%,7.058824%);fill-opacity:1;" />
<path d="M 174.488281 232.453125 C 174.488281 232.355469 174.492188 232.261719 174.492188 232.164062 C 174.492188 214.585938 160.242188 200.332031 142.660156 200.332031 C 138.480469 200.332031 134.496094 201.144531 130.84375 202.605469 C 123.785156 189.960938 110.277344 181.402344 94.765625 181.402344 C 74.617188 181.402344 57.851562 195.828125 54.210938 214.910156 C 53.121094 214.753906 52.011719 214.671875 50.882812 214.671875 C 39.929688 214.671875 30.753906 222.253906 28.300781 232.453125 Z M 174.488281 232.453125 " style=" stroke:none;fill-rule:nonzero;fill:rgb(100%,100%,100%);fill-opacity:1;" />
<path d="M 143.425781 232.453125 C 143.425781 232.398438 143.429688 232.34375 143.429688 232.289062 C 143.429688 222.179688 135.234375 213.980469 125.125 213.980469 C 122.722656 213.980469 120.429688 214.449219 118.328125 215.289062 C 114.269531 208.019531 106.503906 203.097656 97.582031 203.097656 C 86 203.097656 76.359375 211.394531 74.261719 222.367188 C 73.636719 222.277344 73 222.226562 72.351562 222.226562 C 66.054688 222.226562 60.777344 226.589844 59.367188 232.453125 Z M 143.425781 232.453125 " style=" stroke:none;fill-rule:nonzero;fill:rgb(81.568627%,96.470588%,100%);fill-opacity:1;" />
<path d="M 477.390625 232.453125 C 477.390625 232.355469 477.398438 232.261719 477.398438 232.164062 C 477.398438 214.585938 463.144531 200.332031 445.5625 200.332031 C 441.386719 200.332031 437.402344 201.144531 433.746094 202.605469 C 426.6875 189.960938 413.179688 181.402344 397.667969 181.402344 C 377.523438 181.402344 360.757812 195.828125 357.113281 214.910156 C 356.027344 214.753906 354.917969 214.671875 353.789062 214.671875 C 342.835938 214.671875 333.660156 222.253906 331.207031 232.453125 Z M 477.390625 232.453125 " style=" stroke:none;fill-rule:nonzero;fill:rgb(100%,100%,100%);fill-opacity:1;" />
<path d="M 446.328125 232.453125 C 446.328125 232.398438 446.335938 232.34375 446.335938 232.289062 C 446.335938 222.179688 438.136719 213.980469 428.027344 213.980469 C 425.625 213.980469 423.335938 214.449219 421.234375 215.289062 C 417.175781 208.019531 409.40625 203.097656 400.488281 203.097656 C 388.902344 203.097656 379.261719 211.394531 377.167969 222.367188 C 376.542969 222.277344 375.90625 222.226562 375.253906 222.226562 C 368.957031 222.226562 363.679688 226.589844 362.269531 232.453125 Z M 446.328125 232.453125 " style=" stroke:none;fill-rule:nonzero;fill:rgb(81.568627%,96.470588%,100%);fill-opacity:1;" />
<path d="M 209.394531 106.65625 C 209.394531 106.59375 209.398438 106.53125 209.398438 106.46875 C 209.398438 94.878906 200.003906 85.480469 188.410156 85.480469 C 185.65625 85.480469 183.03125 86.015625 180.621094 86.980469 C 175.96875 78.644531 167.0625 73.003906 156.835938 73.003906 C 143.554688 73.003906 132.503906 82.511719 130.101562 95.09375 C 129.382812 94.988281 128.652344 94.933594 127.90625 94.933594 C 120.6875 94.933594 114.636719 99.933594 113.019531 106.65625 Z M 209.394531 106.65625 " style=" stroke:none;fill-rule:nonzero;fill:rgb(100%,100%,100%);fill-opacity:1;" />
<path d="M 188.914062 106.65625 C 188.914062 106.621094 188.917969 106.585938 188.917969 106.546875 C 188.917969 99.882812 183.515625 94.480469 176.851562 94.480469 C 175.269531 94.480469 173.757812 94.789062 172.371094 95.34375 C 169.695312 90.546875 164.574219 87.304688 158.695312 87.304688 C 151.058594 87.304688 144.703125 92.773438 143.320312 100.007812 C 142.910156 99.949219 142.488281 99.914062 142.0625 99.914062 C 137.910156 99.914062 134.429688 102.789062 133.5 106.65625 Z M 188.914062 106.65625 " style=" stroke:none;fill-rule:nonzero;fill:rgb(81.568627%,96.470588%,100%);fill-opacity:1;" />
<path d="M 404.457031 106.65625 C 404.457031 106.59375 404.460938 106.53125 404.460938 106.46875 C 404.460938 94.878906 395.066406 85.480469 383.476562 85.480469 C 380.722656 85.480469 378.09375 86.015625 375.683594 86.980469 C 371.03125 78.644531 362.128906 73.003906 351.898438 73.003906 C 338.621094 73.003906 327.566406 82.511719 325.164062 95.09375 C 324.449219 94.988281 323.71875 94.933594 322.972656 94.933594 C 315.753906 94.933594 309.703125 99.933594 308.085938 106.65625 Z M 404.457031 106.65625 " style=" stroke:none;fill-rule:nonzero;fill:rgb(100%,100%,100%);fill-opacity:1;" />
<path d="M 383.980469 106.65625 C 383.980469 106.621094 383.984375 106.585938 383.984375 106.546875 C 383.984375 99.882812 378.578125 94.480469 371.914062 94.480469 C 370.332031 94.480469 368.820312 94.789062 367.4375 95.34375 C 364.761719 90.546875 359.640625 87.304688 353.757812 87.304688 C 346.121094 87.304688 339.765625 92.773438 338.386719 100.007812 C 337.972656 99.949219 337.554688 99.914062 337.125 99.914062 C 332.972656 99.914062 329.496094 102.789062 328.566406 106.65625 Z M 383.980469 106.65625 " style=" stroke:none;fill-rule:nonzero;fill:rgb(81.568627%,96.470588%,100%);fill-opacity:1;" />
<path d="M 316.679688 183.320312 C 316.679688 216.828125 289.511719 244 256 244 L 255.820312 244 C 222.390625 243.898438 195.320312 216.769531 195.320312 183.320312 C 195.320312 149.871094 222.390625 122.738281 255.820312 122.648438 L 256 122.648438 C 289.511719 122.648438 316.679688 149.808594 316.679688 183.320312 Z M 316.679688 183.320312 " style=" stroke:none;fill-rule:nonzero;fill:rgb(100%,62.352941%,0%);fill-opacity:1;" />
<path d="M 255.820312 122.648438 L 256 122.648438 C 289.511719 122.648438 316.679688 149.808594 316.679688 183.320312 C 316.679688 216.828125 289.511719 244 256 244 L 255.820312 244 " style=" stroke:none;fill-rule:nonzero;fill:rgb(100%,62.352941%,0%);fill-opacity:1;" />
<path d="M 316.675781 183.324219 C 316.675781 216.828125 289.511719 244 256 244 L 255.992188 244 L 255.992188 122.648438 L 256 122.648438 C 289.511719 122.648438 316.675781 149.8125 316.675781 183.324219 Z M 316.675781 183.324219 " style=" stroke:none;fill-rule:nonzero;fill:rgb(92.156863%,46.666667%,13.333333%);fill-opacity:1;" />
<path d="M 507.058594 306.308594 C 505.449219 314.371094 503.460938 322.308594 501.109375 330.070312 C 501.03125 330.339844 500.949219 330.601562 500.871094 330.871094 C 497.671875 341.351562 493.820312 351.539062 489.359375 361.390625 C 449.191406 450.199219 359.808594 512 256 512 C 152.191406 512 62.808594 450.199219 22.648438 361.390625 C 22.351562 360.738281 22.058594 360.101562 21.769531 359.449219 C 17.570312 349.949219 13.921875 340.140625 10.890625 330.070312 C 8.539062 322.300781 6.550781 314.371094 4.949219 306.308594 Z M 507.058594 306.308594 " style=" stroke:none;fill-rule:nonzero;fill:rgb(100%,100%,100%);fill-opacity:1;" />
<path d="M 11.070312 330.652344 C 14.066406 340.519531 17.652344 350.132812 21.769531 359.449219 C 22.058594 360.101562 22.351562 360.738281 22.648438 361.390625 C 62.808594 450.199219 152.191406 512 256 512 C 359.808594 512 449.191406 450.199219 489.359375 361.390625 C 493.820312 351.539062 497.671875 341.351562 500.871094 330.871094 C 500.890625 330.796875 500.914062 330.726562 500.933594 330.652344 Z M 11.070312 330.652344 " style=" stroke:none;fill-rule:nonzero;fill:rgb(81.568627%,96.470588%,100%);fill-opacity:1;" />
<path d="M 489.359375 361.390625 C 483.988281 373.269531 477.738281 384.660156 470.679688 395.488281 C 465.71875 403.121094 460.359375 410.46875 454.621094 417.511719 C 449.179688 424.199219 443.398438 430.601562 437.320312 436.699219 C 390.96875 483.21875 326.851562 512 256 512 C 185.148438 512 121.019531 483.210938 74.679688 436.699219 C 68.601562 430.601562 62.828125 424.199219 57.390625 417.511719 C 51.660156 410.46875 46.289062 403.121094 41.328125 395.480469 C 34.269531 384.648438 28.019531 373.261719 22.648438 361.390625 Z M 489.359375 361.390625 " style=" stroke:none;fill-rule:nonzero;fill:rgb(5.882353%,60.784314%,90.980392%);fill-opacity:1;" />
<path d="M 470.679688 395.488281 C 465.71875 403.121094 460.359375 410.46875 454.621094 417.511719 C 449.179688 424.199219 443.398438 430.601562 437.320312 436.699219 C 390.96875 483.21875 326.851562 512 256 512 C 185.148438 512 121.019531 483.210938 74.679688 436.699219 C 68.601562 430.601562 62.828125 424.199219 57.390625 417.511719 C 51.660156 410.46875 46.289062 403.121094 41.328125 395.480469 C 48.339844 391.460938 56 387.820312 69.859375 387.820312 C 100.878906 387.820312 100.878906 406.03125 131.898438 406.03125 C 162.929688 406.03125 162.929688 387.820312 193.949219 387.820312 C 224.96875 387.820312 224.96875 406.03125 255.988281 406.03125 C 287.011719 406.03125 287.011719 387.820312 318.039062 387.820312 C 349.058594 387.820312 349.058594 406.03125 380.078125 406.03125 C 411.109375 406.03125 411.109375 387.820312 442.128906 387.820312 C 456 387.820312 463.679688 391.460938 470.679688 395.488281 Z M 470.679688 395.488281 " style=" stroke:none;fill-rule:nonzero;fill:rgb(51.764706%,76.470588%,96.862745%);fill-opacity:1;" />
<path d="M 305.160156 434.75 C 308.945312 439.414062 316.316406 442.582031 324.789062 442.582031 C 333.257812 442.582031 340.628906 439.414062 344.414062 434.75 Z M 305.160156 434.75 " style=" stroke:none;fill-rule:nonzero;fill:rgb(81.568627%,96.470588%,100%);fill-opacity:1;" />
<path d="M 381.621094 434.75 C 385.40625 439.414062 392.777344 442.582031 401.25 442.582031 C 409.71875 442.582031 417.089844 439.414062 420.875 434.75 Z M 381.621094 434.75 " style=" stroke:none;fill-rule:nonzero;fill:rgb(81.568627%,96.470588%,100%);fill-opacity:1;" />
<path d="M 333.785156 434.75 L 315.785156 434.75 L 315.785156 299.121094 C 315.785156 279.695312 331.59375 263.890625 351.019531 263.890625 C 370.445312 263.890625 386.246094 279.695312 386.246094 299.121094 L 386.246094 306.308594 L 368.246094 306.308594 L 368.246094 299.121094 C 368.246094 289.621094 360.519531 281.890625 351.019531 281.890625 C 341.515625 281.890625 333.785156 289.621094 333.785156 299.121094 Z M 333.785156 434.75 " style=" stroke:none;fill-rule:nonzero;fill:rgb(32.54902%,36.862745%,53.72549%);fill-opacity:1;" />
<path d="M 410.25 434.75 L 392.25 434.75 L 392.25 299.121094 C 392.25 279.695312 408.054688 263.890625 427.480469 263.890625 C 446.902344 263.890625 462.710938 279.695312 462.710938 299.121094 L 462.710938 306.308594 L 444.710938 306.308594 L 444.710938 299.121094 C 444.710938 289.621094 436.980469 281.890625 427.480469 281.890625 C 417.976562 281.890625 410.25 289.621094 410.25 299.121094 Z M 410.25 434.75 " style=" stroke:none;fill-rule:nonzero;fill:rgb(32.54902%,36.862745%,53.72549%);fill-opacity:1;" />
<path d="M 324.785156 318.667969 L 401.25 318.667969 L 401.25 336.667969 L 324.785156 336.667969 Z M 324.785156 318.667969 " style=" stroke:none;fill-rule:nonzero;fill:rgb(32.54902%,36.862745%,53.72549%);fill-opacity:1;" />
<path d="M 324.785156 357.332031 L 401.25 357.332031 L 401.25 375.332031 L 324.785156 375.332031 Z M 324.785156 357.332031 " style=" stroke:none;fill-rule:nonzero;fill:rgb(32.54902%,36.862745%,53.72549%);fill-opacity:1;" />
<path d="M 324.785156 397.546875 L 401.25 397.546875 L 401.25 415.546875 L 324.785156 415.546875 Z M 324.785156 397.546875 " style=" stroke:none;fill-rule:nonzero;fill:rgb(32.54902%,36.862745%,53.72549%);fill-opacity:1;" />
</g>
</svg>