<svg xmlns="http://www.w3.org/2000/svg" height="512pt" version="1.1" viewBox="0 0 512 512" width="512pt">
<g id="surface1">
<path d="M 512 256 C 512 397.386719 397.386719 512 256 512 C 114.613281 512 0 397.386719 0 256 C 0 114.613281 114.613281 0 256 0 C 397.386719 0 512 114.613281 512 256 Z M 512 256 " style=" stroke:none;fill-rule:nonzero;fill:rgb(32.54902%,95.686275%,85.098039%);fill-opacity:1;" />
<path d="M 512 256 C 512 282.050781 508.109375 307.191406 500.871094 330.871094 C 468.859375 435.71875 371.328125 512 256 512 C 151.441406 512 61.511719 449.300781 21.769531 359.449219 C 7.769531 327.820312 0 292.820312 0 256 C 0 209.78125 12.25 166.429688 33.679688 129 C 77.800781 206.070312 160.839844 258 256 258 C 351.160156 258 434.210938 206.070312 478.320312 129 C 499.75 166.429688 512 209.78125 512 256 Z M 512 256 " style=" stroke:none;fill-rule:nonzero;fill:rgb(6.27451%,88.627451%,76.862745%);fill-opacity:1;" />
<path d="M 481.261719 377.699219 C 474.101562 390.921875 465.828125 403.441406 456.539062 415.128906 C 453.328125 419.171875 450 423.109375 446.558594 426.949219 C 431.769531 443.410156 414.890625 457.949219 396.328125 470.140625 C 356.03125 496.601562 307.808594 512 256 512 C 204.46875 512 156.5 496.769531 116.339844 470.578125 C 97.519531 458.300781 80.398438 443.609375 65.441406 426.949219 C 62 423.109375 58.671875 419.171875 55.460938 415.128906 C 46.171875 403.441406 37.898438 390.921875 30.738281 377.699219 Z M 481.261719 377.699219 " style=" stroke:none;fill-rule:nonzero;fill:rgb(5.882353%,60.784314%,90.980392%);fill-opacity:1;" />
<path d="M 446.558594 426.949219 C 431.769531 443.410156 414.890625 457.949219 396.328125 470.140625 C 356.03125 496.601562 307.808594 512 256 512 C 204.46875 512 156.5 496.769531 116.339844 470.578125 C 97.519531 458.300781 80.398438 443.609375 65.441406 426.949219 C 66.839844 426.871094 68.308594 426.820312 69.859375 426.820312 C 100.878906 426.820312 100.878906 445.03125 131.898438 445.03125 C 162.929688 445.03125 162.929688 426.820312 193.949219 426.820312 C 224.96875 426.820312 224.96875 445.03125 255.988281 445.03125 C 287.011719 445.03125 287.011719 426.820312 318.039062 426.820312 C 349.058594 426.820312 349.058594 445.03125 380.078125 445.03125 C 411.109375 445.03125 411.109375 426.820312 442.128906 426.820312 C 443.679688 426.820312 445.160156 426.871094 446.558594 426.949219 Z M 446.558594 426.949219 " style=" stroke:none;fill-rule:nonzero;fill:rgb(51.764706%,76.470588%,96.862745%);fill-opacity:1;" />
<path d="M 194.796875 312.441406 L 194.796875 370.914062 C 150.851562 364.855469 115.027344 333.335938 102.710938 291.726562 C 99.703125 281.613281 98.09375 270.902344 98.09375 259.8125 C 98.09375 249.695312 99.433594 239.902344 101.941406 230.582031 C 107.921875 252.78125 120.554688 272.261719 137.558594 286.75 C 153.429688 300.277344 173.121094 309.449219 194.796875 312.441406 Z M 194.796875 312.441406 " style=" stroke:none;fill-rule:nonzero;fill:rgb(100%,44.313725%,58.431373%);fill-opacity:1;" />
<path d="M 194.796875 312.441406 L 194.796875 370.914062 C 150.851562 364.855469 115.027344 333.335938 102.710938 291.726562 C 108.328125 288.554688 114.8125 286.75 121.71875 286.75 L 137.558594 286.75 C 153.429688 300.277344 173.121094 309.449219 194.796875 312.441406 Z M 194.796875 312.441406 " style=" stroke:none;fill-rule:nonzero;fill:rgb(92.941176%,33.72549%,50.588235%);fill-opacity:1;" />
<path d="M 343.484375 178.109375 L 323.910156 197.136719 L 347.265625 221.164062 C 350.324219 224.308594 352.695312 227.933594 354.347656 231.828125 C 357.777344 239.914062 358.082031 249.171875 354.867188 257.6875 L 353.96875 260.074219 C 353.171875 262.1875 353.953125 264.125 355.371094 265.261719 C 357.03125 266.589844 359.5625 266.828125 361.457031 264.984375 L 370.699219 256 C 380.011719 246.949219 383.171875 233.953125 380.101562 222.230469 C 378.628906 216.609375 375.730469 211.28125 371.394531 206.820312 Z M 343.484375 178.109375 " style=" stroke:none;fill-rule:nonzero;fill:rgb(100%,76.862745%,67.058824%);fill-opacity:1;" />
<path d="M 331.15625 190.089844 L 323.910156 197.136719 L 347.265625 221.164062 C 350.324219 224.308594 352.695312 227.933594 354.347656 231.828125 C 357.777344 239.914062 358.082031 249.171875 354.867188 257.6875 L 353.96875 260.074219 C 353.171875 262.1875 353.953125 264.125 355.371094 265.261719 L 355.554688 265.082031 C 365.6875 255.230469 368.535156 240.707031 363.996094 228.234375 C 362.367188 223.757812 359.785156 219.539062 356.25 215.902344 Z M 331.15625 190.089844 " style=" stroke:none;fill-rule:nonzero;fill:rgb(100%,65.882353%,47.843137%);fill-opacity:1;" />
<path d="M 363.996094 228.234375 C 368.535156 240.707031 365.6875 255.230469 355.554688 265.082031 L 355.371094 265.261719 C 357.03125 266.589844 359.5625 266.828125 361.457031 264.984375 L 370.699219 256.003906 C 380.011719 246.949219 383.171875 233.957031 380.101562 222.234375 Z M 363.996094 228.234375 " style=" stroke:none;fill-rule:nonzero;fill:rgb(32.54902%,36.862745%,53.72549%);fill-opacity:1;" />
<path d="M 354.347656 231.828125 C 357.777344 239.917969 358.082031 249.171875 354.867188 257.6875 L 353.96875 260.074219 C 353.171875 262.1875 353.953125 264.125 355.371094 265.261719 L 355.554688 265.082031 C 365.6875 255.230469 368.535156 240.710938 363.996094 228.234375 Z M 354.347656 231.828125 " style=" stroke:none;fill-rule:nonzero;fill:rgb(19.607843%,23.137255%,35.294118%);fill-opacity:1;" />
<path d="M 385.398438 343.621094 C 381.429688 347.589844 376.226562 349.578125 371.027344 349.578125 C 365.824219 349.578125 360.628906 347.589844 356.660156 343.621094 L 258.421875 245.382812 C 247.226562 234.1875 241.0625 219.308594 241.0625 203.488281 C 241.0625 187.660156 247.226562 172.78125 258.421875 161.589844 C 269.605469 150.402344 284.484375 144.238281 300.3125 144.238281 C 316.140625 144.238281 331.019531 150.402344 342.207031 161.589844 L 353.886719 173.265625 C 361.8125 181.195312 361.8125 194.058594 353.886719 201.992188 C 345.949219 209.929688 333.085938 209.929688 325.148438 201.992188 L 313.476562 190.324219 C 309.960938 186.804688 305.28125 184.867188 300.3125 184.867188 C 295.339844 184.867188 290.664062 186.804688 287.144531 190.324219 C 279.882812 197.574219 279.882812 209.394531 287.144531 216.648438 L 357.265625 286.765625 L 385.394531 314.894531 C 393.324219 322.832031 393.324219 335.695312 385.398438 343.621094 Z M 385.398438 343.621094 " style=" stroke:none;fill-rule:nonzero;fill:rgb(100%,44.313725%,58.431373%);fill-opacity:1;" />
<path d="M 385.984375 342.992188 L 273.394531 230.402344 C 266.210938 223.226562 262.25 213.664062 262.25 203.480469 C 262.25 193.304688 266.210938 183.746094 273.402344 176.5625 C 280.585938 169.378906 290.148438 165.417969 300.316406 165.417969 C 310.480469 165.417969 320.042969 169.378906 327.234375 176.570312 L 353.257812 202.589844 C 345.285156 209.921875 332.878906 209.722656 325.152344 201.996094 L 313.480469 190.324219 C 309.960938 186.804688 305.285156 184.867188 300.3125 184.867188 C 295.34375 184.867188 290.664062 186.804688 287.148438 190.324219 C 279.886719 197.578125 279.886719 209.394531 287.148438 216.648438 L 385.398438 314.898438 C 393.117188 322.625 393.316406 335.03125 385.984375 342.992188 Z M 385.984375 342.992188 " style=" stroke:none;fill-rule:nonzero;fill:rgb(92.941176%,33.72549%,50.588235%);fill-opacity:1;" />
<path d="M 385.398438 343.621094 C 381.429688 347.589844 376.226562 349.578125 371.027344 349.578125 C 365.824219 349.578125 360.628906 347.589844 356.660156 343.621094 L 299.785156 286.746094 L 356.367188 286.746094 C 356.671875 286.746094 356.964844 286.746094 357.265625 286.765625 L 385.394531 314.894531 C 393.324219 322.832031 393.324219 335.695312 385.398438 343.621094 Z M 385.398438 343.621094 " style=" stroke:none;fill-rule:nonzero;fill:rgb(92.941176%,33.72549%,50.588235%);fill-opacity:1;" />
<path d="M 395.132812 340.042969 C 395.132812 350.746094 390.789062 360.4375 383.78125 367.449219 C 376.761719 374.46875 367.070312 378.808594 356.367188 378.808594 L 135.613281 378.808594 C 132.742188 378.808594 129.941406 378.488281 127.261719 377.898438 C 109.867188 374.078125 96.855469 358.578125 96.855469 340.042969 C 96.855469 329.339844 101.195312 319.648438 108.207031 312.628906 C 115.21875 305.617188 124.910156 301.277344 135.613281 301.277344 L 356.367188 301.277344 C 359.300781 301.277344 362.152344 301.605469 364.902344 302.222656 C 382.199219 306.105469 395.132812 321.570312 395.132812 340.042969 Z M 395.132812 340.042969 " style=" stroke:none;fill-rule:nonzero;fill:rgb(100%,44.313725%,58.431373%);fill-opacity:1;" />
<path d="M 288.273438 301.28125 L 288.273438 302.722656 C 288.273438 330.390625 265.84375 352.820312 238.171875 352.820312 C 228.191406 352.820312 218.433594 349.839844 210.15625 344.257812 L 146.445312 301.28125 Z M 288.273438 301.28125 " style=" stroke:none;fill-rule:nonzero;fill:rgb(86.666667%,7.058824%,39.607843%);fill-opacity:1;" />
<path d="M 309.40625 301.28125 L 309.40625 302.722656 C 309.40625 330.390625 286.976562 352.820312 259.308594 352.820312 C 249.324219 352.820312 239.570312 349.839844 231.292969 344.257812 L 167.578125 301.28125 Z M 309.40625 301.28125 " style=" stroke:none;fill-rule:nonzero;fill:rgb(92.941176%,33.72549%,50.588235%);fill-opacity:1;" />
<path d="M 341.53125 180.648438 C 339.066406 177.671875 334.65625 177.257812 331.679688 179.722656 C 328.703125 182.1875 328.289062 186.597656 330.75 189.574219 C 333.214844 192.550781 337.625 192.964844 340.605469 190.5 C 343.582031 188.035156 343.996094 183.625 341.53125 180.648438 Z M 341.53125 180.648438 " style=" stroke:none;fill-rule:nonzero;fill:rgb(100%,100%,100%);fill-opacity:1;" />
<path d="M 338.625 183.054688 C 337.488281 181.683594 335.457031 181.492188 334.085938 182.628906 C 332.714844 183.761719 332.523438 185.796875 333.65625 187.167969 C 334.792969 188.539062 336.824219 188.730469 338.199219 187.59375 C 339.570312 186.460938 339.761719 184.425781 338.625 183.054688 Z M 338.625 183.054688 " style=" stroke:none;fill-rule:nonzero;fill:rgb(100%,44.313725%,58.431373%);fill-opacity:1;" />
<path d="M 337.398438 184.070312 C 336.824219 183.378906 335.796875 183.28125 335.101562 183.855469 C 334.410156 184.429688 334.3125 185.457031 334.886719 186.152344 C 335.460938 186.84375 336.488281 186.941406 337.179688 186.367188 C 337.875 185.792969 337.972656 184.765625 337.398438 184.070312 Z M 337.398438 184.070312 " style=" stroke:none;fill-rule:nonzero;fill:rgb(19.607843%,23.137255%,35.294118%);fill-opacity:1;" />
<path d="M 138.328125 217.640625 C 138.328125 217.574219 138.332031 217.511719 138.332031 217.445312 C 138.332031 205.359375 128.535156 195.558594 116.449219 195.558594 C 113.578125 195.558594 110.835938 196.117188 108.324219 197.125 C 103.472656 188.429688 94.1875 182.546875 83.523438 182.546875 C 69.675781 182.546875 58.148438 192.464844 55.640625 205.582031 C 54.894531 205.476562 54.132812 205.417969 53.355469 205.417969 C 45.828125 205.417969 39.519531 210.628906 37.832031 217.640625 Z M 138.328125 217.640625 " style=" stroke:none;fill-rule:nonzero;fill:rgb(100%,100%,100%);fill-opacity:1;" />
<path d="M 116.976562 217.640625 C 116.976562 217.605469 116.976562 217.566406 116.976562 217.527344 C 116.976562 210.578125 111.34375 204.945312 104.394531 204.945312 C 102.742188 204.945312 101.167969 205.265625 99.722656 205.84375 C 96.933594 200.84375 91.59375 197.460938 85.460938 197.460938 C 77.496094 197.460938 70.871094 203.164062 69.429688 210.707031 C 69 210.644531 68.5625 210.613281 68.113281 210.613281 C 63.785156 210.613281 60.15625 213.609375 59.1875 217.640625 Z M 116.976562 217.640625 " style=" stroke:none;fill-rule:nonzero;fill:rgb(81.568627%,96.470588%,100%);fill-opacity:1;" />
<path d="M 492.664062 243.1875 C 492.664062 243.136719 492.667969 243.082031 492.667969 243.027344 C 492.667969 233.242188 484.738281 225.3125 474.953125 225.3125 C 472.628906 225.3125 470.410156 225.765625 468.375 226.578125 C 464.445312 219.539062 456.929688 214.777344 448.296875 214.777344 C 437.085938 214.777344 427.753906 222.804688 425.726562 233.425781 C 425.121094 233.339844 424.503906 233.292969 423.878906 233.292969 C 417.78125 233.292969 412.675781 237.511719 411.308594 243.1875 Z M 492.664062 243.1875 " style=" stroke:none;fill-rule:nonzero;fill:rgb(100%,100%,100%);fill-opacity:1;" />
<path d="M 475.378906 243.1875 C 475.378906 243.15625 475.382812 243.128906 475.382812 243.097656 C 475.382812 237.472656 470.820312 232.910156 465.191406 232.910156 C 463.855469 232.910156 462.582031 233.167969 461.410156 233.636719 C 459.152344 229.589844 454.828125 226.851562 449.867188 226.851562 C 443.417969 226.851562 438.054688 231.46875 436.886719 237.574219 C 436.539062 237.523438 436.183594 237.496094 435.824219 237.496094 C 432.320312 237.496094 429.382812 239.925781 428.597656 243.1875 Z M 475.378906 243.1875 " style=" stroke:none;fill-rule:nonzero;fill:rgb(81.568627%,96.470588%,100%);fill-opacity:1;" />
<path d="M 198.953125 129.722656 C 199.699219 128.925781 200.066406 128.535156 200.8125 127.738281 C 199.910156 114.582031 188.953125 104.191406 175.570312 104.191406 C 172.769531 104.191406 170.078125 104.652344 167.558594 105.492188 C 166.765625 105.757812 165.878906 105.453125 165.441406 104.742188 C 159.65625 95.386719 149.3125 89.148438 137.503906 89.148438 C 122.039062 89.148438 109.078125 99.84375 105.601562 114.242188 C 105.394531 115.109375 104.570312 115.671875 103.679688 115.621094 C 103.332031 115.601562 102.980469 115.589844 102.628906 115.589844 C 94.859375 115.589844 88.214844 120.390625 85.488281 127.183594 C 85.003906 128.398438 85.910156 129.722656 87.21875 129.722656 Z M 198.953125 129.722656 " style=" stroke:none;fill-rule:nonzero;fill:rgb(100%,100%,100%);fill-opacity:1;" />
<path d="M 174.210938 129.722656 C 174.988281 128.808594 175.269531 128.480469 176.046875 127.570312 C 175.0625 120.492188 168.984375 115.042969 161.636719 115.042969 C 160.21875 115.042969 158.851562 115.246094 157.5625 115.625 C 156.785156 115.851562 155.953125 115.5625 155.511719 114.890625 C 152.136719 109.769531 146.335938 106.390625 139.746094 106.390625 C 131.058594 106.390625 123.746094 112.261719 121.550781 120.25 C 121.324219 121.070312 120.558594 121.597656 119.707031 121.597656 C 119.699219 121.597656 119.695312 121.597656 119.691406 121.597656 C 115.730469 121.597656 112.273438 123.765625 110.449219 126.984375 C 109.757812 128.207031 110.679688 129.722656 112.082031 129.722656 Z M 174.210938 129.722656 " style=" stroke:none;fill-rule:nonzero;fill:rgb(81.568627%,96.470588%,100%);fill-opacity:1;" />
<path d="M 426.324219 129.722656 C 427.074219 128.925781 427.4375 128.535156 428.1875 127.738281 C 427.285156 114.582031 416.328125 104.191406 402.945312 104.191406 C 400.144531 104.191406 397.449219 104.652344 394.929688 105.492188 C 394.136719 105.757812 393.253906 105.453125 392.8125 104.742188 C 387.027344 95.386719 376.683594 89.148438 364.875 89.148438 C 349.410156 89.148438 336.449219 99.84375 332.976562 114.242188 C 332.765625 115.109375 331.941406 115.671875 331.050781 115.621094 C 330.703125 115.601562 330.351562 115.589844 330 115.589844 C 322.230469 115.589844 315.585938 120.390625 312.859375 127.183594 C 312.375 128.398438 313.28125 129.722656 314.589844 129.722656 Z M 426.324219 129.722656 " style=" stroke:none;fill-rule:nonzero;fill:rgb(100%,100%,100%);fill-opacity:1;" />
<path d="M 401.582031 129.722656 C 402.359375 128.808594 402.640625 128.480469 403.417969 127.570312 C 402.433594 120.492188 396.355469 115.042969 389.007812 115.042969 C 387.59375 115.042969 386.226562 115.246094 384.933594 115.625 C 384.160156 115.851562 383.328125 115.5625 382.882812 114.890625 C 379.507812 109.769531 373.707031 106.390625 367.117188 106.390625 C 358.429688 106.390625 351.117188 112.261719 348.921875 120.25 C 348.695312 121.070312 347.929688 121.597656 347.078125 121.597656 C 347.074219 121.597656 347.066406 121.597656 347.0625 121.597656 C 343.101562 121.597656 339.644531 123.765625 337.820312 126.984375 C 337.128906 128.207031 338.050781 129.722656 339.453125 129.722656 Z M 401.582031 129.722656 " style=" stroke:none;fill-rule:nonzero;fill:rgb(81.568627%,96.470588%,100%);fill-opacity:1;" />
</g>
</svg>