<svg xmlns="http://www.w3.org/2000/svg" height="512pt" version="1.1" viewBox="0 0 512 512" width="512pt">
<g id="surface1">
<path d="M 512 256 C 512 271.511719 510.621094 286.699219 507.96875 301.449219 C 506.089844 311.960938 503.570312 322.238281 500.449219 332.261719 C 467.988281 436.398438 370.820312 512 256 512 C 141.179688 512 44.011719 436.398438 11.550781 332.261719 C 8.429688 322.238281 5.910156 311.960938 4.03125 301.449219 C 1.378906 286.699219 0 271.511719 0 256 C 0 114.621094 114.621094 0 256 0 C 397.378906 0 512 114.621094 512 256 Z M 512 256 " style=" stroke:none;fill-rule:nonzero;fill:rgb(39.607843%,69.803922%,100%);fill-opacity:1;" />
<path d="M 512 256 C 512 271.519531 510.621094 286.71875 507.96875 301.480469 C 506.171875 311.488281 503.800781 321.300781 500.871094 330.871094 C 499.851562 334.199219 498.769531 337.5 497.621094 340.761719 C 495.570312 346.601562 493.320312 352.339844 490.871094 357.96875 C 490.5 358.828125 490.128906 359.671875 489.75 360.519531 C 487.089844 366.46875 484.199219 372.308594 481.109375 378.011719 C 477.5 384.648438 473.609375 391.109375 469.449219 397.378906 C 464.929688 404.191406 460.089844 410.769531 454.949219 417.101562 C 448.730469 424.789062 442.058594 432.101562 434.988281 439.011719 C 426.789062 447.039062 418.039062 454.519531 408.820312 461.390625 C 396.011719 470.941406 382.269531 479.320312 367.769531 486.371094 C 334 502.789062 296.070312 512 256 512 C 248.199219 512 240.480469 511.648438 232.859375 510.96875 C 138.300781 502.488281 58.550781 442.601562 21.769531 359.449219 C 21.550781 358.960938 21.339844 358.46875 21.128906 357.96875 C 18.679688 352.339844 16.421875 346.601562 14.371094 340.761719 C 9.789062 327.699219 6.238281 314.148438 3.808594 300.21875 C 1.300781 285.851562 0 271.078125 0 256 C 0 209.78125 12.25 166.429688 33.679688 129 C 77.800781 206.070312 160.839844 258 256 258 C 351.160156 258 434.210938 206.070312 478.320312 129 C 499.75 166.429688 512 209.78125 512 256 Z M 512 256 " style=" stroke:none;fill-rule:nonzero;fill:rgb(5.882353%,60.784314%,90.980392%);fill-opacity:1;" />
<path d="M 497.621094 340.761719 C 495.570312 346.601562 493.320312 352.339844 490.871094 357.96875 C 490.5 358.828125 490.128906 359.671875 489.75 360.519531 C 487.089844 366.46875 484.199219 372.308594 481.109375 378.011719 C 477.5 384.648438 473.609375 391.109375 469.449219 397.378906 C 464.929688 404.191406 460.089844 410.769531 454.949219 417.101562 C 448.730469 424.789062 442.058594 432.101562 434.988281 439.011719 C 426.789062 447.039062 418.039062 454.519531 408.820312 461.390625 C 396.011719 470.941406 382.269531 479.320312 367.769531 486.371094 C 334 502.789062 296.070312 512 256 512 C 248.199219 512 240.480469 511.648438 232.859375 510.96875 C 138.300781 502.488281 58.550781 442.601562 21.769531 359.449219 C 21.550781 358.960938 21.339844 358.46875 21.128906 357.96875 C 18.679688 352.339844 16.421875 346.601562 14.371094 340.761719 C 39.019531 338.398438 41.199219 322.851562 69.859375 322.851562 C 100.878906 322.851562 100.878906 341.058594 131.898438 341.058594 C 162.929688 341.058594 162.929688 322.851562 193.949219 322.851562 C 224.96875 322.851562 224.96875 341.058594 255.988281 341.058594 C 287.011719 341.058594 287.011719 322.851562 318.039062 322.851562 C 349.058594 322.851562 349.058594 341.058594 380.078125 341.058594 C 411.109375 341.058594 411.109375 322.851562 442.128906 322.851562 C 470.800781 322.851562 472.96875 338.398438 497.621094 340.761719 Z M 497.621094 340.761719 " style=" stroke:none;fill-rule:nonzero;fill:rgb(100%,100%,100%);fill-opacity:1;" />
<path d="M 490.871094 357.96875 C 490.5 358.828125 490.128906 359.671875 489.75 360.519531 C 487.089844 366.46875 484.199219 372.308594 481.109375 378.011719 C 477.5 384.648438 473.609375 391.109375 469.449219 397.378906 C 464.929688 404.191406 460.089844 410.769531 454.949219 417.101562 C 448.730469 424.789062 442.058594 432.101562 434.988281 439.011719 C 426.789062 447.039062 418.039062 454.519531 408.820312 461.390625 C 396.011719 470.941406 382.269531 479.320312 367.769531 486.371094 C 334 502.789062 296.070312 512 256 512 C 248.199219 512 240.480469 511.648438 232.859375 510.96875 C 138.300781 502.488281 58.550781 442.601562 21.769531 359.449219 C 21.550781 358.960938 21.339844 358.46875 21.128906 357.96875 C 39.71875 353.730469 44.058594 341.140625 69.859375 341.140625 C 100.878906 341.140625 100.878906 359.339844 131.898438 359.339844 C 162.929688 359.339844 162.929688 341.140625 193.949219 341.140625 C 224.96875 341.140625 224.96875 359.339844 255.988281 359.339844 C 287.011719 359.339844 287.011719 341.140625 318.039062 341.140625 C 349.058594 341.140625 349.058594 359.339844 380.078125 359.339844 C 411.109375 359.339844 411.109375 341.140625 442.128906 341.140625 C 467.941406 341.140625 472.269531 353.738281 490.871094 357.96875 Z M 490.871094 357.96875 " style=" stroke:none;fill-rule:nonzero;fill:rgb(40.784314%,98.823529%,87.45098%);fill-opacity:1;" />
<path d="M 30.742188 377.703125 C 37.898438 390.921875 46.171875 403.441406 55.460938 415.128906 C 102.359375 474.148438 174.761719 512 256 512 C 337.238281 512 409.640625 474.148438 456.539062 415.128906 C 465.828125 403.441406 474.101562 390.921875 481.257812 377.703125 Z M 30.742188 377.703125 " style=" stroke:none;fill-rule:nonzero;fill:rgb(100%,65.882353%,47.843137%);fill-opacity:1;" />
<path d="M 56.984375 417 C 99.367188 469.316406 161.9375 504.617188 232.859375 510.96875 C 240.480469 511.648438 248.199219 512 256 512 C 261.070312 512 266.121094 511.851562 271.121094 511.558594 C 273.53125 511.421875 275.921875 511.25 278.300781 511.039062 C 279.03125 510.980469 279.769531 510.910156 280.488281 510.839844 C 281.101562 510.789062 281.710938 510.730469 282.320312 510.660156 C 283.421875 510.550781 284.519531 510.429688 285.621094 510.300781 C 286.429688 510.210938 287.238281 510.109375 288.050781 510.011719 C 290.121094 509.75 292.179688 509.46875 294.230469 509.160156 C 295.160156 509.019531 296.089844 508.878906 297.019531 508.730469 C 298.058594 508.558594 299.109375 508.390625 300.148438 508.210938 C 301.320312 508 302.480469 507.789062 303.640625 507.570312 C 304.511719 507.410156 305.371094 507.238281 306.230469 507.070312 C 307.730469 506.769531 309.230469 506.460938 310.730469 506.128906 C 311.628906 505.941406 312.519531 505.738281 313.410156 505.53125 C 314.949219 505.179688 316.488281 504.808594 318.03125 504.429688 C 319.070312 504.171875 320.109375 503.910156 321.140625 503.628906 C 321.171875 503.628906 321.210938 503.621094 321.25 503.601562 C 322.039062 503.398438 322.828125 503.191406 323.621094 502.96875 C 324.5 502.730469 325.371094 502.488281 326.238281 502.238281 C 327.179688 501.980469 328.121094 501.699219 329.050781 501.421875 C 329.960938 501.148438 330.871094 500.878906 331.78125 500.601562 C 332.789062 500.28125 333.789062 499.96875 334.78125 499.648438 C 334.871094 499.621094 334.960938 499.589844 335.050781 499.558594 C 335.910156 499.28125 336.761719 499 337.601562 498.710938 C 337.949219 498.601562 338.289062 498.480469 338.628906 498.371094 C 339.53125 498.058594 340.429688 497.75 341.320312 497.429688 C 341.511719 497.371094 341.699219 497.300781 341.878906 497.230469 C 342.691406 496.949219 343.488281 496.660156 344.289062 496.359375 C 344.660156 496.230469 345.03125 496.089844 345.390625 495.949219 C 346.320312 495.609375 347.238281 495.261719 348.171875 494.898438 C 348.25 494.871094 348.339844 494.839844 348.421875 494.800781 C 349.5 494.390625 350.570312 493.960938 351.640625 493.53125 C 352.570312 493.160156 353.488281 492.78125 354.410156 492.390625 C 355.820312 491.808594 357.21875 491.210938 358.609375 490.601562 C 359.539062 490.191406 360.46875 489.78125 361.390625 489.359375 C 362.421875 488.898438 363.449219 488.421875 364.46875 487.949219 C 364.539062 487.910156 364.601562 487.878906 364.660156 487.859375 C 365.699219 487.371094 366.738281 486.871094 367.769531 486.371094 C 401.730469 469.863281 431.472656 446.054688 455.011719 417 Z M 56.984375 417 " style=" stroke:none;fill-rule:nonzero;fill:rgb(92.941176%,46.666667%,10.588235%);fill-opacity:1;" />
<path d="M 144.53125 161.253906 L 144.691406 310.265625 L 144.84375 417.109375 L 159.84375 417.089844 L 159.691406 310.265625 L 159.53125 161.234375 Z M 144.53125 161.253906 " style=" stroke:none;fill-rule:nonzero;fill:rgb(32.54902%,36.862745%,53.72549%);fill-opacity:1;" />
<path d="M 144.53125 161.253906 L 144.691406 310.265625 L 159.691406 310.265625 L 159.53125 161.234375 Z M 144.53125 161.253906 " style=" stroke:none;fill-rule:nonzero;fill:rgb(19.607843%,23.137255%,35.294118%);fill-opacity:1;" />
<path d="M 30.550781 283 C 36.910156 272.921875 48.140625 266.222656 60.9375 266.210938 C 73.613281 266.195312 84.765625 272.746094 91.179688 282.648438 C 91.238281 282.742188 91.300781 282.839844 91.359375 282.933594 C 97.71875 272.855469 108.949219 266.15625 121.746094 266.140625 C 134.546875 266.128906 145.789062 272.800781 152.171875 282.863281 C 158.53125 272.789062 169.761719 266.089844 182.558594 266.074219 C 195.355469 266.058594 206.597656 272.734375 212.980469 282.792969 C 212.980469 282.796875 212.980469 282.796875 212.980469 282.796875 C 219.34375 272.71875 230.570312 266.019531 243.367188 266.007812 C 256.167969 265.992188 267.410156 272.667969 273.792969 282.730469 C 273.722656 218.121094 223.285156 165.335938 159.667969 161.46875 C 157.144531 161.316406 154.601562 161.238281 152.039062 161.242188 C 149.40625 161.246094 146.792969 161.332031 144.203125 161.5 C 80.6875 165.609375 30.480469 218.460938 30.550781 283 Z M 30.550781 283 " style=" stroke:none;fill-rule:nonzero;fill:rgb(100%,20.392157%,27.058824%);fill-opacity:1;" />
<path d="M 91.179688 282.648438 C 91.238281 282.742188 91.300781 282.839844 91.359375 282.933594 C 97.71875 272.855469 108.949219 266.15625 121.746094 266.140625 C 134.546875 266.128906 145.789062 272.804688 152.171875 282.867188 L 152.035156 161.246094 C 149.40625 161.246094 146.792969 161.335938 144.203125 161.503906 C 112.648438 192.535156 92.636719 235.261719 91.179688 282.648438 Z M 91.179688 282.648438 " style=" stroke:none;fill-rule:nonzero;fill:rgb(86.666667%,7.058824%,39.607843%);fill-opacity:1;" />
<path d="M 30.550781 283 C 36.910156 272.921875 48.140625 266.222656 60.9375 266.210938 C 73.613281 266.195312 84.765625 272.746094 91.179688 282.648438 C 92.636719 235.261719 112.648438 192.535156 144.203125 161.503906 C 80.6875 165.609375 30.480469 218.460938 30.550781 283 Z M 30.550781 283 " style=" stroke:none;fill-rule:nonzero;fill:rgb(100%,20.392157%,27.058824%);fill-opacity:1;" />
<path d="M 159.664062 161.472656 C 191.359375 192.496094 211.484375 235.292969 212.980469 282.796875 C 219.34375 272.722656 230.570312 266.019531 243.367188 266.007812 C 256.167969 265.992188 267.410156 272.667969 273.792969 282.730469 C 273.71875 218.125 223.285156 165.339844 159.664062 161.472656 Z M 159.664062 161.472656 " style=" stroke:none;fill-rule:nonzero;fill:rgb(86.666667%,7.058824%,39.607843%);fill-opacity:1;" />
<path d="M 481.109375 378.011719 C 477.5 384.648438 473.609375 391.109375 469.449219 397.378906 C 464.929688 404.191406 460.089844 410.769531 454.949219 417.101562 C 448.730469 424.789062 442.058594 432.101562 434.988281 439.011719 C 426.789062 447.039062 418.039062 454.519531 408.820312 461.390625 C 396.011719 470.941406 382.269531 479.320312 367.769531 486.371094 C 366.738281 486.871094 365.699219 487.371094 364.660156 487.859375 C 364.601562 487.878906 364.539062 487.910156 364.46875 487.949219 C 363.449219 488.421875 362.421875 488.898438 361.390625 489.359375 C 360.46875 489.78125 359.539062 490.191406 358.609375 490.601562 C 358.28125 490.738281 357.960938 490.890625 357.628906 491.03125 C 356.988281 491.300781 356.351562 491.578125 355.710938 491.851562 C 355.28125 492.03125 354.839844 492.210938 354.410156 492.390625 C 353.488281 492.78125 352.570312 493.160156 351.640625 493.53125 C 350.570312 493.960938 349.5 494.390625 348.421875 494.800781 C 348.339844 494.839844 348.25 494.871094 348.171875 494.898438 C 347.238281 495.261719 346.320312 495.609375 345.390625 495.949219 C 345.03125 496.089844 344.660156 496.230469 344.289062 496.359375 C 343.488281 496.660156 342.691406 496.949219 341.878906 497.230469 C 341.699219 497.300781 341.511719 497.371094 341.320312 497.429688 C 340.429688 497.75 339.53125 498.058594 338.628906 498.371094 C 338.289062 498.480469 337.949219 498.601562 337.601562 498.710938 C 336.761719 499 335.910156 499.28125 335.050781 499.558594 C 334.960938 499.589844 334.871094 499.621094 334.78125 499.648438 C 333.789062 499.96875 332.789062 500.28125 331.78125 500.601562 C 330.871094 500.878906 329.960938 501.148438 329.050781 501.421875 C 328.121094 501.699219 327.179688 501.980469 326.238281 502.238281 C 326.160156 502.261719 326.070312 502.289062 325.988281 502.308594 C 325.28125 502.511719 324.578125 502.710938 323.859375 502.898438 C 323.78125 502.929688 323.699219 502.949219 323.621094 502.96875 C 322.828125 503.191406 322.039062 503.398438 321.25 503.601562 C 321.210938 503.621094 321.171875 503.628906 321.140625 503.628906 C 321.03125 503.660156 320.910156 503.691406 320.800781 503.71875 C 319.878906 503.96875 318.949219 504.199219 318.03125 504.429688 C 317.109375 504.660156 316.191406 504.878906 315.269531 505.101562 C 314.699219 505.238281 314.140625 505.371094 313.570312 505.488281 C 313.519531 505.511719 313.460938 505.519531 313.410156 505.53125 C 312.519531 505.738281 311.628906 505.941406 310.730469 506.128906 C 309.898438 506.308594 309.070312 506.488281 308.238281 506.660156 C 307.628906 506.789062 307.03125 506.910156 306.421875 507.03125 C 306.359375 507.039062 306.289062 507.058594 306.230469 507.070312 C 305.371094 507.238281 304.511719 507.410156 303.640625 507.570312 C 302.480469 507.789062 301.320312 508 300.148438 508.210938 C 299.109375 508.390625 298.058594 508.558594 297.019531 508.730469 C 296.230469 508.859375 295.449219 508.980469 294.660156 509.089844 C 294.519531 509.121094 294.371094 509.140625 294.230469 509.160156 C 294.128906 509.171875 294.039062 509.191406 293.941406 509.199219 C 293.078125 509.328125 292.230469 509.449219 291.371094 509.570312 C 291.230469 509.589844 291.101562 509.609375 290.96875 509.621094 C 290.109375 509.75 289.238281 509.859375 288.378906 509.96875 C 288.269531 509.980469 288.160156 510 288.050781 510.011719 C 287.238281 510.109375 286.429688 510.210938 285.621094 510.300781 C 284.519531 510.429688 283.421875 510.550781 282.320312 510.660156 C 281.878906 510.710938 281.441406 510.761719 281 510.789062 C 280.828125 510.808594 280.660156 510.828125 280.488281 510.839844 C 279.769531 510.910156 279.03125 510.980469 278.300781 511.039062 C 275.921875 511.25 273.519531 511.421875 271.121094 511.558594 C 266.121094 511.851562 261.070312 512 256 512 C 248.199219 512 240.480469 511.648438 232.859375 510.96875 L 237.710938 486.371094 L 242.628906 461.390625 L 247.039062 439.011719 L 251.351562 417.101562 L 255.238281 397.378906 L 259.050781 378.011719 Z M 481.109375 378.011719 " style=" stroke:none;fill-rule:nonzero;fill:rgb(61.960784%,41.176471%,88.627451%);fill-opacity:1;" />
<path d="M 469.449219 397.378906 C 464.929688 404.191406 460.089844 410.769531 454.949219 417.101562 L 251.351562 417.101562 L 255.238281 397.378906 Z M 469.449219 397.378906 " style=" stroke:none;fill-rule:nonzero;fill:rgb(100%,91.372549%,33.333333%);fill-opacity:1;" />
<path d="M 434.988281 439.011719 C 426.789062 447.039062 418.039062 454.519531 408.820312 461.390625 L 242.628906 461.390625 L 247.039062 439.011719 Z M 434.988281 439.011719 " style=" stroke:none;fill-rule:nonzero;fill:rgb(100%,91.372549%,33.333333%);fill-opacity:1;" />
<path d="M 367.769531 486.371094 C 366.738281 486.871094 365.699219 487.371094 364.660156 487.859375 C 364.601562 487.878906 364.539062 487.910156 364.46875 487.949219 C 363.449219 488.421875 362.421875 488.898438 361.390625 489.359375 C 360.46875 489.78125 359.539062 490.191406 358.609375 490.601562 C 358.28125 490.738281 357.960938 490.890625 357.628906 491.03125 C 356.988281 491.300781 356.351562 491.578125 355.710938 491.851562 C 355.28125 492.03125 354.839844 492.210938 354.410156 492.390625 C 353.488281 492.78125 352.570312 493.160156 351.640625 493.53125 C 350.570312 493.960938 349.5 494.390625 348.421875 494.800781 C 348.339844 494.839844 348.25 494.871094 348.171875 494.898438 C 347.238281 495.261719 346.320312 495.609375 345.390625 495.949219 C 345.03125 496.089844 344.660156 496.230469 344.289062 496.359375 C 343.488281 496.660156 342.691406 496.949219 341.878906 497.230469 C 341.699219 497.300781 341.511719 497.371094 341.320312 497.429688 C 340.429688 497.75 339.53125 498.058594 338.628906 498.371094 C 338.289062 498.480469 337.949219 498.601562 337.601562 498.710938 C 336.761719 499 335.910156 499.28125 335.050781 499.558594 C 334.960938 499.589844 334.871094 499.621094 334.78125 499.648438 C 333.789062 499.96875 332.789062 500.28125 331.78125 500.601562 C 330.871094 500.878906 329.960938 501.148438 329.050781 501.421875 C 328.121094 501.699219 327.179688 501.980469 326.238281 502.238281 C 326.160156 502.261719 326.070312 502.289062 325.988281 502.308594 C 325.28125 502.511719 324.578125 502.710938 323.859375 502.898438 C 323.78125 502.929688 323.699219 502.949219 323.621094 502.96875 C 322.828125 503.191406 322.039062 503.398438 321.25 503.601562 C 321.210938 503.621094 321.171875 503.628906 321.140625 503.628906 C 321.03125 503.660156 320.910156 503.691406 320.800781 503.71875 C 319.878906 503.96875 318.949219 504.199219 318.03125 504.429688 C 317.109375 504.660156 316.191406 504.878906 315.269531 505.101562 C 314.699219 505.230469 314.140625 505.359375 313.570312 505.488281 C 313.519531 505.511719 313.460938 505.519531 313.410156 505.53125 C 312.519531 505.738281 311.628906 505.941406 310.730469 506.128906 C 309.898438 506.308594 309.070312 506.488281 308.238281 506.660156 C 307.628906 506.789062 307.03125 506.910156 306.421875 507.03125 C 306.359375 507.039062 306.289062 507.058594 306.230469 507.070312 C 305.371094 507.238281 304.511719 507.410156 303.640625 507.570312 C 302.480469 507.789062 301.320312 508 300.148438 508.210938 C 299.109375 508.390625 298.058594 508.558594 297.019531 508.730469 C 296.230469 508.859375 295.449219 508.980469 294.660156 509.089844 C 294.519531 509.121094 294.371094 509.140625 294.230469 509.160156 C 294.128906 509.171875 294.039062 509.191406 293.941406 509.199219 C 293.078125 509.328125 292.230469 509.449219 291.371094 509.570312 C 291.230469 509.589844 291.101562 509.609375 290.96875 509.621094 C 290.109375 509.75 289.238281 509.859375 288.378906 509.96875 C 288.269531 509.980469 288.160156 510 288.050781 510.011719 C 287.238281 510.109375 286.429688 510.210938 285.621094 510.300781 C 284.519531 510.429688 283.421875 510.550781 282.320312 510.660156 C 281.878906 510.710938 281.441406 510.761719 281 510.789062 C 280.828125 510.808594 280.660156 510.828125 280.488281 510.839844 C 279.769531 510.910156 279.03125 510.980469 278.300781 511.039062 C 275.921875 511.25 273.519531 511.421875 271.121094 511.558594 C 266.121094 511.851562 261.070312 512 256 512 C 248.199219 512 240.480469 511.648438 232.859375 510.96875 L 237.710938 486.371094 Z M 367.769531 486.371094 " style=" stroke:none;fill-rule:nonzero;fill:rgb(100%,91.372549%,33.333333%);fill-opacity:1;" />
<path d="M 224.902344 80.890625 C 224.902344 80.832031 224.90625 80.773438 224.90625 80.714844 C 224.90625 69.863281 216.113281 61.070312 205.265625 61.070312 C 202.6875 61.070312 200.230469 61.570312 197.972656 62.476562 C 193.617188 54.671875 185.285156 49.390625 175.714844 49.390625 C 163.285156 49.390625 152.9375 58.292969 150.691406 70.066406 C 150.019531 69.972656 149.335938 69.917969 148.640625 69.917969 C 141.882812 69.917969 136.21875 74.597656 134.707031 80.890625 Z M 224.902344 80.890625 " style=" stroke:none;fill-rule:nonzero;fill:rgb(100%,100%,100%);fill-opacity:1;" />
<path d="M 205.738281 80.890625 C 205.738281 80.855469 205.742188 80.820312 205.742188 80.789062 C 205.742188 74.550781 200.683594 69.492188 194.445312 69.492188 C 192.964844 69.492188 191.550781 69.78125 190.253906 70.300781 C 187.75 65.8125 182.957031 62.777344 177.453125 62.777344 C 170.308594 62.777344 164.359375 67.894531 163.066406 74.664062 C 162.679688 74.609375 162.285156 74.582031 161.886719 74.582031 C 158 74.582031 154.742188 77.269531 153.871094 80.890625 Z M 205.738281 80.890625 " style=" stroke:none;fill-rule:nonzero;fill:rgb(81.568627%,96.470588%,100%);fill-opacity:1;" />
<path d="M 450.117188 229.949219 C 450.117188 229.890625 450.121094 229.832031 450.121094 229.773438 C 450.121094 218.925781 441.324219 210.132812 430.476562 210.132812 C 427.902344 210.132812 425.441406 210.632812 423.1875 211.535156 C 418.832031 203.730469 410.496094 198.453125 400.925781 198.453125 C 388.496094 198.453125 378.152344 207.351562 375.902344 219.128906 C 375.234375 219.03125 374.546875 218.980469 373.851562 218.980469 C 367.09375 218.980469 361.433594 223.65625 359.917969 229.949219 Z M 450.117188 229.949219 " style=" stroke:none;fill-rule:nonzero;fill:rgb(100%,100%,100%);fill-opacity:1;" />
<path d="M 430.949219 229.949219 C 430.949219 229.914062 430.953125 229.882812 430.953125 229.847656 C 430.953125 223.609375 425.898438 218.554688 419.660156 218.554688 C 418.175781 218.554688 416.761719 218.839844 415.46875 219.359375 C 412.960938 214.871094 408.171875 211.835938 402.664062 211.835938 C 395.519531 211.835938 389.570312 216.953125 388.277344 223.726562 C 387.890625 223.671875 387.496094 223.640625 387.097656 223.640625 C 383.210938 223.640625 379.957031 226.332031 379.085938 229.949219 Z M 430.949219 229.949219 " style=" stroke:none;fill-rule:nonzero;fill:rgb(81.568627%,96.470588%,100%);fill-opacity:1;" />
<path d="M 415.21875 117.296875 C 415.21875 117.238281 415.222656 117.179688 415.222656 117.117188 C 415.222656 106.269531 406.429688 97.476562 395.582031 97.476562 C 393.003906 97.476562 390.546875 97.976562 388.289062 98.882812 C 383.933594 91.078125 375.601562 85.796875 366.03125 85.796875 C 353.601562 85.796875 343.257812 94.699219 341.007812 106.472656 C 340.335938 106.378906 339.652344 106.324219 338.957031 106.324219 C 332.199219 106.324219 326.535156 111.003906 325.023438 117.296875 Z M 415.21875 117.296875 " style=" stroke:none;fill-rule:nonzero;fill:rgb(100%,100%,100%);fill-opacity:1;" />
<path d="M 396.054688 117.296875 C 396.054688 117.261719 396.058594 117.226562 396.058594 117.195312 C 396.058594 110.957031 391 105.898438 384.761719 105.898438 C 383.28125 105.898438 381.867188 106.1875 380.570312 106.707031 C 378.066406 102.21875 373.273438 99.183594 367.769531 99.183594 C 360.621094 99.183594 354.675781 104.300781 353.382812 111.070312 C 352.996094 111.015625 352.601562 110.988281 352.199219 110.988281 C 348.316406 110.988281 345.058594 113.675781 344.1875 117.296875 Z M 396.054688 117.296875 " style=" stroke:none;fill-rule:nonzero;fill:rgb(81.568627%,96.470588%,100%);fill-opacity:1;" />
</g>
</svg>