<svg xmlns="http://www.w3.org/2000/svg" height="512pt" version="1.1" viewBox="0 0 512 512" width="512pt">
<g id="surface1">
<path d="M 512 256 C 512 397.386719 397.386719 512 256 512 C 114.613281 512 0 397.386719 0 256 C 0 114.613281 114.613281 0 256 0 C 397.386719 0 512 114.613281 512 256 Z M 512 256 " style=" stroke:none;fill-rule:nonzero;fill:rgb(100%,91.372549%,33.333333%);fill-opacity:1;" />
<path d="M 0 256 C 0 282.050781 3.890625 307.191406 11.128906 330.871094 C 13.578125 338.898438 16.421875 346.769531 19.628906 354.449219 C 22.980469 362.511719 26.738281 370.359375 30.878906 377.980469 C 39.128906 393.179688 48.878906 407.441406 59.929688 420.589844 C 60.511719 421.28125 61.089844 421.96875 61.679688 422.648438 C 108.621094 477.351562 178.269531 512 256 512 C 333.730469 512 403.378906 477.351562 450.308594 422.648438 C 450.898438 421.960938 451.488281 421.269531 452.058594 420.578125 C 463.121094 407.441406 472.871094 393.179688 481.109375 377.980469 C 484.398438 371.949219 487.441406 365.769531 490.230469 359.449219 C 490.960938 357.789062 491.679688 356.128906 492.371094 354.449219 C 505.019531 324.148438 512 290.890625 512 256 C 512 209.78125 499.75 166.429688 478.320312 129 C 434.199219 206.070312 351.160156 258 256 258 C 160.839844 258 77.789062 206.070312 33.679688 129 C 12.25 166.429688 0 209.78125 0 256 Z M 0 256 " style=" stroke:none;fill-rule:nonzero;fill:rgb(100%,81.960784%,7.058824%);fill-opacity:1;" />
<path d="M 30.738281 377.699219 C 37.898438 390.921875 46.171875 403.441406 55.460938 415.128906 C 71.160156 434.878906 89.710938 452.269531 110.5 466.640625 C 114.148438 469.179688 117.859375 471.609375 121.640625 473.941406 C 158.941406 496.988281 202.609375 510.730469 249.390625 511.910156 C 251.589844 511.96875 253.789062 512 256 512 C 258.210938 512 260.410156 511.96875 262.609375 511.910156 C 309.609375 510.71875 353.449219 496.871094 390.871094 473.628906 L 391.039062 473.519531 C 394.691406 471.238281 398.300781 468.878906 401.828125 466.410156 L 402 466.300781 C 422.578125 451.988281 440.96875 434.730469 456.539062 415.128906 C 465.828125 403.441406 474.101562 390.921875 481.261719 377.699219 Z M 30.738281 377.699219 " style=" stroke:none;fill-rule:nonzero;fill:rgb(92.156863%,46.666667%,13.333333%);fill-opacity:1;" />
<path d="M 274.109375 44.910156 L 272.585938 44.910156 C 265.832031 44.910156 260.359375 50.382812 260.359375 57.136719 L 260.359375 58.660156 L 251.640625 58.660156 L 251.640625 57.136719 C 251.640625 50.382812 246.167969 44.910156 239.414062 44.910156 L 237.890625 44.910156 L 237.890625 36.195312 L 239.414062 36.195312 C 246.167969 36.195312 251.640625 30.71875 251.640625 23.96875 L 251.640625 22.441406 L 260.359375 22.441406 L 260.359375 23.96875 C 260.359375 30.71875 265.832031 36.195312 272.585938 36.195312 L 274.109375 36.195312 Z M 274.109375 44.910156 " style=" stroke:none;fill-rule:nonzero;fill:rgb(100%,100%,100%);fill-opacity:1;" />
<path d="M 396.273438 143.804688 L 397.796875 143.804688 C 404.550781 143.804688 410.023438 149.28125 410.023438 156.03125 L 410.023438 157.558594 L 418.742188 157.558594 L 418.742188 156.03125 C 418.742188 149.28125 424.214844 143.804688 430.96875 143.804688 L 432.492188 143.804688 L 432.492188 135.089844 L 430.96875 135.089844 C 424.214844 135.089844 418.742188 129.617188 418.742188 122.863281 L 418.742188 121.339844 L 410.023438 121.339844 L 410.023438 122.863281 C 410.023438 129.617188 404.550781 135.089844 397.796875 135.089844 L 396.273438 135.089844 Z M 396.273438 143.804688 " style=" stroke:none;fill-rule:nonzero;fill:rgb(100%,100%,100%);fill-opacity:1;" />
<path d="M 109.589844 143.804688 L 108.066406 143.804688 C 101.3125 143.804688 95.839844 149.28125 95.839844 156.03125 L 95.839844 157.558594 L 87.121094 157.558594 L 87.121094 156.03125 C 87.121094 149.28125 81.648438 143.804688 74.894531 143.804688 L 73.371094 143.804688 L 73.371094 135.089844 L 74.894531 135.089844 C 81.648438 135.089844 87.121094 129.617188 87.121094 122.863281 L 87.121094 121.339844 L 95.839844 121.339844 L 95.839844 122.863281 C 95.839844 129.617188 101.3125 135.089844 108.066406 135.089844 L 109.589844 135.089844 Z M 109.589844 143.804688 " style=" stroke:none;fill-rule:nonzero;fill:rgb(100%,100%,100%);fill-opacity:1;" />
<path d="M 390.871094 473.628906 L 390.871094 327.078125 L 402 327.078125 L 402 466.300781 Z M 390.871094 473.628906 " style=" stroke:none;fill-rule:nonzero;fill:rgb(58.431373%,83.921569%,0%);fill-opacity:1;" />
<path d="M 340.121094 335.429688 C 340.652344 335.617188 341.1875 335.800781 341.726562 335.980469 C 346.996094 337.6875 352.335938 338.613281 357.605469 338.828125 C 353.460938 342.101562 349.6875 345.984375 346.433594 350.464844 C 346.097656 350.925781 345.773438 351.390625 345.457031 351.855469 C 326.550781 379.484375 367.363281 409.136719 387.804688 382.621094 C 388.144531 382.175781 388.484375 381.71875 388.816406 381.257812 C 392.074219 376.78125 394.601562 371.992188 396.433594 367.035156 C 398.269531 371.992188 400.796875 376.78125 404.050781 381.257812 C 404.382812 381.71875 404.726562 382.175781 405.066406 382.621094 C 425.503906 409.136719 466.316406 379.484375 447.410156 351.855469 C 447.097656 351.390625 446.769531 350.925781 446.433594 350.464844 C 443.179688 345.988281 439.40625 342.101562 435.261719 338.828125 C 440.535156 338.613281 445.871094 337.6875 451.144531 335.980469 C 451.679688 335.800781 452.21875 335.617188 452.746094 335.429688 C 484.28125 324.191406 468.695312 276.207031 436.570312 285.648438 C 436.035156 285.808594 435.488281 285.976562 434.953125 286.152344 C 429.679688 287.863281 424.820312 290.253906 420.425781 293.179688 C 421.855469 288.097656 422.628906 282.742188 422.628906 277.195312 C 422.628906 276.632812 422.621094 276.0625 422.601562 275.5 C 422.128906 258.765625 409.28125 250.402344 396.429688 250.402344 C 383.582031 250.402344 370.734375 258.765625 370.261719 275.5 C 370.242188 276.0625 370.234375 276.632812 370.234375 277.195312 C 370.234375 282.742188 371.007812 288.097656 372.433594 293.179688 C 368.039062 290.253906 363.179688 287.863281 357.910156 286.152344 C 357.371094 285.976562 356.828125 285.808594 356.289062 285.648438 C 324.175781 276.207031 308.585938 324.191406 340.121094 335.429688 Z M 340.121094 335.429688 " style=" stroke:none;fill-rule:nonzero;fill:rgb(86.666667%,7.058824%,39.607843%);fill-opacity:1;" />
<path d="M 340.121094 335.429688 C 340.652344 335.617188 341.1875 335.800781 341.726562 335.980469 C 346.996094 337.6875 352.335938 338.613281 357.605469 338.828125 C 353.460938 342.101562 349.6875 345.984375 346.433594 350.464844 C 346.097656 350.925781 345.773438 351.390625 345.457031 351.855469 C 326.550781 379.484375 367.363281 409.136719 387.804688 382.621094 C 388.144531 382.175781 388.484375 381.71875 388.816406 381.257812 C 392.074219 376.78125 394.601562 371.992188 396.433594 367.035156 L 396.433594 250.402344 C 383.585938 250.402344 370.734375 258.765625 370.265625 275.5 C 370.242188 276.0625 370.238281 276.632812 370.238281 277.195312 C 370.238281 282.742188 371.011719 288.097656 372.4375 293.179688 C 368.042969 290.253906 363.183594 287.863281 357.910156 286.152344 C 357.375 285.976562 356.832031 285.808594 356.292969 285.648438 C 324.175781 276.207031 308.585938 324.191406 340.121094 335.429688 Z M 340.121094 335.429688 " style=" stroke:none;fill-rule:nonzero;fill:rgb(100%,20.392157%,27.058824%);fill-opacity:1;" />
<path d="M 422.46875 327.085938 C 422.46875 341.460938 410.8125 353.117188 396.4375 353.117188 C 382.058594 353.117188 370.402344 341.460938 370.402344 327.085938 C 370.402344 312.707031 382.058594 301.054688 396.4375 301.054688 C 410.8125 301.054688 422.46875 312.707031 422.46875 327.085938 Z M 422.46875 327.085938 " style=" stroke:none;fill-rule:nonzero;fill:rgb(100%,100%,100%);fill-opacity:1;" />
<path d="M 407.734375 327.085938 C 407.734375 333.324219 402.675781 338.382812 396.4375 338.382812 C 390.195312 338.382812 385.140625 333.324219 385.140625 327.085938 C 385.140625 320.847656 390.195312 315.789062 396.4375 315.789062 C 402.675781 315.789062 407.734375 320.847656 407.734375 327.085938 Z M 407.734375 327.085938 " style=" stroke:none;fill-rule:nonzero;fill:rgb(92.156863%,46.666667%,13.333333%);fill-opacity:1;" />
<path d="M 360.160156 430.152344 C 370.070312 440.0625 383.089844 444.960938 396.078125 444.855469 C 396.191406 431.867188 391.289062 418.84375 381.378906 408.9375 C 371.472656 399.027344 358.445312 394.125 345.460938 394.238281 C 345.351562 407.222656 350.253906 420.246094 360.160156 430.152344 Z M 360.160156 430.152344 " style=" stroke:none;fill-rule:nonzero;fill:rgb(0%,62.745098%,25.882353%);fill-opacity:1;" />
<path d="M 360.160156 430.152344 C 370.070312 440.0625 383.089844 444.960938 396.078125 444.855469 L 345.460938 394.238281 C 345.351562 407.222656 350.253906 420.246094 360.160156 430.152344 Z M 360.160156 430.152344 " style=" stroke:none;fill-rule:nonzero;fill:rgb(58.431373%,83.921569%,0%);fill-opacity:1;" />
<path d="M 431.917969 430.152344 C 422.007812 440.0625 408.988281 444.960938 396 444.855469 C 395.886719 431.867188 400.789062 418.84375 410.699219 408.9375 C 420.605469 399.027344 433.632812 394.125 446.617188 394.238281 C 446.726562 407.222656 441.824219 420.246094 431.917969 430.152344 Z M 431.917969 430.152344 " style=" stroke:none;fill-rule:nonzero;fill:rgb(0%,62.745098%,25.882353%);fill-opacity:1;" />
<path d="M 431.917969 430.152344 C 422.007812 440.0625 408.988281 444.960938 396 444.855469 L 446.617188 394.238281 C 446.726562 407.222656 441.824219 420.246094 431.917969 430.152344 Z M 431.917969 430.152344 " style=" stroke:none;fill-rule:nonzero;fill:rgb(58.431373%,83.921569%,0%);fill-opacity:1;" />
<path d="M 110.5 327.078125 L 110.5 466.640625 C 114.148438 469.179688 117.859375 471.609375 121.640625 473.941406 L 121.640625 327.078125 Z M 110.5 327.078125 " style=" stroke:none;fill-rule:nonzero;fill:rgb(58.431373%,83.921569%,0%);fill-opacity:1;" />
<path d="M 59.757812 335.429688 C 60.285156 335.617188 60.824219 335.800781 61.363281 335.980469 C 66.632812 337.6875 71.972656 338.613281 77.242188 338.828125 C 73.097656 342.101562 69.324219 345.984375 66.070312 350.464844 C 65.734375 350.925781 65.410156 351.390625 65.09375 351.855469 C 46.1875 379.484375 87 409.136719 107.441406 382.621094 C 107.78125 382.175781 108.121094 381.71875 108.453125 381.257812 C 111.710938 376.78125 114.238281 371.992188 116.070312 367.035156 C 117.90625 371.992188 120.433594 376.78125 123.6875 381.257812 C 124.019531 381.71875 124.363281 382.175781 124.703125 382.621094 C 145.140625 409.136719 185.953125 379.484375 167.046875 351.855469 C 166.734375 351.390625 166.40625 350.925781 166.070312 350.464844 C 162.816406 345.988281 159.046875 342.101562 154.898438 338.828125 C 160.171875 338.613281 165.507812 337.6875 170.78125 335.980469 C 171.316406 335.800781 171.855469 335.617188 172.386719 335.429688 C 203.917969 324.191406 188.332031 276.207031 156.210938 285.648438 C 155.671875 285.808594 155.128906 285.976562 154.589844 286.152344 C 149.320312 287.863281 144.460938 290.253906 140.066406 293.179688 C 141.492188 288.097656 142.265625 282.742188 142.265625 277.195312 C 142.265625 276.632812 142.257812 276.0625 142.238281 275.5 C 141.765625 258.765625 128.917969 250.402344 116.070312 250.402344 C 103.21875 250.402344 90.371094 258.765625 89.898438 275.5 C 89.878906 276.0625 89.871094 276.632812 89.871094 277.195312 C 89.871094 282.742188 90.644531 288.097656 92.074219 293.179688 C 87.679688 290.253906 82.820312 287.863281 77.546875 286.152344 C 77.011719 285.976562 76.464844 285.808594 75.929688 285.648438 C 43.808594 276.207031 28.222656 324.191406 59.757812 335.429688 Z M 59.757812 335.429688 " style=" stroke:none;fill-rule:nonzero;fill:rgb(86.666667%,7.058824%,39.607843%);fill-opacity:1;" />
<path d="M 59.757812 335.429688 C 60.285156 335.617188 60.824219 335.800781 61.363281 335.980469 C 66.632812 337.6875 71.972656 338.613281 77.242188 338.828125 C 73.097656 342.101562 69.324219 345.984375 66.070312 350.464844 C 65.734375 350.925781 65.410156 351.390625 65.09375 351.855469 C 46.1875 379.484375 87 409.136719 107.441406 382.621094 C 107.78125 382.175781 108.121094 381.71875 108.453125 381.257812 C 111.710938 376.78125 114.238281 371.992188 116.070312 367.035156 L 116.070312 250.402344 C 103.222656 250.402344 90.371094 258.765625 89.902344 275.5 C 89.882812 276.0625 89.875 276.632812 89.875 277.195312 C 89.875 282.742188 90.648438 288.097656 92.074219 293.179688 C 87.679688 290.253906 82.820312 287.863281 77.550781 286.152344 C 77.011719 285.976562 76.46875 285.808594 75.929688 285.648438 C 43.808594 276.207031 28.222656 324.191406 59.757812 335.429688 Z M 59.757812 335.429688 " style=" stroke:none;fill-rule:nonzero;fill:rgb(100%,20.392157%,27.058824%);fill-opacity:1;" />
<path d="M 142.101562 327.085938 C 142.101562 341.460938 130.449219 353.117188 116.070312 353.117188 C 101.695312 353.117188 90.039062 341.460938 90.039062 327.085938 C 90.039062 312.707031 101.695312 301.054688 116.070312 301.054688 C 130.449219 301.054688 142.101562 312.707031 142.101562 327.085938 Z M 142.101562 327.085938 " style=" stroke:none;fill-rule:nonzero;fill:rgb(100%,100%,100%);fill-opacity:1;" />
<path d="M 127.367188 327.085938 C 127.367188 333.324219 122.308594 338.382812 116.070312 338.382812 C 109.832031 338.382812 104.773438 333.324219 104.773438 327.085938 C 104.773438 320.847656 109.832031 315.789062 116.070312 315.789062 C 122.308594 315.789062 127.367188 320.847656 127.367188 327.085938 Z M 127.367188 327.085938 " style=" stroke:none;fill-rule:nonzero;fill:rgb(92.156863%,46.666667%,13.333333%);fill-opacity:1;" />
<path d="M 151.25 431.820312 C 141.34375 441.730469 128.320312 446.628906 115.335938 446.519531 C 115.222656 433.535156 120.125 420.511719 130.03125 410.601562 C 139.941406 400.695312 152.964844 395.789062 165.949219 395.902344 C 166.058594 408.890625 161.160156 421.910156 151.25 431.820312 Z M 151.25 431.820312 " style=" stroke:none;fill-rule:nonzero;fill:rgb(0%,62.745098%,25.882353%);fill-opacity:1;" />
<path d="M 151.25 431.820312 C 141.34375 441.730469 128.320312 446.628906 115.335938 446.519531 L 165.953125 395.902344 C 166.058594 408.890625 161.160156 421.910156 151.25 431.820312 Z M 151.25 431.820312 " style=" stroke:none;fill-rule:nonzero;fill:rgb(58.431373%,83.921569%,0%);fill-opacity:1;" />
<path d="M 79.417969 431.820312 C 89.328125 441.730469 102.347656 446.628906 115.335938 446.519531 C 115.449219 433.535156 110.546875 420.511719 100.636719 410.601562 C 90.730469 400.695312 77.703125 395.789062 64.71875 395.902344 C 64.609375 408.890625 69.507812 421.910156 79.417969 431.820312 Z M 79.417969 431.820312 " style=" stroke:none;fill-rule:nonzero;fill:rgb(0%,62.745098%,25.882353%);fill-opacity:1;" />
<path d="M 79.417969 431.820312 C 89.328125 441.730469 102.347656 446.628906 115.335938 446.519531 L 64.71875 395.902344 C 64.609375 408.890625 69.507812 421.910156 79.417969 431.820312 Z M 79.417969 431.820312 " style=" stroke:none;fill-rule:nonzero;fill:rgb(58.431373%,83.921569%,0%);fill-opacity:1;" />
<path d="M 249.390625 213.371094 L 249.390625 511.910156 C 251.589844 511.96875 253.789062 512 256 512 C 258.210938 512 260.410156 511.96875 262.609375 511.910156 L 262.609375 213.371094 Z M 249.390625 213.371094 " style=" stroke:none;fill-rule:nonzero;fill:rgb(0%,62.745098%,25.882353%);fill-opacity:1;" />
<path d="M 189.101562 223.28125 C 189.730469 223.507812 190.371094 223.726562 191.007812 223.933594 C 197.269531 225.964844 203.609375 227.0625 209.875 227.320312 C 204.949219 231.210938 200.46875 235.820312 196.601562 241.144531 C 196.203125 241.6875 195.816406 242.242188 195.441406 242.792969 C 172.984375 275.613281 221.464844 310.84375 245.746094 279.34375 C 246.152344 278.8125 246.554688 278.269531 246.953125 277.722656 C 250.820312 272.402344 253.820312 266.714844 256 260.828125 C 258.179688 266.714844 261.183594 272.402344 265.050781 277.722656 C 265.445312 278.269531 265.851562 278.8125 266.253906 279.34375 C 290.535156 310.84375 339.019531 275.613281 316.558594 242.792969 C 316.1875 242.242188 315.796875 241.6875 315.398438 241.144531 C 311.535156 235.824219 307.050781 231.210938 302.128906 227.320312 C 308.390625 227.0625 314.730469 225.964844 320.992188 223.933594 C 321.632812 223.726562 322.269531 223.507812 322.898438 223.28125 C 360.359375 209.933594 341.84375 152.929688 303.683594 164.148438 C 303.046875 164.335938 302.398438 164.539062 301.761719 164.746094 C 295.5 166.777344 289.726562 169.617188 284.507812 173.097656 C 286.203125 167.058594 287.121094 160.695312 287.121094 154.105469 C 287.121094 153.4375 287.113281 152.761719 287.089844 152.089844 C 286.53125 132.214844 271.265625 122.277344 256.003906 122.277344 C 240.738281 122.277344 225.472656 132.214844 224.914062 152.089844 C 224.890625 152.761719 224.882812 153.4375 224.882812 154.105469 C 224.882812 160.695312 225.800781 167.058594 227.496094 173.097656 C 222.277344 169.617188 216.503906 166.777344 210.242188 164.746094 C 209.605469 164.539062 208.957031 164.335938 208.320312 164.148438 C 170.160156 152.929688 151.644531 209.933594 189.101562 223.28125 Z M 189.101562 223.28125 " style=" stroke:none;fill-rule:nonzero;fill:rgb(86.666667%,7.058824%,39.607843%);fill-opacity:1;" />
<path d="M 189.101562 223.28125 C 189.730469 223.507812 190.371094 223.726562 191.007812 223.933594 C 197.269531 225.964844 203.609375 227.0625 209.875 227.320312 C 204.949219 231.210938 200.46875 235.820312 196.601562 241.144531 C 196.203125 241.6875 195.816406 242.242188 195.441406 242.792969 C 172.984375 275.613281 221.464844 310.84375 245.746094 279.34375 C 246.152344 278.8125 246.554688 278.269531 246.953125 277.722656 C 250.820312 272.402344 253.820312 266.714844 256 260.828125 L 256 122.277344 C 240.738281 122.277344 225.472656 132.214844 224.914062 152.089844 C 224.890625 152.757812 224.882812 153.4375 224.882812 154.105469 C 224.882812 160.695312 225.800781 167.058594 227.496094 173.09375 C 222.277344 169.617188 216.503906 166.777344 210.242188 164.746094 C 209.601562 164.535156 208.957031 164.335938 208.320312 164.148438 C 170.160156 152.929688 151.644531 209.933594 189.101562 223.28125 Z M 189.101562 223.28125 " style=" stroke:none;fill-rule:nonzero;fill:rgb(100%,20.392157%,27.058824%);fill-opacity:1;" />
<path d="M 286.925781 213.371094 C 286.925781 230.449219 273.078125 244.296875 256 244.296875 C 238.921875 244.296875 225.074219 230.449219 225.074219 213.371094 C 225.074219 196.292969 238.921875 182.445312 256 182.445312 C 273.078125 182.445312 286.925781 196.292969 286.925781 213.371094 Z M 286.925781 213.371094 " style=" stroke:none;fill-rule:nonzero;fill:rgb(100%,100%,100%);fill-opacity:1;" />
<path d="M 269.421875 213.371094 C 269.421875 220.78125 263.410156 226.789062 256 226.789062 C 248.589844 226.789062 242.578125 220.78125 242.578125 213.371094 C 242.578125 205.960938 248.589844 199.949219 256 199.949219 C 263.410156 199.949219 269.421875 205.960938 269.421875 213.371094 Z M 269.421875 213.371094 " style=" stroke:none;fill-rule:nonzero;fill:rgb(92.156863%,46.666667%,13.333333%);fill-opacity:1;" />
<path d="M 196.253906 383.457031 C 212.617188 399.824219 234.125 407.914062 255.574219 407.738281 C 255.761719 386.289062 247.664062 364.777344 231.300781 348.414062 C 214.933594 332.046875 193.421875 323.949219 171.972656 324.136719 C 171.796875 345.585938 179.890625 367.09375 196.253906 383.457031 Z M 196.253906 383.457031 " style=" stroke:none;fill-rule:nonzero;fill:rgb(0%,62.745098%,25.882353%);fill-opacity:1;" />
<path d="M 196.253906 383.457031 C 212.617188 399.824219 234.125 407.914062 255.574219 407.738281 L 171.972656 324.136719 C 171.796875 345.585938 179.890625 367.09375 196.253906 383.457031 Z M 196.253906 383.457031 " style=" stroke:none;fill-rule:nonzero;fill:rgb(58.431373%,83.921569%,0%);fill-opacity:1;" />
<path d="M 315.324219 383.457031 C 298.960938 399.824219 277.453125 407.914062 256.003906 407.738281 C 255.816406 386.289062 263.914062 364.777344 280.277344 348.414062 C 296.644531 332.046875 318.15625 323.949219 339.605469 324.136719 C 339.78125 345.585938 331.6875 367.09375 315.324219 383.457031 Z M 315.324219 383.457031 " style=" stroke:none;fill-rule:nonzero;fill:rgb(0%,62.745098%,25.882353%);fill-opacity:1;" />
<path d="M 315.324219 383.457031 C 298.960938 399.824219 277.453125 407.914062 256.003906 407.738281 L 339.605469 324.136719 C 339.78125 345.585938 331.6875 367.09375 315.324219 383.457031 Z M 315.324219 383.457031 " style=" stroke:none;fill-rule:nonzero;fill:rgb(58.431373%,83.921569%,0%);fill-opacity:1;" />
</g>
</svg>