<svg xmlns="http://www.w3.org/2000/svg" height="511pt" version="1.1" viewBox="-1 -1 511 511.99999" width="511pt">
<g id="surface1">
<path d="M 509.875 254.6875 C 509.875 395.347656 395.847656 509.375 255.1875 509.375 C 114.527344 509.375 0.5 395.347656 0.5 254.6875 C 0.5 114.027344 114.527344 0 255.1875 0 C 395.847656 0 509.875 114.027344 509.875 254.6875 Z M 509.875 254.6875 " style=" stroke:none;fill-rule:nonzero;fill:rgb(32.54902%,95.686275%,85.098039%);fill-opacity:1;" />
<path d="M 509.875 254.6875 C 509.875 280.601562 506.003906 305.613281 498.800781 329.171875 C 496.363281 337.160156 493.539062 344.992188 490.34375 352.632812 C 487.011719 360.652344 483.269531 368.460938 479.152344 376.042969 C 470.945312 391.164062 461.246094 405.351562 450.25 418.433594 C 449.675781 419.117188 449.097656 419.804688 448.511719 420.480469 C 401.8125 474.902344 332.519531 509.375 255.1875 509.375 C 177.855469 509.375 108.5625 474.902344 61.875 420.480469 C 61.285156 419.796875 60.699219 419.109375 60.132812 418.421875 C 49.128906 405.351562 39.429688 391.164062 31.230469 376.042969 C 27.957031 370.042969 24.933594 363.894531 22.160156 357.605469 C 21.433594 355.953125 20.714844 354.304688 20.03125 352.632812 C 7.445312 322.488281 0.5 289.398438 0.5 254.6875 C 0.5 208.703125 12.6875 165.578125 34.007812 128.339844 C 77.902344 205.011719 160.515625 256.675781 255.1875 256.675781 C 349.859375 256.675781 432.484375 205.011719 476.367188 128.339844 C 497.6875 165.578125 509.875 208.703125 509.875 254.6875 Z M 509.875 254.6875 " style=" stroke:none;fill-rule:nonzero;fill:rgb(6.27451%,88.627451%,76.862745%);fill-opacity:1;" />
<path d="M 479.292969 375.761719 C 472.167969 388.914062 463.941406 401.371094 454.699219 413 C 446.300781 423.574219 437.070312 433.464844 427.121094 442.566406 C 381.8125 484.054688 321.453125 509.375 255.1875 509.375 C 188.917969 509.375 128.558594 484.054688 83.253906 442.566406 C 73.304688 433.464844 64.070312 423.574219 55.675781 413 C 46.433594 401.371094 38.207031 388.914062 31.082031 375.761719 Z M 479.292969 375.761719 " style=" stroke:none;fill-rule:nonzero;fill:rgb(92.156863%,46.666667%,13.333333%);fill-opacity:1;" />
<path d="M 317.117188 509.273438 C 317.765625 510.230469 318.441406 511.132812 319.15625 512 C 318.441406 511.132812 317.753906 510.21875 317.117188 509.273438 Z M 317.117188 509.273438 " style=" stroke:none;fill-rule:nonzero;fill:rgb(86.666667%,7.058824%,39.607843%);fill-opacity:1;" />
<path d="M 470.109375 237.097656 L 411.898438 442.566406 L 407.242188 459.003906 C 399.59375 464.703125 391.625 469.988281 383.355469 474.800781 C 383.257812 474.863281 383.15625 474.921875 383.058594 474.980469 C 380.53125 476.453125 377.972656 477.886719 375.386719 479.257812 C 363.058594 485.882812 350.128906 491.503906 336.6875 496.042969 C 329.117188 498.609375 321.375 500.816406 313.496094 502.65625 C 306.691406 504.261719 299.785156 505.582031 292.78125 506.617188 C 289.9375 499.652344 288.523438 492.054688 288.804688 484.261719 C 289.320312 470.363281 289.6875 456.464844 289.46875 442.566406 C 289.449219 440.925781 289.410156 439.273438 289.371094 437.632812 L 282.945312 196.128906 C 282.605469 183.414062 294.425781 173.863281 306.769531 176.859375 L 381.425781 194.976562 L 456.082031 213.089844 C 466.726562 215.667969 473.082031 226.5625 470.109375 237.097656 Z M 470.109375 237.097656 " style=" stroke:none;fill-rule:nonzero;fill:rgb(72.941176%,5.098039%,36.078431%);fill-opacity:1;" />
<path d="M 381.425781 194.976562 L 347.660156 422.234375 L 344.636719 442.566406 L 336.6875 496.042969 C 329.117188 498.609375 321.375 500.816406 313.496094 502.65625 C 306.691406 504.261719 299.785156 505.582031 292.78125 506.617188 C 289.9375 499.652344 288.523438 492.054688 288.804688 484.261719 C 289.320312 470.363281 289.6875 456.464844 289.46875 442.566406 C 289.449219 440.925781 289.410156 439.273438 289.371094 437.632812 L 282.945312 196.128906 C 282.605469 183.414062 294.425781 173.863281 306.769531 176.859375 Z M 381.425781 194.976562 " style=" stroke:none;fill-rule:nonzero;fill:rgb(86.666667%,7.058824%,39.607843%);fill-opacity:1;" />
<path d="M 398.875 410.863281 L 391.183594 442.566406 L 383.355469 474.800781 C 383.257812 474.863281 383.15625 474.921875 383.058594 474.980469 C 380.53125 476.453125 377.972656 477.886719 375.386719 479.257812 L 340.4375 470.78125 L 311.070312 463.660156 L 310.472656 442.566406 L 309.308594 401.429688 C 309.1875 397.242188 309.636719 393.191406 310.5625 389.34375 C 315.695312 368.210938 335.582031 353.296875 357.667969 354.800781 L 357.679688 354.800781 C 360.246094 354.960938 362.832031 355.359375 365.4375 355.996094 C 389.824219 361.914062 404.796875 386.476562 398.875 410.863281 Z M 398.875 410.863281 " style=" stroke:none;fill-rule:nonzero;fill:rgb(100%,62.352941%,0%);fill-opacity:1;" />
<path d="M 310.566406 389.347656 C 309.632812 393.191406 309.1875 397.242188 309.304688 401.433594 L 311.066406 463.65625 L 340.433594 470.78125 L 357.671875 354.796875 C 335.582031 353.296875 315.695312 368.207031 310.566406 389.347656 Z M 310.566406 389.347656 " style=" stroke:none;fill-rule:nonzero;fill:rgb(100%,81.960784%,7.058824%);fill-opacity:1;" />
<path d="M 383.058594 474.980469 C 380.53125 476.453125 377.972656 477.886719 375.386719 479.257812 C 363.058594 485.882812 350.128906 491.503906 336.6875 496.042969 C 329.117188 498.609375 321.375 500.816406 313.496094 502.65625 L 313.496094 502.648438 C 313.316406 502.242188 313.136719 501.832031 312.980469 501.414062 C 312.828125 501.054688 312.679688 500.6875 312.542969 500.308594 C 312.492188 500.199219 312.453125 500.082031 312.410156 499.960938 C 312.28125 499.605469 312.152344 499.234375 312.023438 498.859375 C 311.875 498.429688 311.734375 497.980469 311.597656 497.542969 C 311.4375 497.058594 311.296875 496.570312 311.15625 496.070312 C 310.929688 495.214844 310.699219 494.339844 310.5 493.457031 C 310.402344 492.988281 310.300781 492.519531 310.203125 492.042969 C 310.113281 491.574219 310.023438 491.097656 309.945312 490.621094 C 309.816406 489.902344 309.707031 489.175781 309.605469 488.441406 C 309.507812 487.707031 309.425781 486.96875 309.359375 486.222656 C 309.316406 485.753906 309.277344 485.296875 309.238281 484.839844 C 309.226562 484.75 309.21875 484.660156 309.21875 484.570312 C 309.1875 484.144531 309.167969 483.726562 309.148438 483.296875 C 309.136719 483.207031 309.128906 483.128906 309.136719 483.050781 C 309 480.125 309.058594 477.121094 309.335938 474.054688 C 309.644531 470.644531 310.222656 467.160156 311.070312 463.660156 C 311.199219 463.113281 311.335938 462.574219 311.488281 462.039062 C 311.566406 461.75 311.644531 461.460938 311.726562 461.171875 C 311.855469 460.683594 311.992188 460.195312 312.152344 459.710938 C 312.183594 459.582031 312.234375 459.441406 312.273438 459.300781 C 312.453125 458.703125 312.652344 458.117188 312.847656 457.53125 C 313.039062 456.945312 313.246094 456.367188 313.464844 455.789062 C 313.992188 454.335938 314.570312 452.925781 315.1875 451.542969 C 315.386719 451.105469 315.585938 450.667969 315.792969 450.226562 C 316.0625 449.652344 316.339844 449.074219 316.640625 448.507812 C 316.789062 448.207031 316.9375 447.902344 317.109375 447.613281 C 317.792969 446.277344 318.539062 444.976562 319.324219 443.722656 C 319.542969 443.363281 319.765625 443.015625 319.992188 442.667969 C 320.011719 442.628906 320.03125 442.597656 320.050781 442.566406 C 320.730469 441.523438 321.433594 440.507812 322.160156 439.535156 C 322.449219 439.144531 322.738281 438.769531 323.035156 438.390625 C 323.40625 437.921875 323.773438 437.453125 324.152344 437.007812 C 325.046875 435.933594 325.972656 434.898438 326.9375 433.921875 C 327.144531 433.703125 327.355469 433.496094 327.5625 433.285156 C 329.144531 431.722656 330.785156 430.300781 332.488281 429.027344 C 332.71875 428.859375 332.945312 428.691406 333.164062 428.53125 C 333.394531 428.359375 333.621094 428.203125 333.859375 428.042969 C 334.777344 427.417969 335.703125 426.820312 336.65625 426.28125 C 336.886719 426.144531 337.125 426.011719 337.363281 425.882812 C 337.839844 425.625 338.316406 425.375 338.796875 425.136719 C 339.035156 425.019531 339.261719 424.910156 339.503906 424.800781 C 340.46875 424.351562 341.453125 423.953125 342.445312 423.597656 C 342.6875 423.507812 342.933594 423.425781 343.183594 423.347656 C 343.421875 423.265625 343.671875 423.1875 343.917969 423.109375 C 344.417969 422.960938 344.914062 422.820312 345.410156 422.699219 C 345.621094 422.652344 345.828125 422.601562 346.046875 422.550781 C 346.128906 422.53125 346.21875 422.511719 346.316406 422.492188 C 346.507812 422.453125 346.703125 422.410156 346.902344 422.371094 C 347.152344 422.324219 347.402344 422.273438 347.648438 422.234375 L 347.660156 422.234375 C 351.28125 421.617188 354.933594 421.707031 358.535156 422.582031 C 368.113281 424.910156 375.515625 432.351562 379.785156 442.566406 C 383.605469 451.710938 384.929688 463.074219 383.058594 474.980469 Z M 383.058594 474.980469 " style=" stroke:none;fill-rule:nonzero;fill:rgb(19.607843%,23.137255%,35.294118%);fill-opacity:1;" />
<path d="M 355.621094 188.710938 C 350.578125 209.496094 358.320312 229.214844 372.90625 232.753906 C 373.84375 232.980469 374.789062 233.140625 375.738281 233.222656 C 389.5 234.46875 403.734375 220.980469 408.453125 201.53125 Z M 355.621094 188.710938 " style=" stroke:none;fill-rule:nonzero;fill:rgb(100%,62.352941%,0%);fill-opacity:1;" />
<path d="M 425.738281 245.570312 C 411.148438 242.03125 403.410156 222.3125 408.453125 201.53125 L 461.285156 214.347656 C 456.242188 235.132812 440.328125 249.113281 425.738281 245.570312 Z M 425.738281 245.570312 " style=" stroke:none;fill-rule:nonzero;fill:rgb(100%,62.352941%,0%);fill-opacity:1;" />
<path d="M 355.519531 188.6875 C 350.476562 209.472656 334.5625 223.449219 319.972656 219.910156 C 305.382812 216.371094 297.644531 196.652344 302.6875 175.867188 Z M 355.519531 188.6875 " style=" stroke:none;fill-rule:nonzero;fill:rgb(100%,81.960784%,7.058824%);fill-opacity:1;" />
<path d="M 355.621094 188.710938 C 350.578125 209.496094 358.320312 229.214844 372.90625 232.753906 C 373.84375 232.980469 374.789062 233.140625 375.738281 233.222656 L 381.425781 194.972656 Z M 355.621094 188.710938 " style=" stroke:none;fill-rule:nonzero;fill:rgb(100%,81.960784%,7.058824%);fill-opacity:1;" />
<path d="M 347.648438 422.234375 L 344.625 442.566406 L 336.6875 496.042969 C 329.117188 498.609375 321.375 500.816406 313.496094 502.65625 L 313.496094 502.648438 C 313.316406 502.242188 313.136719 501.832031 312.980469 501.414062 C 312.828125 501.054688 312.679688 500.6875 312.542969 500.308594 C 312.492188 500.199219 312.453125 500.082031 312.410156 499.960938 C 312.28125 499.605469 312.152344 499.234375 312.023438 498.859375 C 311.875 498.429688 311.734375 497.980469 311.597656 497.542969 C 311.4375 497.058594 311.296875 496.570312 311.15625 496.070312 C 310.929688 495.214844 310.699219 494.339844 310.5 493.457031 C 310.402344 492.988281 310.300781 492.519531 310.203125 492.042969 C 310.113281 491.574219 310.023438 491.097656 309.945312 490.621094 C 309.816406 489.902344 309.707031 489.175781 309.605469 488.441406 C 309.507812 487.707031 309.425781 486.96875 309.359375 486.222656 C 309.316406 485.753906 309.277344 485.296875 309.238281 484.839844 C 309.226562 484.75 309.21875 484.660156 309.21875 484.570312 C 309.1875 484.144531 309.167969 483.726562 309.148438 483.296875 C 309.136719 483.207031 309.128906 483.128906 309.136719 483.050781 C 309 480.125 309.058594 477.121094 309.335938 474.054688 C 309.644531 470.644531 310.222656 467.160156 311.070312 463.660156 C 311.199219 463.113281 311.335938 462.574219 311.488281 462.039062 C 311.566406 461.75 311.644531 461.460938 311.726562 461.171875 C 311.855469 460.683594 311.992188 460.195312 312.152344 459.710938 C 312.183594 459.582031 312.234375 459.441406 312.273438 459.300781 C 312.453125 458.703125 312.652344 458.117188 312.847656 457.53125 C 313.039062 456.945312 313.246094 456.367188 313.464844 455.789062 C 313.992188 454.335938 314.570312 452.925781 315.1875 451.542969 C 315.386719 451.105469 315.585938 450.667969 315.792969 450.226562 C 316.0625 449.652344 316.339844 449.074219 316.640625 448.507812 C 316.789062 448.207031 316.9375 447.902344 317.109375 447.613281 C 317.792969 446.277344 318.539062 444.976562 319.324219 443.722656 C 319.542969 443.363281 319.765625 443.015625 319.992188 442.667969 C 320.011719 442.628906 320.03125 442.597656 320.050781 442.566406 C 320.730469 441.523438 321.433594 440.507812 322.160156 439.535156 C 322.449219 439.144531 322.738281 438.769531 323.035156 438.390625 C 323.40625 437.921875 323.773438 437.453125 324.152344 437.007812 C 325.046875 435.933594 325.972656 434.898438 326.9375 433.921875 C 327.144531 433.703125 327.355469 433.496094 327.5625 433.285156 C 329.144531 431.722656 330.785156 430.300781 332.488281 429.027344 C 332.71875 428.859375 332.945312 428.691406 333.164062 428.53125 C 333.394531 428.359375 333.621094 428.203125 333.859375 428.042969 C 334.777344 427.417969 335.703125 426.820312 336.65625 426.28125 C 336.886719 426.144531 337.125 426.011719 337.363281 425.882812 C 337.839844 425.625 338.316406 425.375 338.796875 425.136719 C 339.035156 425.019531 339.261719 424.910156 339.503906 424.800781 C 340.46875 424.351562 341.453125 423.953125 342.445312 423.597656 C 342.6875 423.507812 342.933594 423.425781 343.183594 423.347656 C 343.421875 423.265625 343.671875 423.1875 343.917969 423.109375 C 344.417969 422.960938 344.914062 422.820312 345.410156 422.699219 C 345.621094 422.652344 345.828125 422.601562 346.046875 422.550781 C 346.128906 422.53125 346.21875 422.511719 346.316406 422.492188 C 346.507812 422.453125 346.703125 422.410156 346.902344 422.371094 C 347.152344 422.324219 347.402344 422.273438 347.648438 422.234375 Z M 347.648438 422.234375 " style=" stroke:none;fill-rule:nonzero;fill:rgb(32.54902%,36.862745%,53.72549%);fill-opacity:1;" />
<path d="M 221.570312 484.261719 C 221.589844 484.910156 221.601562 485.554688 221.601562 486.191406 C 221.601562 486.640625 221.589844 487.078125 221.578125 487.527344 C 221.570312 487.964844 221.558594 488.410156 221.53125 488.847656 C 221.511719 489.296875 221.492188 489.734375 221.449219 490.171875 C 221.421875 490.601562 221.382812 491.027344 221.339844 491.457031 L 221.339844 491.515625 C 221.300781 491.855469 221.273438 492.191406 221.222656 492.53125 C 221.210938 492.691406 221.191406 492.859375 221.164062 493.019531 C 221.121094 493.386719 221.074219 493.765625 221.011719 494.132812 C 220.902344 494.886719 220.773438 495.632812 220.636719 496.378906 C 220.566406 496.738281 220.484375 497.105469 220.40625 497.464844 C 220.347656 497.773438 220.277344 498.070312 220.207031 498.378906 C 219.949219 499.535156 219.640625 500.679688 219.292969 501.800781 C 219.082031 502.519531 218.855469 503.226562 218.605469 503.929688 C 218.296875 504.835938 217.957031 505.730469 217.589844 506.617188 C 210.585938 505.582031 203.683594 504.261719 196.878906 502.65625 C 189 500.816406 181.257812 498.609375 173.6875 496.042969 C 157.429688 490.5625 141.910156 483.476562 127.316406 474.980469 C 118.9375 470.117188 110.871094 464.773438 103.128906 459.003906 L 98.476562 442.566406 L 40.265625 237.097656 C 37.289062 226.5625 43.648438 215.667969 54.292969 213.089844 L 128.949219 194.976562 L 203.601562 176.859375 C 215.949219 173.863281 227.769531 183.414062 227.429688 196.128906 L 221.003906 437.632812 C 220.984375 438.480469 220.964844 439.324219 220.941406 440.179688 C 220.921875 440.976562 220.914062 441.773438 220.902344 442.566406 C 220.792969 449.441406 220.832031 456.308594 220.964844 463.183594 C 220.984375 464.652344 221.011719 466.136719 221.054688 467.617188 C 221.113281 470.382812 221.191406 473.148438 221.28125 475.925781 C 221.371094 478.703125 221.46875 481.488281 221.570312 484.261719 Z M 221.570312 484.261719 " style=" stroke:none;fill-rule:nonzero;fill:rgb(86.666667%,7.058824%,39.607843%);fill-opacity:1;" />
<path d="M 221.570312 484.261719 C 221.589844 484.910156 221.601562 485.554688 221.601562 486.191406 C 221.601562 486.640625 221.589844 487.078125 221.578125 487.527344 C 221.570312 487.964844 221.558594 488.410156 221.53125 488.847656 C 221.511719 489.296875 221.492188 489.734375 221.449219 490.171875 C 221.421875 490.601562 221.382812 491.027344 221.339844 491.457031 L 221.339844 491.515625 C 221.300781 491.855469 221.273438 492.191406 221.222656 492.53125 C 221.210938 492.691406 221.191406 492.859375 221.164062 493.019531 C 221.121094 493.386719 221.074219 493.765625 221.011719 494.132812 C 220.902344 494.886719 220.773438 495.632812 220.636719 496.378906 C 220.566406 496.738281 220.484375 497.105469 220.40625 497.464844 C 220.347656 497.773438 220.277344 498.070312 220.207031 498.378906 C 219.949219 499.535156 219.640625 500.679688 219.292969 501.800781 C 219.082031 502.519531 218.84375 503.226562 218.605469 503.929688 C 218.296875 504.835938 217.957031 505.730469 217.589844 506.617188 C 210.585938 505.582031 203.683594 504.261719 196.878906 502.65625 C 189 500.816406 181.257812 498.609375 173.6875 496.042969 L 165.738281 442.566406 L 162.714844 422.234375 L 128.949219 194.976562 L 203.601562 176.859375 C 215.949219 173.863281 227.769531 183.414062 227.429688 196.128906 L 221.003906 437.632812 C 220.984375 438.480469 220.964844 439.324219 220.941406 440.179688 C 220.921875 440.976562 220.914062 441.773438 220.902344 442.566406 C 220.792969 449.433594 220.824219 456.308594 220.964844 463.183594 C 220.984375 464.652344 221.011719 466.136719 221.054688 467.617188 C 221.113281 470.382812 221.191406 473.160156 221.28125 475.925781 C 221.371094 478.703125 221.46875 481.488281 221.570312 484.261719 Z M 221.570312 484.261719 " style=" stroke:none;fill-rule:nonzero;fill:rgb(72.941176%,5.098039%,36.078431%);fill-opacity:1;" />
<path d="M 201.066406 401.429688 L 199.902344 442.566406 L 199.304688 463.660156 L 134.988281 479.257812 C 132.398438 477.886719 129.84375 476.453125 127.316406 474.980469 C 127.214844 474.921875 127.117188 474.863281 127.019531 474.800781 L 119.1875 442.566406 L 111.496094 410.863281 C 105.578125 386.476562 120.550781 361.914062 144.933594 355.996094 C 147.542969 355.359375 150.136719 354.960938 152.707031 354.800781 C 174.792969 353.296875 194.679688 368.210938 199.8125 389.34375 C 200.738281 393.191406 201.183594 397.242188 201.066406 401.429688 Z M 201.066406 401.429688 " style=" stroke:none;fill-rule:nonzero;fill:rgb(100%,81.960784%,7.058824%);fill-opacity:1;" />
<path d="M 199.808594 389.347656 C 200.742188 393.191406 201.183594 397.242188 201.070312 401.433594 L 199.304688 463.65625 L 169.9375 470.78125 L 152.703125 354.796875 C 174.792969 353.296875 194.679688 368.207031 199.808594 389.347656 Z M 199.808594 389.347656 " style=" stroke:none;fill-rule:nonzero;fill:rgb(100%,62.352941%,0%);fill-opacity:1;" />
<path d="M 196.878906 502.65625 C 189 500.816406 181.257812 498.609375 173.6875 496.042969 C 157.429688 490.5625 141.910156 483.476562 127.316406 474.980469 C 125.445312 463.074219 126.769531 451.710938 130.589844 442.566406 C 134.855469 432.351562 142.257812 424.910156 151.839844 422.582031 C 155.441406 421.707031 159.09375 421.617188 162.714844 422.234375 L 162.722656 422.234375 C 173.089844 423.972656 183.089844 431.445312 190.320312 442.566406 C 194.261719 448.625 197.386719 455.761719 199.304688 463.660156 C 202.777344 477.976562 201.59375 491.921875 196.878906 502.65625 Z M 196.878906 502.65625 " style=" stroke:none;fill-rule:nonzero;fill:rgb(32.54902%,36.862745%,53.72549%);fill-opacity:1;" />
<path d="M 154.75 188.710938 C 159.796875 209.496094 152.054688 229.214844 137.464844 232.753906 C 136.53125 232.980469 135.582031 233.140625 134.632812 233.222656 C 120.871094 234.46875 106.640625 220.980469 101.917969 201.53125 Z M 154.75 188.710938 " style=" stroke:none;fill-rule:nonzero;fill:rgb(100%,81.960784%,7.058824%);fill-opacity:1;" />
<path d="M 84.636719 245.570312 C 99.222656 242.03125 106.964844 222.3125 101.921875 201.53125 L 49.085938 214.347656 C 54.132812 235.132812 70.046875 249.113281 84.636719 245.570312 Z M 84.636719 245.570312 " style=" stroke:none;fill-rule:nonzero;fill:rgb(100%,81.960784%,7.058824%);fill-opacity:1;" />
<path d="M 154.851562 188.6875 C 159.894531 209.472656 175.8125 223.449219 190.402344 219.910156 C 204.988281 216.371094 212.730469 196.652344 207.6875 175.867188 Z M 154.851562 188.6875 " style=" stroke:none;fill-rule:nonzero;fill:rgb(100%,62.352941%,0%);fill-opacity:1;" />
<path d="M 154.75 188.710938 C 159.796875 209.496094 152.054688 229.214844 137.464844 232.753906 C 136.53125 232.980469 135.582031 233.140625 134.632812 233.222656 L 128.949219 194.972656 Z M 154.75 188.710938 " style=" stroke:none;fill-rule:nonzero;fill:rgb(100%,62.352941%,0%);fill-opacity:1;" />
<path d="M 196.878906 502.65625 C 189 500.816406 181.257812 498.609375 173.6875 496.042969 L 165.746094 442.566406 L 162.722656 422.234375 C 173.089844 423.972656 183.089844 431.445312 190.320312 442.566406 C 194.261719 448.625 197.386719 455.761719 199.304688 463.660156 C 202.777344 477.976562 201.59375 491.921875 196.878906 502.65625 Z M 196.878906 502.65625 " style=" stroke:none;fill-rule:nonzero;fill:rgb(19.607843%,23.137255%,35.294118%);fill-opacity:1;" />
</g>
</svg>