<svg xmlns="http://www.w3.org/2000/svg" height="512pt" version="1.1" viewBox="0 0 512 512" width="512pt">
<g id="surface1">
<path d="M 512 256 C 512 287.96875 506.140625 318.570312 495.429688 346.789062 C 493.738281 351.261719 491.921875 355.660156 489.980469 360 C 450.121094 449.558594 360.351562 512 256 512 C 150.171875 512 59.328125 447.769531 20.339844 356.160156 C 17.46875 349.421875 14.878906 342.539062 12.589844 335.511719 C 4.421875 310.480469 0 283.761719 0 256 C 0 114.621094 114.621094 0 256 0 C 397.378906 0 512 114.621094 512 256 Z M 512 256 " style=" stroke:none;fill-rule:nonzero;fill:rgb(32.54902%,95.686275%,85.098039%);fill-opacity:1;" />
<path d="M 512 256 C 512 282.050781 508.109375 307.191406 500.871094 330.871094 C 498.421875 338.898438 495.578125 346.769531 492.371094 354.449219 C 489.019531 362.511719 485.261719 370.359375 481.121094 377.980469 C 472.871094 393.179688 463.121094 407.441406 452.070312 420.589844 C 451.488281 421.28125 450.910156 421.96875 450.320312 422.648438 C 403.378906 477.351562 333.730469 512 256 512 C 178.269531 512 108.621094 477.351562 61.691406 422.648438 C 61.101562 421.960938 60.511719 421.269531 59.941406 420.578125 C 48.878906 407.441406 39.128906 393.179688 30.890625 377.980469 C 27.601562 371.949219 24.558594 365.769531 21.769531 359.449219 C 21.039062 357.789062 20.320312 356.128906 19.628906 354.449219 C 6.980469 324.148438 0 290.890625 0 256 C 0 209.78125 12.25 166.429688 33.679688 129 C 77.800781 206.070312 160.839844 258 256 258 C 351.160156 258 434.210938 206.070312 478.320312 129 C 499.75 166.429688 512 209.78125 512 256 Z M 512 256 " style=" stroke:none;fill-rule:nonzero;fill:rgb(6.27451%,88.627451%,76.862745%);fill-opacity:1;" />
<path d="M 481.261719 377.699219 C 474.101562 390.921875 465.828125 403.441406 456.539062 415.128906 C 448.101562 425.761719 438.820312 435.699219 428.820312 444.851562 C 383.28125 486.550781 322.609375 512 256 512 C 189.390625 512 128.71875 486.550781 83.179688 444.851562 C 73.179688 435.699219 63.898438 425.761719 55.460938 415.128906 C 46.171875 403.441406 37.898438 390.921875 30.738281 377.699219 Z M 481.261719 377.699219 " style=" stroke:none;fill-rule:nonzero;fill:rgb(5.882353%,60.784314%,90.980392%);fill-opacity:1;" />
<path d="M 496.414062 245.796875 C 497.050781 245.117188 497.363281 244.785156 498 244.105469 C 497.230469 232.886719 487.886719 224.023438 476.472656 224.023438 C 474.085938 224.023438 471.785156 224.417969 469.640625 225.136719 C 468.964844 225.359375 468.207031 225.101562 467.832031 224.492188 C 462.902344 216.515625 454.078125 211.195312 444.007812 211.195312 C 430.820312 211.195312 419.769531 220.316406 416.804688 232.597656 C 416.625 233.335938 415.925781 233.816406 415.164062 233.769531 C 414.867188 233.753906 414.566406 233.746094 414.265625 233.746094 C 407.640625 233.746094 401.972656 237.839844 399.652344 243.632812 C 399.234375 244.667969 400.011719 245.796875 401.125 245.796875 Z M 496.414062 245.796875 " style=" stroke:none;fill-rule:nonzero;fill:rgb(100%,100%,100%);fill-opacity:1;" />
<path d="M 475.3125 245.796875 C 475.976562 245.019531 476.214844 244.738281 476.878906 243.960938 C 476.039062 237.925781 470.855469 233.277344 464.589844 233.277344 C 463.382812 233.277344 462.214844 233.449219 461.113281 233.773438 C 460.453125 233.964844 459.742188 233.722656 459.363281 233.148438 C 456.484375 228.78125 451.539062 225.898438 445.921875 225.898438 C 438.511719 225.898438 432.277344 230.902344 430.402344 237.71875 C 430.210938 238.417969 429.558594 238.867188 428.828125 238.867188 C 428.824219 238.867188 428.820312 238.867188 428.816406 238.867188 C 425.4375 238.867188 422.492188 240.71875 420.9375 243.460938 C 420.347656 244.503906 421.132812 245.796875 422.328125 245.796875 Z M 475.3125 245.796875 " style=" stroke:none;fill-rule:nonzero;fill:rgb(81.568627%,96.470588%,100%);fill-opacity:1;" />
<path d="M 417.773438 139.660156 C 418.410156 138.980469 418.722656 138.648438 419.359375 137.96875 C 418.589844 126.753906 409.246094 117.890625 397.832031 117.890625 C 395.445312 117.890625 393.148438 118.28125 391 119 C 390.324219 119.226562 389.566406 118.964844 389.191406 118.359375 C 384.261719 110.378906 375.4375 105.058594 365.367188 105.058594 C 352.179688 105.058594 341.128906 114.183594 338.164062 126.460938 C 337.984375 127.203125 337.285156 127.679688 336.523438 127.636719 C 336.226562 127.617188 335.929688 127.609375 335.628906 127.609375 C 329 127.609375 323.335938 131.703125 321.011719 137.5 C 320.597656 138.535156 321.371094 139.660156 322.484375 139.660156 Z M 417.773438 139.660156 " style=" stroke:none;fill-rule:nonzero;fill:rgb(100%,100%,100%);fill-opacity:1;" />
<path d="M 396.671875 139.660156 C 397.335938 138.882812 397.574219 138.605469 398.238281 137.824219 C 397.398438 131.789062 392.214844 127.140625 385.949219 127.140625 C 384.742188 127.140625 383.574219 127.316406 382.472656 127.636719 C 381.8125 127.832031 381.101562 127.585938 380.726562 127.011719 C 377.847656 122.648438 372.902344 119.765625 367.28125 119.765625 C 359.871094 119.765625 353.636719 124.769531 351.761719 131.582031 C 351.570312 132.285156 350.917969 132.730469 350.191406 132.730469 C 350.1875 132.730469 350.179688 132.730469 350.175781 132.730469 C 346.796875 132.730469 343.851562 134.582031 342.296875 137.324219 C 341.707031 138.367188 342.492188 139.660156 343.6875 139.660156 Z M 396.671875 139.660156 " style=" stroke:none;fill-rule:nonzero;fill:rgb(81.568627%,96.470588%,100%);fill-opacity:1;" />
<path d="M 122.59375 106.472656 C 121.847656 105.675781 121.480469 105.285156 120.734375 104.488281 C 121.636719 91.335938 132.59375 80.945312 145.976562 80.945312 C 148.777344 80.945312 151.472656 81.402344 153.988281 82.246094 C 154.785156 82.511719 155.667969 82.207031 156.109375 81.492188 C 161.890625 72.136719 172.238281 65.898438 184.046875 65.898438 C 199.511719 65.898438 212.46875 76.597656 215.945312 90.992188 C 216.15625 91.863281 216.976562 92.425781 217.871094 92.371094 C 218.21875 92.351562 218.566406 92.339844 218.921875 92.339844 C 226.691406 92.339844 233.335938 97.140625 236.058594 103.9375 C 236.546875 105.148438 235.640625 106.472656 234.332031 106.472656 Z M 122.59375 106.472656 " style=" stroke:none;fill-rule:nonzero;fill:rgb(100%,100%,100%);fill-opacity:1;" />
<path d="M 147.339844 106.472656 C 146.5625 105.5625 146.28125 105.234375 145.503906 104.320312 C 146.488281 97.242188 152.566406 91.792969 159.914062 91.792969 C 161.328125 91.792969 162.695312 91.996094 163.988281 92.375 C 164.761719 92.601562 165.59375 92.316406 166.039062 91.644531 C 169.414062 86.523438 175.214844 83.144531 181.804688 83.144531 C 190.492188 83.144531 197.804688 89.011719 200 97 C 200.226562 97.824219 200.988281 98.347656 201.84375 98.347656 C 201.847656 98.347656 201.851562 98.347656 201.859375 98.347656 C 205.820312 98.347656 209.273438 100.519531 211.097656 103.738281 C 211.789062 104.957031 210.871094 106.476562 209.464844 106.476562 Z M 147.339844 106.472656 " style=" stroke:none;fill-rule:nonzero;fill:rgb(81.568627%,96.470588%,100%);fill-opacity:1;" />
<path d="M 34.105469 231.179688 C 33.652344 230.695312 33.429688 230.460938 32.976562 229.976562 C 33.523438 221.992188 40.171875 215.6875 48.292969 215.6875 C 49.992188 215.6875 51.625 215.96875 53.152344 216.476562 C 53.636719 216.640625 54.171875 216.453125 54.441406 216.023438 C 57.949219 210.34375 64.226562 206.558594 71.390625 206.558594 C 80.773438 206.558594 88.640625 213.050781 90.746094 221.785156 C 90.875 222.3125 91.375 222.652344 91.914062 222.621094 C 92.128906 222.609375 92.339844 222.601562 92.554688 222.601562 C 97.269531 222.601562 101.300781 225.515625 102.953125 229.640625 C 103.25 230.375 102.699219 231.179688 101.90625 231.179688 Z M 34.105469 231.179688 " style=" stroke:none;fill-rule:nonzero;fill:rgb(100%,100%,100%);fill-opacity:1;" />
<path d="M 49.117188 231.179688 C 48.644531 230.625 48.476562 230.425781 48.003906 229.871094 C 48.601562 225.578125 52.289062 222.269531 56.746094 222.269531 C 57.605469 222.269531 58.4375 222.394531 59.21875 222.625 C 59.6875 222.761719 60.195312 222.589844 60.464844 222.179688 C 62.511719 219.070312 66.03125 217.019531 70.03125 217.019531 C 75.300781 217.019531 79.738281 220.582031 81.070312 225.429688 C 81.207031 225.929688 81.671875 226.246094 82.1875 226.246094 C 82.191406 226.246094 82.195312 226.246094 82.199219 226.246094 C 84.601562 226.246094 86.699219 227.566406 87.804688 229.515625 C 88.222656 230.257812 87.664062 231.179688 86.8125 231.179688 Z M 49.117188 231.179688 " style=" stroke:none;fill-rule:nonzero;fill:rgb(81.568627%,96.470588%,100%);fill-opacity:1;" />
<path d="M 351.71875 328.339844 L 398.871094 401.070312 L 315.113281 378.65625 L 310.582031 465.234375 L 256 397.847656 L 201.417969 465.234375 L 196.886719 378.65625 L 113.128906 401.070312 L 160.28125 328.339844 L 79.394531 297.234375 L 160.28125 266.128906 L 113.128906 193.394531 L 196.886719 215.808594 L 201.417969 129.234375 L 256 196.617188 L 310.582031 129.234375 L 315.113281 215.808594 L 398.871094 193.394531 L 351.71875 266.128906 L 432.605469 297.234375 Z M 351.71875 328.339844 " style=" stroke:none;fill-rule:nonzero;fill:rgb(100%,81.960784%,7.058824%);fill-opacity:1;" />
<path d="M 351.71875 328.339844 L 398.871094 401.070312 L 315.113281 378.65625 L 310.582031 465.234375 L 256 397.847656 L 256 196.617188 L 310.582031 129.234375 L 315.113281 215.808594 L 398.871094 193.394531 L 351.71875 266.128906 L 432.605469 297.234375 Z M 351.71875 328.339844 " style=" stroke:none;fill-rule:nonzero;fill:rgb(100%,81.960784%,7.058824%);fill-opacity:1;" />
<path d="M 373.101562 297.230469 C 373.101562 361.898438 320.679688 414.320312 256.011719 414.328125 C 256 414.320312 256 414.328125 256 414.328125 C 191.328125 414.328125 138.898438 361.898438 138.898438 297.230469 C 138.898438 232.558594 191.328125 180.128906 256 180.128906 C 256.011719 180.128906 256.011719 180.128906 256.019531 180.128906 C 320.679688 180.140625 373.101562 232.570312 373.101562 297.230469 Z M 373.101562 297.230469 " style=" stroke:none;fill-rule:nonzero;fill:rgb(100%,91.372549%,33.333333%);fill-opacity:1;" />
<path d="M 373.101562 297.230469 C 373.101562 361.898438 320.679688 414.320312 256.011719 414.328125 C 256 414.320312 256 414.328125 256 414.328125 C 218.449219 388.929688 193.769531 345.960938 193.769531 297.230469 C 193.769531 248.488281 218.460938 205.519531 256.019531 180.128906 C 320.679688 180.140625 373.101562 232.570312 373.101562 297.230469 Z M 373.101562 297.230469 " style=" stroke:none;fill-rule:nonzero;fill:rgb(100%,81.960784%,7.058824%);fill-opacity:1;" />
<path d="M 373.101562 297.234375 C 373.101562 361.902344 320.671875 414.332031 256 414.332031 L 256 180.132812 C 320.671875 180.132812 373.101562 232.5625 373.101562 297.234375 Z M 373.101562 297.234375 " style=" stroke:none;fill-rule:nonzero;fill:rgb(100%,62.352941%,0%);fill-opacity:1;" />
</g>
</svg>