<svg xmlns="http://www.w3.org/2000/svg" height="512pt" version="1.1" viewBox="0 0 512 512" width="512pt">
<g id="surface1">
<path d="M 512 256 C 512 397.386719 397.386719 512 256 512 C 114.613281 512 0 397.386719 0 256 C 0 114.613281 114.613281 0 256 0 C 397.386719 0 512 114.613281 512 256 Z M 512 256 " style=" stroke:none;fill-rule:nonzero;fill:rgb(100%,91.372549%,33.333333%);fill-opacity:1;" />
<path d="M 512 256 C 512 282.050781 508.109375 307.191406 500.871094 330.871094 C 498.421875 338.898438 495.578125 346.769531 492.371094 354.449219 C 489.019531 362.511719 485.261719 370.359375 481.121094 377.980469 C 472.871094 393.179688 463.121094 407.441406 452.070312 420.589844 C 451.488281 421.28125 450.910156 421.96875 450.320312 422.648438 C 403.378906 477.351562 333.730469 512 256 512 C 178.269531 512 108.621094 477.351562 61.691406 422.648438 C 61.101562 421.960938 60.511719 421.269531 59.941406 420.578125 C 48.878906 407.441406 39.128906 393.179688 30.890625 377.980469 C 27.601562 371.949219 24.558594 365.769531 21.769531 359.449219 C 21.039062 357.789062 20.320312 356.128906 19.628906 354.449219 C 6.980469 324.148438 0 290.890625 0 256 C 0 209.78125 12.25 166.429688 33.679688 129 C 77.800781 206.070312 160.839844 258 256 258 C 351.160156 258 434.210938 206.070312 478.320312 129 C 499.75 166.429688 512 209.78125 512 256 Z M 512 256 " style=" stroke:none;fill-rule:nonzero;fill:rgb(100%,81.960784%,7.058824%);fill-opacity:1;" />
<path d="M 481.261719 377.699219 C 474.101562 390.921875 465.828125 403.441406 456.539062 415.128906 C 440.839844 434.878906 422.289062 452.269531 401.5 466.640625 C 397.851562 469.179688 394.140625 471.609375 390.359375 473.941406 C 353.058594 496.988281 309.390625 510.730469 262.609375 511.910156 C 260.410156 511.96875 258.210938 512 256 512 C 253.789062 512 251.589844 511.96875 249.390625 511.910156 C 202.390625 510.71875 158.550781 496.871094 121.128906 473.628906 L 120.960938 473.519531 C 117.308594 471.238281 113.699219 468.878906 110.171875 466.410156 L 110 466.300781 C 89.421875 451.988281 71.03125 434.730469 55.460938 415.128906 C 46.171875 403.441406 37.898438 390.921875 30.738281 377.699219 Z M 481.261719 377.699219 " style=" stroke:none;fill-rule:nonzero;fill:rgb(5.882353%,60.784314%,90.980392%);fill-opacity:1;" />
<path d="M 453.414062 139.660156 C 454.050781 138.980469 454.363281 138.648438 455 137.96875 C 454.230469 126.753906 444.886719 117.890625 433.472656 117.890625 C 431.085938 117.890625 428.785156 118.28125 426.640625 119 C 425.964844 119.226562 425.207031 118.964844 424.832031 118.359375 C 419.902344 110.378906 411.078125 105.058594 401.007812 105.058594 C 387.820312 105.058594 376.769531 114.183594 373.804688 126.460938 C 373.625 127.203125 372.925781 127.679688 372.164062 127.636719 C 371.867188 127.617188 371.566406 127.609375 371.265625 127.609375 C 364.640625 127.609375 358.972656 131.703125 356.652344 137.5 C 356.234375 138.535156 357.011719 139.660156 358.125 139.660156 Z M 453.414062 139.660156 " style=" stroke:none;fill-rule:nonzero;fill:rgb(100%,100%,100%);fill-opacity:1;" />
<path d="M 432.3125 139.660156 C 432.976562 138.882812 433.214844 138.605469 433.878906 137.824219 C 433.039062 131.789062 427.855469 127.140625 421.589844 127.140625 C 420.382812 127.140625 419.214844 127.316406 418.113281 127.636719 C 417.453125 127.832031 416.742188 127.585938 416.363281 127.011719 C 413.484375 122.648438 408.539062 119.765625 402.921875 119.765625 C 395.511719 119.765625 389.277344 124.769531 387.402344 131.582031 C 387.210938 132.285156 386.558594 132.730469 385.828125 132.730469 C 385.824219 132.730469 385.820312 132.730469 385.816406 132.730469 C 382.4375 132.730469 379.492188 134.582031 377.9375 137.324219 C 377.347656 138.367188 378.132812 139.660156 379.328125 139.660156 Z M 432.3125 139.660156 " style=" stroke:none;fill-rule:nonzero;fill:rgb(81.568627%,96.470588%,100%);fill-opacity:1;" />
<path d="M 156.414062 139.660156 C 157.050781 138.980469 157.363281 138.648438 158 137.96875 C 157.230469 126.753906 147.886719 117.890625 136.472656 117.890625 C 134.085938 117.890625 131.785156 118.28125 129.640625 119 C 128.964844 119.226562 128.207031 118.964844 127.832031 118.359375 C 122.902344 110.378906 114.078125 105.058594 104.007812 105.058594 C 90.820312 105.058594 79.769531 114.183594 76.804688 126.460938 C 76.625 127.203125 75.925781 127.679688 75.164062 127.636719 C 74.867188 127.617188 74.566406 127.609375 74.265625 127.609375 C 67.640625 127.609375 61.972656 131.703125 59.652344 137.5 C 59.234375 138.535156 60.011719 139.660156 61.125 139.660156 Z M 156.414062 139.660156 " style=" stroke:none;fill-rule:nonzero;fill:rgb(100%,100%,100%);fill-opacity:1;" />
<path d="M 135.3125 139.660156 C 135.976562 138.882812 136.214844 138.605469 136.878906 137.824219 C 136.039062 131.789062 130.855469 127.140625 124.589844 127.140625 C 123.382812 127.140625 122.214844 127.316406 121.113281 127.636719 C 120.453125 127.832031 119.742188 127.585938 119.363281 127.011719 C 116.484375 122.648438 111.539062 119.765625 105.921875 119.765625 C 98.511719 119.765625 92.277344 124.769531 90.402344 131.582031 C 90.210938 132.285156 89.558594 132.730469 88.828125 132.730469 C 88.824219 132.730469 88.820312 132.730469 88.816406 132.730469 C 85.4375 132.730469 82.492188 134.582031 80.9375 137.324219 C 80.347656 138.367188 81.132812 139.660156 82.328125 139.660156 Z M 135.3125 139.660156 " style=" stroke:none;fill-rule:nonzero;fill:rgb(81.568627%,96.470588%,100%);fill-opacity:1;" />
<path d="M 306.414062 62.691406 C 307.050781 62.011719 307.363281 61.679688 308 61 C 307.230469 49.78125 297.886719 40.921875 286.472656 40.921875 C 284.085938 40.921875 281.785156 41.3125 279.640625 42.03125 C 278.964844 42.257812 278.207031 41.996094 277.832031 41.390625 C 272.902344 33.410156 264.078125 28.089844 254.007812 28.089844 C 240.820312 28.089844 229.769531 37.214844 226.804688 49.492188 C 226.625 50.230469 225.925781 50.710938 225.164062 50.664062 C 224.867188 50.648438 224.566406 50.640625 224.265625 50.640625 C 217.640625 50.640625 211.972656 54.734375 209.652344 60.527344 C 209.234375 61.5625 210.011719 62.691406 211.125 62.691406 Z M 306.414062 62.691406 " style=" stroke:none;fill-rule:nonzero;fill:rgb(100%,100%,100%);fill-opacity:1;" />
<path d="M 285.3125 62.691406 C 285.976562 61.914062 286.214844 61.632812 286.878906 60.855469 C 286.039062 54.820312 280.855469 50.171875 274.589844 50.171875 C 273.382812 50.171875 272.214844 50.347656 271.113281 50.667969 C 270.453125 50.859375 269.742188 50.617188 269.363281 50.042969 C 266.484375 45.675781 261.539062 42.792969 255.921875 42.792969 C 248.511719 42.792969 242.277344 47.800781 240.402344 54.613281 C 240.210938 55.3125 239.558594 55.761719 238.828125 55.761719 C 238.824219 55.761719 238.820312 55.761719 238.816406 55.761719 C 235.4375 55.761719 232.492188 57.613281 230.9375 60.355469 C 230.347656 61.398438 231.132812 62.691406 232.328125 62.691406 Z M 285.3125 62.691406 " style=" stroke:none;fill-rule:nonzero;fill:rgb(81.568627%,96.470588%,100%);fill-opacity:1;" />
<path d="M 414.851562 245.722656 C 398.136719 214.835938 372.671875 189.371094 341.773438 172.640625 C 317.390625 159.449219 289.648438 151.710938 260.148438 151.054688 C 258.875 151.019531 257.59375 151 256.308594 151 L 255.988281 151 C 224.941406 151 195.734375 158.832031 170.214844 172.640625 C 139.328125 189.371094 113.863281 214.832031 97.148438 245.722656 C 83.339844 271.238281 75.496094 300.460938 75.496094 331.503906 C 75.496094 362.539062 83.339844 391.761719 97.148438 417.269531 C 113.855469 448.164062 139.328125 473.640625 170.226562 490.347656 C 195.742188 504.15625 224.953125 512 255.988281 512 L 256.308594 512 C 257.613281 512 258.917969 511.980469 260.214844 511.945312 C 289.6875 511.277344 317.414062 503.53125 341.773438 490.347656 C 372.671875 473.628906 398.144531 448.164062 414.851562 417.269531 C 428.660156 391.761719 436.503906 362.539062 436.503906 331.503906 C 436.503906 300.460938 428.660156 271.238281 414.851562 245.722656 Z M 340.839844 367.433594 C 331.519531 389.414062 313.910156 407.015625 291.9375 416.335938 C 280.984375 420.984375 268.949219 423.574219 256.308594 423.613281 L 255.988281 423.613281 C 243.242188 423.613281 231.097656 421.023438 220.058594 416.335938 C 198.089844 407.015625 180.480469 389.414062 171.160156 367.433594 C 166.46875 356.394531 163.878906 344.253906 163.878906 331.503906 C 163.878906 318.746094 166.46875 306.59375 171.160156 295.554688 C 180.480469 273.585938 198.089844 255.984375 220.058594 246.664062 C 231.097656 241.976562 243.242188 239.386719 255.988281 239.386719 L 256.308594 239.386719 C 268.949219 239.425781 280.984375 242.015625 291.9375 246.664062 C 313.898438 255.984375 331.507812 273.585938 340.839844 295.554688 C 345.53125 306.59375 348.121094 318.746094 348.121094 331.503906 C 348.121094 344.253906 345.53125 356.394531 340.839844 367.433594 Z M 340.839844 367.433594 " style=" stroke:none;fill-rule:nonzero;fill:rgb(100%,20.392157%,27.058824%);fill-opacity:1;" />
<path d="M 414.851562 245.722656 C 398.136719 214.835938 372.671875 189.371094 341.773438 172.640625 C 317.390625 159.449219 289.648438 151.710938 260.148438 151.054688 C 249.121094 154.628906 238.539062 159.183594 228.507812 164.617188 C 196.0625 182.195312 169.3125 208.941406 151.746094 241.390625 C 137.238281 268.191406 129 298.886719 129 331.507812 C 129 364.113281 137.238281 394.808594 151.746094 421.597656 C 169.304688 454.058594 196.0625 480.816406 228.519531 498.371094 C 238.570312 503.816406 249.175781 508.371094 260.214844 511.949219 C 289.6875 511.277344 317.414062 503.53125 341.773438 490.347656 C 372.671875 473.632812 398.144531 448.167969 414.851562 417.269531 C 428.660156 391.761719 436.503906 362.542969 436.503906 331.507812 C 436.503906 300.460938 428.660156 271.238281 414.851562 245.722656 Z M 340.839844 367.433594 C 331.519531 389.414062 313.910156 407.015625 291.9375 416.335938 C 280.984375 420.984375 268.949219 423.574219 256.308594 423.613281 L 255.988281 423.613281 C 243.242188 423.613281 231.097656 421.023438 220.058594 416.335938 C 198.089844 407.015625 180.480469 389.414062 171.160156 367.433594 C 166.46875 356.394531 163.878906 344.253906 163.878906 331.503906 C 163.878906 318.746094 166.46875 306.59375 171.160156 295.554688 C 180.480469 273.585938 198.089844 255.984375 220.058594 246.664062 C 231.097656 241.976562 243.242188 239.386719 255.988281 239.386719 L 256.308594 239.386719 C 268.949219 239.425781 280.984375 242.015625 291.9375 246.664062 C 313.898438 255.984375 331.507812 273.585938 340.839844 295.554688 C 345.53125 306.59375 348.121094 318.746094 348.121094 331.503906 C 348.121094 344.253906 345.53125 356.394531 340.839844 367.433594 Z M 340.839844 367.433594 " style=" stroke:none;fill-rule:nonzero;fill:rgb(86.666667%,7.058824%,39.607843%);fill-opacity:1;" />
<path d="M 436.503906 331.503906 C 436.503906 362.539062 428.660156 391.761719 414.851562 417.269531 C 398.144531 448.164062 372.671875 473.628906 341.773438 490.347656 C 316.339844 504.113281 287.238281 511.945312 256.308594 512 L 256.308594 423.613281 C 268.949219 423.574219 280.984375 420.984375 291.9375 416.335938 C 313.910156 407.015625 331.519531 389.414062 340.839844 367.433594 C 345.53125 356.394531 348.121094 344.253906 348.121094 331.503906 C 348.121094 318.746094 345.53125 306.59375 340.839844 295.554688 C 331.507812 273.585938 313.898438 255.984375 291.9375 246.664062 C 280.984375 242.015625 268.949219 239.425781 256.308594 239.386719 L 256.308594 151 C 287.238281 151.054688 316.339844 158.875 341.773438 172.640625 C 372.671875 189.371094 398.132812 214.832031 414.851562 245.722656 C 428.660156 271.238281 436.503906 300.460938 436.503906 331.503906 Z M 436.503906 331.503906 " style=" stroke:none;fill-rule:nonzero;fill:rgb(72.941176%,5.098039%,36.078431%);fill-opacity:1;" />
<path d="M 220.058594 246.664062 C 198.089844 255.984375 180.480469 273.585938 171.160156 295.554688 L 138.105469 273.296875 L 97.148438 245.722656 C 113.863281 214.835938 139.328125 189.371094 170.214844 172.640625 L 185.96875 196.035156 Z M 220.058594 246.664062 " style=" stroke:none;fill-rule:nonzero;fill:rgb(100%,100%,100%);fill-opacity:1;" />
<path d="M 220.058594 416.335938 L 185.96875 466.972656 L 170.226562 490.347656 C 139.328125 473.640625 113.855469 448.164062 97.148438 417.269531 L 138.097656 389.691406 L 171.160156 367.433594 C 180.480469 389.414062 198.089844 407.015625 220.058594 416.335938 Z M 220.058594 416.335938 " style=" stroke:none;fill-rule:nonzero;fill:rgb(100%,100%,100%);fill-opacity:1;" />
<path d="M 414.851562 417.269531 C 398.144531 448.164062 372.671875 473.628906 341.773438 490.347656 L 291.9375 416.335938 C 313.910156 407.015625 331.519531 389.414062 340.839844 367.433594 Z M 414.851562 417.269531 " style=" stroke:none;fill-rule:nonzero;fill:rgb(51.764706%,76.470588%,96.862745%);fill-opacity:1;" />
<path d="M 414.851562 245.722656 L 340.839844 295.554688 C 331.507812 273.585938 313.898438 255.984375 291.9375 246.664062 L 341.773438 172.644531 C 372.671875 189.371094 398.136719 214.835938 414.851562 245.722656 Z M 414.851562 245.722656 " style=" stroke:none;fill-rule:nonzero;fill:rgb(51.764706%,76.470588%,96.862745%);fill-opacity:1;" />
<path d="M 220.058594 246.664062 L 185.96875 196.035156 C 172.421875 209.292969 160.855469 224.578125 151.746094 241.390625 C 146.269531 251.507812 141.683594 262.175781 138.109375 273.296875 L 171.160156 295.554688 C 180.480469 273.585938 198.089844 255.984375 220.058594 246.664062 Z M 171.160156 367.433594 L 138.097656 389.691406 C 141.6875 400.816406 146.269531 411.484375 151.746094 421.597656 C 160.84375 438.421875 172.414062 453.707031 185.96875 466.972656 L 220.0625 416.335938 C 198.089844 407.015625 180.480469 389.414062 171.160156 367.433594 Z M 171.160156 367.433594 " style=" stroke:none;fill-rule:nonzero;fill:rgb(81.568627%,96.470588%,100%);fill-opacity:1;" />
</g>
</svg>