<svg xmlns="http://www.w3.org/2000/svg" height="512pt" version="1.1" viewBox="0 0 512 512" width="512pt">
<g id="surface1">
<path d="M 512 256 C 512 397.386719 397.386719 512 256 512 C 114.613281 512 0 397.386719 0 256 C 0 114.613281 114.613281 0 256 0 C 397.386719 0 512 114.613281 512 256 Z M 512 256 " style=" stroke:none;fill-rule:nonzero;fill:rgb(40.784314%,98.823529%,87.45098%);fill-opacity:1;" />
<path d="M 0 256 C 0 282.050781 3.890625 307.191406 11.128906 330.871094 C 43.140625 435.71875 140.671875 512 256 512 C 360.558594 512 450.488281 449.300781 490.230469 359.449219 C 504.230469 327.820312 512 292.820312 512 256 C 512 209.78125 499.75 166.429688 478.320312 129 C 434.199219 206.070312 351.160156 258 256 258 C 160.839844 258 77.789062 206.070312 33.679688 129 C 12.25 166.429688 0 209.78125 0 256 Z M 0 256 " style=" stroke:none;fill-rule:nonzero;fill:rgb(6.27451%,88.627451%,76.862745%);fill-opacity:1;" />
<path d="M 481.257812 377.703125 C 474.101562 390.921875 465.828125 403.441406 456.539062 415.128906 C 409.640625 474.148438 337.238281 512 256 512 C 174.761719 512 102.359375 474.148438 55.460938 415.128906 C 46.171875 403.441406 37.898438 390.921875 30.742188 377.703125 Z M 481.257812 377.703125 " style=" stroke:none;fill-rule:nonzero;fill:rgb(19.607843%,23.137255%,35.294118%);fill-opacity:1;" />
<path d="M 100.71875 459.539062 C 141.929688 491.03125 192.988281 510.289062 248.46875 511.890625 C 250.96875 511.960938 253.480469 512 256 512 C 258.5 512 260.988281 511.960938 263.46875 511.890625 C 318.96875 510.300781 370.050781 491.039062 411.28125 459.539062 C 403.910156 427.050781 385.539062 398.160156 359.558594 377.699219 C 347.898438 368.511719 334.699219 361.019531 320.269531 355.671875 L 313.519531 353.171875 L 309.949219 351.839844 L 295.21875 346.390625 L 294.609375 346.160156 L 288.898438 344.039062 L 223.101562 344.039062 L 217.390625 346.160156 L 216.769531 346.390625 L 202.050781 351.839844 L 198.480469 353.171875 L 191.730469 355.671875 C 177.300781 361.019531 164.101562 368.519531 152.441406 377.699219 C 126.460938 398.171875 108.101562 427.050781 100.71875 459.539062 Z M 100.71875 459.539062 " style=" stroke:none;fill-rule:nonzero;fill:rgb(100%,81.960784%,7.058824%);fill-opacity:1;" />
<path d="M 100.71875 459.539062 C 141.929688 491.03125 192.988281 510.289062 248.46875 511.890625 C 250.96875 511.960938 253.480469 512 256 512 C 258.5 512 260.988281 511.960938 263.46875 511.890625 L 263.46875 344.039062 L 223.101562 344.039062 L 217.390625 346.160156 L 216.769531 346.390625 L 202.050781 351.839844 L 198.480469 353.171875 L 191.730469 355.671875 C 177.300781 361.019531 164.101562 368.519531 152.441406 377.699219 C 126.460938 398.171875 108.101562 427.050781 100.71875 459.539062 Z M 100.71875 459.539062 " style=" stroke:none;fill-rule:nonzero;fill:rgb(100%,91.372549%,33.333333%);fill-opacity:1;" />
<path d="M 248.46875 344.039062 L 248.46875 511.890625 C 250.96875 511.960938 253.480469 512 256 512 C 258.5 512 260.988281 511.960938 263.46875 511.890625 L 263.46875 344.039062 Z M 248.46875 344.039062 " style=" stroke:none;fill-rule:nonzero;fill:rgb(92.156863%,46.666667%,13.333333%);fill-opacity:1;" />
<path d="M 372.273438 203.777344 C 386.574219 203.777344 398.167969 215.371094 398.167969 229.671875 C 398.167969 255.722656 377.050781 276.839844 351.003906 276.839844 L 351.003906 203.722656 Z M 372.273438 203.777344 " style=" stroke:none;fill-rule:nonzero;fill:rgb(89.019608%,51.372549%,35.294118%);fill-opacity:1;" />
<path d="M 139.71875 203.777344 C 125.414062 203.777344 113.820312 215.371094 113.820312 229.671875 C 113.820312 255.722656 134.9375 276.839844 160.988281 276.839844 L 160.988281 203.722656 Z M 139.71875 203.777344 " style=" stroke:none;fill-rule:nonzero;fill:rgb(89.019608%,51.372549%,35.294118%);fill-opacity:1;" />
<path d="M 216.769531 297.101562 L 216.769531 352.921875 C 216.769531 374.578125 234.328125 392.148438 256 392.148438 C 277.660156 392.148438 295.21875 374.578125 295.21875 352.921875 L 295.21875 297.101562 Z M 216.769531 297.101562 " style=" stroke:none;fill-rule:nonzero;fill:rgb(89.019608%,51.372549%,35.294118%);fill-opacity:1;" />
<path d="M 216.769531 297.101562 L 216.769531 352.921875 C 216.769531 374.578125 234.328125 392.148438 256 392.148438 L 256 297.101562 Z M 216.769531 297.101562 " style=" stroke:none;fill-rule:nonzero;fill:rgb(100%,65.882353%,47.843137%);fill-opacity:1;" />
<path d="M 154.78125 208.640625 L 154.78125 246.800781 C 154.78125 302.679688 200.070312 348 255.96875 348.019531 L 256 348.019531 C 311.878906 348.019531 357.210938 302.691406 357.210938 246.800781 L 357.210938 208.640625 C 357.210938 202.890625 356.738281 197.25 355.789062 191.769531 C 349.191406 152.339844 319.769531 120.648438 281.589844 110.679688 C 273.421875 108.570312 264.828125 107.429688 256 107.429688 L 255.96875 107.429688 C 247.121094 107.429688 238.539062 108.570312 230.378906 110.699219 C 192.199219 120.648438 162.800781 152.339844 156.199219 191.769531 C 155.25 197.25 154.78125 202.890625 154.78125 208.640625 Z M 154.78125 208.640625 " style=" stroke:none;fill-rule:nonzero;fill:rgb(100%,65.882353%,47.843137%);fill-opacity:1;" />
<path d="M 154.78125 208.640625 L 154.78125 246.800781 C 154.78125 302.679688 200.070312 348 255.96875 348.019531 L 255.96875 107.429688 C 247.121094 107.429688 238.539062 108.570312 230.378906 110.699219 C 192.199219 120.648438 162.800781 152.339844 156.199219 191.769531 C 155.25 197.25 154.78125 202.890625 154.78125 208.640625 Z M 154.78125 208.640625 " style=" stroke:none;fill-rule:nonzero;fill:rgb(100%,75.294118%,64.313725%);fill-opacity:1;" />
<path d="M 133.070312 199.289062 C 133.070312 205.199219 137.5 210.1875 143.378906 210.878906 C 148.460938 211.480469 153.648438 211.777344 158.890625 211.777344 C 197.289062 211.777344 231.878906 195.378906 255.96875 169.167969 C 280.089844 195.378906 314.679688 211.777344 353.078125 211.777344 C 358.261719 211.777344 363.371094 211.488281 368.398438 210.898438 C 371.398438 210.558594 374.019531 209.109375 375.910156 206.988281 C 377.789062 204.867188 378.921875 202.097656 378.921875 199.070312 C 378.921875 153.277344 354.210938 110.527344 313.628906 89.328125 C 305.421875 85.039062 296.679688 81.640625 287.519531 79.238281 C 277.460938 76.628906 266.871094 75.238281 256 75.238281 C 255.980469 75.238281 255.980469 75.238281 255.96875 75.238281 C 245.078125 75.238281 234.5 76.628906 224.449219 79.269531 C 219.210938 80.640625 214.121094 82.328125 209.191406 84.320312 C 185.960938 93.730469 166.929688 109.949219 153.710938 130.070312 C 140.488281 150.1875 133.070312 174.230469 133.070312 199.289062 Z M 133.070312 199.289062 " style=" stroke:none;fill-rule:nonzero;fill:rgb(65.098039%,22.352941%,7.843137%);fill-opacity:1;" />
<path d="M 133.070312 199.289062 C 133.070312 205.199219 137.5 210.1875 143.378906 210.878906 C 148.460938 211.480469 153.648438 211.777344 158.890625 211.777344 C 197.289062 211.777344 231.878906 195.378906 255.96875 169.167969 L 255.96875 75.238281 C 245.078125 75.238281 234.5 76.628906 224.449219 79.269531 C 219.210938 80.640625 214.121094 82.328125 209.191406 84.320312 C 185.960938 93.730469 166.929688 109.949219 153.710938 130.070312 C 140.488281 150.1875 133.070312 174.230469 133.070312 199.289062 Z M 133.070312 199.289062 " style=" stroke:none;fill-rule:nonzero;fill:rgb(92.156863%,46.666667%,13.333333%);fill-opacity:1;" />
<path d="M 168.753906 195.871094 L 341.050781 195.871094 C 351.5625 195.871094 359.660156 205.136719 358.253906 215.554688 L 354.289062 244.910156 C 351.503906 265.515625 333.914062 280.886719 313.125 280.886719 L 276.226562 280.886719 C 268.53125 280.886719 261.203125 278.765625 254.902344 274.996094 C 248.601562 278.765625 241.277344 280.886719 233.582031 280.886719 L 196.683594 280.886719 C 175.890625 280.886719 158.304688 265.515625 155.519531 244.910156 L 151.554688 215.554688 C 150.144531 205.136719 158.242188 195.871094 168.753906 195.871094 Z M 168.753906 195.871094 " style=" stroke:none;fill-rule:nonzero;fill:rgb(19.607843%,23.137255%,35.294118%);fill-opacity:1;" />
<path d="M 163.445312 208.589844 C 164.230469 207.6875 165.96875 206.175781 168.753906 206.175781 L 341.050781 206.175781 C 343.839844 206.175781 345.574219 207.6875 346.363281 208.589844 C 347.148438 209.488281 348.414062 211.414062 348.042969 214.175781 L 344.074219 243.53125 C 343.0625 251.023438 339.371094 257.890625 333.675781 262.863281 C 327.984375 267.839844 320.6875 270.578125 313.125 270.578125 L 276.226562 270.578125 C 268.125 270.578125 260.5625 267.445312 254.902344 262.15625 C 249.242188 267.445312 241.683594 270.578125 233.582031 270.578125 L 196.683594 270.578125 C 189.121094 270.578125 181.824219 267.839844 176.132812 262.863281 C 170.4375 257.890625 166.746094 251.023438 165.734375 243.53125 L 161.765625 214.175781 C 161.390625 211.414062 162.65625 209.488281 163.445312 208.589844 Z M 163.445312 208.589844 " style=" stroke:none;fill-rule:nonzero;fill:rgb(32.54902%,36.862745%,53.72549%);fill-opacity:1;" />
<path d="M 173.996094 219.398438 L 177.109375 242.417969 C 177.902344 248.292969 180.800781 253.675781 185.261719 257.578125 C 189.726562 261.480469 195.449219 263.628906 201.378906 263.628906 L 230.316406 263.628906 C 240.761719 263.628906 250.066406 256.992188 253.46875 247.117188 L 254.902344 242.960938 L 256.335938 247.117188 C 259.738281 256.992188 269.042969 263.628906 279.492188 263.628906 L 308.429688 263.628906 C 314.355469 263.628906 320.078125 261.480469 324.542969 257.578125 C 329.007812 253.675781 331.902344 248.292969 332.695312 242.417969 L 335.808594 219.398438 C 336.101562 217.230469 335.109375 215.722656 334.492188 215.019531 C 333.875 214.3125 332.511719 213.128906 330.328125 213.128906 L 179.476562 213.128906 C 177.292969 213.128906 175.933594 214.3125 175.3125 215.019531 C 174.699219 215.722656 173.707031 217.230469 173.996094 219.398438 Z M 173.996094 219.398438 " style=" stroke:none;fill-rule:nonzero;fill:rgb(39.607843%,69.803922%,100%);fill-opacity:1;" />
<path d="M 173.996094 219.398438 L 177.109375 242.417969 C 177.902344 248.292969 180.800781 253.675781 185.261719 257.578125 C 189.726562 261.480469 195.449219 263.628906 201.378906 263.628906 L 230.316406 263.628906 C 240.761719 263.628906 250.066406 256.992188 253.46875 247.117188 L 254.902344 242.960938 L 256.335938 247.117188 C 259.738281 256.992188 269.042969 263.628906 279.492188 263.628906 L 295.539062 263.628906 L 295.539062 213.125 L 179.476562 213.125 C 177.292969 213.125 175.933594 214.3125 175.3125 215.015625 C 174.699219 215.722656 173.707031 217.230469 173.996094 219.398438 Z M 173.996094 219.398438 " style=" stroke:none;fill-rule:nonzero;fill:rgb(66.666667%,83.529412%,97.647059%);fill-opacity:1;" />
<path d="M 173.996094 219.398438 L 177.109375 242.417969 C 177.902344 248.292969 180.800781 253.675781 185.261719 257.578125 C 189.726562 261.480469 195.449219 263.628906 201.378906 263.628906 L 230.316406 263.628906 C 240.761719 263.628906 250.066406 256.992188 253.46875 247.117188 L 254.902344 242.960938 L 254.902344 213.125 L 179.480469 213.125 C 177.292969 213.125 175.933594 214.3125 175.316406 215.015625 C 174.699219 215.722656 173.707031 217.230469 173.996094 219.398438 Z M 173.996094 219.398438 " style=" stroke:none;fill-rule:nonzero;fill:rgb(6.27451%,88.627451%,76.862745%);fill-opacity:1;" />
<path d="M 173.996094 219.398438 L 177.109375 242.417969 C 177.902344 248.292969 180.800781 253.675781 185.261719 257.578125 C 189.726562 261.480469 195.449219 263.628906 201.378906 263.628906 L 214.425781 263.628906 L 214.425781 213.125 L 179.476562 213.125 C 177.292969 213.125 175.933594 214.3125 175.3125 215.015625 C 174.699219 215.722656 173.707031 217.230469 173.996094 219.398438 Z M 173.996094 219.398438 " style=" stroke:none;fill-rule:nonzero;fill:rgb(40.784314%,98.823529%,87.45098%);fill-opacity:1;" />
<path d="M 242.660156 277.597656 L 254.902344 289.964844 L 267.144531 277.597656 C 270.972656 273.730469 272.273438 268.027344 270.503906 262.882812 L 263.890625 243.699219 C 262.570312 239.863281 258.960938 237.289062 254.902344 237.289062 C 250.84375 237.289062 247.234375 239.863281 245.910156 243.699219 L 239.300781 262.882812 C 237.53125 268.027344 238.832031 273.734375 242.660156 277.597656 Z M 242.660156 277.597656 " style=" stroke:none;fill-rule:nonzero;fill:rgb(32.54902%,36.862745%,53.72549%);fill-opacity:1;" />
<path d="M 242.660156 277.597656 L 254.902344 289.964844 L 254.902344 237.289062 C 250.847656 237.289062 247.234375 239.863281 245.914062 243.699219 L 239.304688 262.882812 C 237.53125 268.027344 238.832031 273.734375 242.660156 277.597656 Z M 242.660156 277.597656 " style=" stroke:none;fill-rule:nonzero;fill:rgb(19.607843%,23.137255%,35.294118%);fill-opacity:1;" />
<path d="M 279.296875 320.105469 C 279.296875 333.964844 268.0625 345.199219 254.203125 345.199219 C 240.347656 345.199219 229.113281 333.964844 229.113281 320.105469 C 229.113281 306.25 240.347656 295.015625 254.203125 295.015625 C 268.0625 295.015625 279.296875 306.25 279.296875 320.105469 Z M 279.296875 320.105469 " style=" stroke:none;fill-rule:nonzero;fill:rgb(19.607843%,23.137255%,35.294118%);fill-opacity:1;" />
<path d="M 118.988281 135.792969 L 118.988281 233.046875 C 118.988281 246.394531 121.605469 259.347656 126.765625 271.554688 C 131.746094 283.332031 138.878906 293.910156 147.957031 302.988281 C 157.035156 312.070312 167.613281 319.199219 179.394531 324.183594 C 191.597656 329.34375 204.554688 331.960938 217.898438 331.960938 L 256.132812 331.960938 C 262.679688 331.960938 267.988281 326.652344 267.988281 320.105469 C 267.988281 316.835938 266.660156 313.871094 264.515625 311.726562 C 262.371094 309.582031 259.40625 308.253906 256.132812 308.253906 L 217.898438 308.253906 C 197.8125 308.253906 178.925781 300.429688 164.722656 286.226562 C 150.515625 272.023438 142.691406 253.136719 142.691406 233.046875 L 142.691406 100.984375 C 142.691406 94.34375 134.050781 91.773438 130.421875 97.335938 C 126.691406 103.054688 123.832031 109.257812 121.90625 115.734375 C 119.980469 122.210938 118.988281 128.964844 118.988281 135.792969 Z M 118.988281 135.792969 " style=" stroke:none;fill-rule:nonzero;fill:rgb(19.607843%,23.137255%,35.294118%);fill-opacity:1;" />
<path d="M 130.839844 96.761719 L 130.839844 232.191406 C 130.839844 280.746094 170.203125 320.105469 218.757812 320.105469 L 267.988281 320.105469 C 267.988281 316.835938 266.660156 313.871094 264.515625 311.722656 C 262.371094 309.578125 259.40625 308.253906 256.132812 308.253906 L 217.898438 308.253906 C 197.8125 308.253906 178.925781 300.429688 164.722656 286.226562 C 150.515625 272.019531 142.691406 253.132812 142.691406 233.046875 L 142.691406 100.984375 C 142.691406 94.585938 134.671875 91.964844 130.839844 96.761719 Z M 130.839844 96.761719 " style=" stroke:none;fill-rule:nonzero;fill:rgb(32.54902%,36.862745%,53.72549%);fill-opacity:1;" />
<path d="M 118.988281 135.792969 L 118.988281 166.023438 L 142.691406 166.023438 L 142.691406 100.984375 C 142.691406 99.046875 141.960938 97.453125 140.824219 96.3125 C 140.449219 95.929688 140.027344 95.597656 139.574219 95.320312 C 139.121094 95.042969 138.636719 94.816406 138.136719 94.648438 C 137.945312 94.585938 137.753906 94.535156 137.558594 94.488281 C 136.636719 94.265625 135.667969 94.230469 134.722656 94.40625 C 134.605469 94.429688 134.492188 94.449219 134.378906 94.480469 C 134.257812 94.507812 134.140625 94.542969 134.023438 94.574219 C 133.859375 94.625 133.695312 94.679688 133.53125 94.746094 C 133.476562 94.769531 133.421875 94.792969 133.367188 94.816406 C 133.3125 94.839844 133.257812 94.867188 133.203125 94.890625 C 133.148438 94.914062 133.09375 94.941406 133.039062 94.96875 C 132.714844 95.128906 132.398438 95.320312 132.097656 95.546875 C 132.050781 95.585938 131.996094 95.621094 131.949219 95.65625 C 131.851562 95.738281 131.753906 95.816406 131.65625 95.902344 C 131.609375 95.945312 131.558594 95.988281 131.511719 96.03125 C 131.46875 96.074219 131.421875 96.121094 131.375 96.167969 C 131.328125 96.214844 131.28125 96.261719 131.234375 96.308594 C 131.101562 96.453125 130.96875 96.601562 130.839844 96.761719 C 130.695312 96.941406 130.554688 97.132812 130.425781 97.335938 C 126.691406 103.054688 123.832031 109.257812 121.90625 115.734375 C 119.980469 122.210938 118.988281 128.964844 118.988281 135.792969 Z M 118.988281 135.792969 " style=" stroke:none;fill-rule:nonzero;fill:rgb(100%,81.960784%,7.058824%);fill-opacity:1;" />
<path d="M 130.839844 96.761719 L 130.839844 166.023438 L 142.691406 166.023438 L 142.691406 100.984375 C 142.691406 99.046875 141.960938 97.453125 140.824219 96.3125 C 140.449219 95.933594 140.027344 95.597656 139.574219 95.320312 C 139.121094 95.046875 138.636719 94.820312 138.136719 94.652344 C 137.046875 94.289062 135.863281 94.195312 134.722656 94.40625 C 134.605469 94.429688 134.492188 94.453125 134.378906 94.480469 C 134.257812 94.507812 134.140625 94.542969 134.023438 94.574219 C 133.859375 94.628906 133.695312 94.683594 133.53125 94.75 C 133.476562 94.773438 133.421875 94.796875 133.367188 94.820312 C 133.3125 94.84375 133.257812 94.867188 133.203125 94.890625 C 133.148438 94.917969 133.09375 94.941406 133.039062 94.972656 C 132.714844 95.132812 132.398438 95.324219 132.097656 95.546875 C 132.050781 95.585938 131.996094 95.621094 131.949219 95.660156 C 131.851562 95.738281 131.753906 95.820312 131.65625 95.902344 C 131.609375 95.945312 131.558594 95.988281 131.511719 96.03125 C 131.46875 96.078125 131.421875 96.121094 131.375 96.171875 C 131.328125 96.214844 131.28125 96.261719 131.234375 96.308594 C 131.101562 96.453125 130.964844 96.601562 130.839844 96.761719 Z M 130.839844 96.761719 " style=" stroke:none;fill-rule:nonzero;fill:rgb(100%,91.372549%,33.333333%);fill-opacity:1;" />
</g>
</svg>