<svg xmlns="http://www.w3.org/2000/svg" height="512pt" version="1.1" viewBox="0 0 512 512" width="512pt">
<g id="surface1">
<path d="M 512 256 C 512 397.386719 397.386719 512 256 512 C 114.613281 512 0 397.386719 0 256 C 0 114.613281 114.613281 0 256 0 C 397.386719 0 512 114.613281 512 256 Z M 512 256 " style=" stroke:none;fill-rule:nonzero;fill:rgb(32.54902%,95.686275%,85.098039%);fill-opacity:1;" />
<path d="M 512 256 C 512 282.050781 508.109375 307.191406 500.871094 330.871094 C 498.421875 338.898438 495.578125 346.769531 492.371094 354.449219 C 489.019531 362.511719 485.261719 370.359375 481.121094 377.980469 C 472.871094 393.179688 463.121094 407.441406 452.070312 420.589844 C 451.488281 421.28125 450.910156 421.96875 450.320312 422.648438 C 403.378906 477.351562 333.730469 512 256 512 C 178.269531 512 108.621094 477.351562 61.691406 422.648438 C 61.101562 421.960938 60.511719 421.269531 59.941406 420.578125 C 48.878906 407.441406 39.128906 393.179688 30.890625 377.980469 C 27.601562 371.949219 24.558594 365.769531 21.769531 359.449219 C 21.039062 357.789062 20.320312 356.128906 19.628906 354.449219 C 6.980469 324.148438 0 290.890625 0 256 C 0 209.78125 12.25 166.429688 33.679688 129 C 77.800781 206.070312 160.839844 258 256 258 C 351.160156 258 434.210938 206.070312 478.320312 129 C 499.75 166.429688 512 209.78125 512 256 Z M 512 256 " style=" stroke:none;fill-rule:nonzero;fill:rgb(6.27451%,88.627451%,76.862745%);fill-opacity:1;" />
<path d="M 481.261719 377.699219 C 474.101562 390.921875 465.828125 403.441406 456.539062 415.128906 C 448.101562 425.761719 438.820312 435.699219 428.820312 444.851562 C 409.628906 462.421875 387.75 477.109375 363.878906 488.21875 C 362.351562 488.929688 360.820312 489.621094 359.28125 490.300781 C 351.011719 493.960938 342.511719 497.179688 333.800781 499.960938 C 328.871094 501.53125 323.859375 502.960938 318.800781 504.238281 C 310.441406 506.351562 301.921875 508.039062 293.25 509.308594 C 288.699219 509.96875 284.121094 510.511719 279.5 510.929688 C 275.289062 511.320312 271.058594 511.601562 266.800781 511.769531 C 263.21875 511.921875 259.621094 512 256 512 C 252.378906 512 248.78125 511.921875 245.199219 511.769531 C 240.941406 511.601562 236.710938 511.320312 232.5 510.929688 C 227.230469 510.460938 222 509.820312 216.828125 509.019531 C 208.210938 507.699219 199.738281 505.949219 191.441406 503.789062 C 186.980469 502.628906 182.558594 501.351562 178.199219 499.960938 C 169.488281 497.179688 160.980469 493.949219 152.710938 490.289062 C 151.171875 489.621094 149.628906 488.921875 148.101562 488.210938 C 124.230469 477.101562 102.371094 462.421875 83.179688 444.851562 C 73.179688 435.699219 63.898438 425.761719 55.460938 415.128906 C 46.171875 403.441406 37.898438 390.921875 30.738281 377.699219 Z M 481.261719 377.699219 " style=" stroke:none;fill-rule:nonzero;fill:rgb(19.607843%,23.137255%,35.294118%);fill-opacity:1;" />
<path d="M 122.289062 124.640625 L 120.765625 124.640625 C 114.011719 124.640625 108.539062 119.167969 108.539062 112.414062 L 108.539062 110.890625 L 99.820312 110.890625 L 99.820312 112.414062 C 99.820312 119.167969 94.347656 124.640625 87.59375 124.640625 L 86.070312 124.640625 L 86.070312 133.359375 L 87.59375 133.359375 C 94.347656 133.359375 99.820312 138.832031 99.820312 145.585938 L 99.820312 147.109375 L 108.539062 147.109375 L 108.539062 145.585938 C 108.539062 138.832031 114.011719 133.359375 120.765625 133.359375 L 122.289062 133.359375 Z M 122.289062 124.640625 " style=" stroke:none;fill-rule:nonzero;fill:rgb(100%,100%,100%);fill-opacity:1;" />
<path d="M 65.144531 215.652344 L 63.621094 215.652344 C 56.867188 215.652344 51.394531 210.179688 51.394531 203.425781 L 51.394531 201.902344 L 42.675781 201.902344 L 42.675781 203.425781 C 42.675781 210.179688 37.203125 215.652344 30.449219 215.652344 L 28.925781 215.652344 L 28.925781 224.367188 L 30.449219 224.367188 C 37.203125 224.367188 42.675781 229.84375 42.675781 236.597656 L 42.675781 238.121094 L 51.394531 238.121094 L 51.394531 236.597656 C 51.394531 229.84375 56.867188 224.367188 63.621094 224.367188 L 65.144531 224.367188 Z M 65.144531 215.652344 " style=" stroke:none;fill-rule:nonzero;fill:rgb(100%,100%,100%);fill-opacity:1;" />
<path d="M 477.398438 215.652344 L 475.875 215.652344 C 469.121094 215.652344 463.648438 210.179688 463.648438 203.425781 L 463.648438 201.902344 L 454.929688 201.902344 L 454.929688 203.425781 C 454.929688 210.179688 449.457031 215.652344 442.703125 215.652344 L 441.179688 215.652344 L 441.179688 224.367188 L 442.703125 224.367188 C 449.457031 224.367188 454.929688 229.84375 454.929688 236.597656 L 454.929688 238.121094 L 463.648438 238.121094 L 463.648438 236.597656 C 463.648438 229.84375 469.121094 224.367188 475.875 224.367188 L 477.398438 224.367188 Z M 477.398438 215.652344 " style=" stroke:none;fill-rule:nonzero;fill:rgb(100%,100%,100%);fill-opacity:1;" />
<path d="M 423.554688 124.640625 L 422.03125 124.640625 C 415.277344 124.640625 409.804688 119.167969 409.804688 112.414062 L 409.804688 110.890625 L 401.089844 110.890625 L 401.089844 112.414062 C 401.089844 119.167969 395.613281 124.640625 388.859375 124.640625 L 387.335938 124.640625 L 387.335938 133.359375 L 388.859375 133.359375 C 395.613281 133.359375 401.089844 138.832031 401.089844 145.585938 L 401.089844 147.109375 L 409.804688 147.109375 L 409.804688 145.585938 C 409.804688 138.832031 415.277344 133.359375 422.03125 133.359375 L 423.554688 133.359375 Z M 423.554688 124.640625 " style=" stroke:none;fill-rule:nonzero;fill:rgb(100%,100%,100%);fill-opacity:1;" />
<path d="M 122.289062 319.976562 L 120.765625 319.976562 C 114.011719 319.976562 108.539062 314.5 108.539062 307.746094 L 108.539062 306.222656 L 99.820312 306.222656 L 99.820312 307.746094 C 99.820312 314.5 94.347656 319.976562 87.59375 319.976562 L 86.070312 319.976562 L 86.070312 328.691406 L 87.59375 328.691406 C 94.347656 328.691406 99.820312 334.164062 99.820312 340.917969 L 99.820312 342.441406 L 108.539062 342.441406 L 108.539062 340.917969 C 108.539062 334.164062 114.011719 328.691406 120.765625 328.691406 L 122.289062 328.691406 Z M 122.289062 319.976562 " style=" stroke:none;fill-rule:nonzero;fill:rgb(100%,100%,100%);fill-opacity:1;" />
<path d="M 427.554688 319.976562 L 426.03125 319.976562 C 419.277344 319.976562 413.804688 314.5 413.804688 307.746094 L 413.804688 306.222656 L 405.089844 306.222656 L 405.089844 307.746094 C 405.089844 314.5 399.613281 319.976562 392.859375 319.976562 L 391.335938 319.976562 L 391.335938 328.691406 L 392.859375 328.691406 C 399.613281 328.691406 405.089844 334.164062 405.089844 340.917969 L 405.089844 342.441406 L 413.804688 342.441406 L 413.804688 340.917969 C 413.804688 334.164062 419.277344 328.691406 426.03125 328.691406 L 427.554688 328.691406 Z M 427.554688 319.976562 " style=" stroke:none;fill-rule:nonzero;fill:rgb(100%,100%,100%);fill-opacity:1;" />
<path d="M 138.511719 367.53125 L 138.511719 441.628906 C 138.511719 442.289062 138.519531 442.941406 138.53125 443.601562 C 138.539062 444.25 138.550781 444.910156 138.578125 445.558594 C 138.601562 446.210938 138.628906 446.859375 138.660156 447.511719 C 138.691406 448.160156 138.71875 448.808594 138.769531 449.449219 C 138.800781 449.921875 138.828125 450.390625 138.871094 450.859375 C 138.910156 451.371094 138.949219 451.878906 139 452.378906 C 139.039062 452.878906 139.089844 453.390625 139.140625 453.890625 C 139.199219 454.390625 139.25 454.890625 139.308594 455.398438 C 139.371094 455.898438 139.429688 456.398438 139.5 456.898438 C 139.628906 457.898438 139.769531 458.890625 139.921875 459.878906 C 140.078125 460.878906 140.238281 461.871094 140.429688 462.851562 C 140.5 463.261719 140.578125 463.679688 140.660156 464.101562 C 140.769531 464.660156 140.878906 465.21875 141 465.78125 C 141.148438 466.480469 141.300781 467.179688 141.460938 467.878906 C 141.78125 469.28125 142.121094 470.671875 142.488281 472.039062 C 142.648438 472.648438 142.820312 473.261719 142.988281 473.859375 C 143.070312 474.128906 143.140625 474.390625 143.21875 474.648438 C 143.46875 475.511719 143.730469 476.359375 144 477.199219 C 144 477.21875 144.011719 477.238281 144.019531 477.261719 C 144.160156 477.71875 144.320312 478.191406 144.46875 478.648438 C 144.621094 479.121094 144.78125 479.578125 144.941406 480.039062 C 145.210938 480.820312 145.488281 481.609375 145.78125 482.390625 C 145.859375 482.621094 145.949219 482.851562 146.039062 483.078125 C 146.289062 483.730469 146.539062 484.390625 146.800781 485.039062 C 146.929688 485.359375 147.050781 485.679688 147.191406 486 C 147.421875 486.578125 147.660156 487.171875 147.921875 487.738281 C 147.980469 487.898438 148.050781 488.058594 148.121094 488.21875 C 149.648438 488.929688 151.179688 489.621094 152.71875 490.300781 C 160.988281 493.960938 169.488281 497.179688 178.199219 499.960938 C 183.128906 501.53125 188.140625 502.960938 193.199219 504.238281 C 201.558594 506.351562 210.078125 508.039062 218.75 509.308594 C 223.300781 509.96875 227.878906 510.511719 232.5 510.929688 C 236.710938 511.320312 240.941406 511.601562 245.199219 511.769531 C 248.78125 511.921875 252.378906 512 256 512 C 259.621094 512 263.21875 511.921875 266.800781 511.769531 C 271.058594 511.601562 275.289062 511.320312 279.5 510.929688 C 284.769531 510.460938 290 509.820312 295.171875 509.019531 C 303.789062 507.699219 312.261719 505.949219 320.558594 503.789062 C 325.019531 502.628906 329.441406 501.351562 333.800781 499.960938 C 342.511719 497.179688 351.019531 493.949219 359.289062 490.289062 C 360.828125 489.621094 362.371094 488.921875 363.898438 488.210938 C 370.058594 473.941406 373.488281 458.191406 373.488281 441.628906 L 373.488281 367.53125 C 373.488281 349.191406 369.289062 331.839844 361.800781 316.359375 C 358.070312 308.660156 353.511719 301.421875 348.25 294.769531 C 338.628906 282.578125 326.628906 272.339844 312.96875 264.769531 C 305.191406 260.429688 296.859375 256.960938 288.109375 254.480469 C 284.28125 253.398438 280.359375 252.5 276.371094 251.800781 C 274.289062 251.441406 272.179688 251.128906 270.058594 250.878906 C 265.449219 250.320312 260.75 250.039062 256 250.039062 L 255.988281 250.039062 C 251.230469 250.039062 246.539062 250.320312 241.941406 250.878906 C 241.019531 250.988281 240.109375 251.109375 239.199219 251.238281 C 238.570312 251.328125 237.949219 251.421875 237.328125 251.519531 C 236.761719 251.609375 236.199219 251.699219 235.640625 251.800781 L 235.628906 251.800781 C 235.539062 251.820312 235.449219 251.828125 235.359375 251.851562 C 234.640625 251.980469 233.921875 252.109375 233.210938 252.261719 C 233.070312 252.28125 232.929688 252.308594 232.78125 252.339844 C 232.53125 252.390625 232.269531 252.441406 232.019531 252.5 C 231.621094 252.570312 231.230469 252.660156 230.828125 252.75 C 230.449219 252.828125 230.078125 252.921875 229.699219 253 C 228.929688 253.171875 228.179688 253.351562 227.421875 253.539062 C 227.140625 253.609375 226.859375 253.679688 226.578125 253.761719 C 225.679688 253.988281 224.78125 254.230469 223.878906 254.480469 C 215.128906 256.96875 206.800781 260.429688 199.019531 264.769531 C 185.359375 272.351562 173.371094 282.578125 163.75 294.769531 C 158.488281 301.421875 153.949219 308.640625 150.199219 316.351562 C 142.71875 331.820312 138.511719 349.191406 138.511719 367.53125 Z M 138.511719 367.53125 " style=" stroke:none;fill-rule:nonzero;fill:rgb(100%,62.352941%,0%);fill-opacity:1;" />
<path d="M 256 250.039062 L 256 512 C 252.378906 512 248.78125 511.921875 245.199219 511.769531 C 240.941406 511.601562 236.710938 511.320312 232.5 510.929688 C 227.878906 510.511719 223.300781 509.96875 218.75 509.308594 C 210.078125 508.039062 201.558594 506.351562 193.199219 504.238281 C 191.71875 503.871094 190.238281 503.480469 188.769531 503.070312 C 185.21875 502.109375 181.691406 501.070312 178.199219 499.960938 C 169.488281 497.179688 160.988281 493.960938 152.71875 490.300781 C 151.179688 489.621094 149.648438 488.929688 148.121094 488.21875 C 148.050781 488.058594 147.980469 487.898438 147.921875 487.738281 C 147.660156 487.171875 147.421875 486.578125 147.191406 486 C 147.050781 485.679688 146.929688 485.359375 146.800781 485.039062 C 146.539062 484.390625 146.289062 483.730469 146.039062 483.078125 C 145.949219 482.851562 145.859375 482.621094 145.78125 482.390625 C 145.488281 481.609375 145.210938 480.820312 144.941406 480.039062 C 144.78125 479.578125 144.621094 479.121094 144.46875 478.648438 C 144.320312 478.191406 144.160156 477.71875 144.019531 477.261719 C 144.011719 477.238281 144 477.21875 144 477.199219 C 143.730469 476.359375 143.46875 475.511719 143.21875 474.648438 C 143.140625 474.390625 143.070312 474.128906 142.988281 473.859375 C 142.820312 473.261719 142.648438 472.648438 142.488281 472.039062 C 142.121094 470.671875 141.78125 469.28125 141.460938 467.878906 C 141.300781 467.179688 141.148438 466.480469 141 465.78125 C 140.878906 465.21875 140.769531 464.660156 140.660156 464.101562 C 140.578125 463.679688 140.5 463.261719 140.429688 462.851562 C 140.238281 461.871094 140.078125 460.878906 139.921875 459.878906 C 139.769531 458.890625 139.628906 457.898438 139.5 456.898438 C 139.429688 456.398438 139.371094 455.898438 139.308594 455.398438 C 139.25 454.890625 139.199219 454.390625 139.140625 453.890625 C 139.089844 453.390625 139.039062 452.878906 139 452.378906 C 138.949219 451.878906 138.910156 451.371094 138.871094 450.859375 C 138.828125 450.390625 138.800781 449.921875 138.769531 449.449219 C 138.71875 448.808594 138.691406 448.160156 138.660156 447.511719 C 138.628906 446.859375 138.601562 446.210938 138.578125 445.558594 C 138.550781 444.910156 138.539062 444.25 138.53125 443.601562 C 138.519531 442.941406 138.511719 442.289062 138.511719 441.628906 L 138.511719 367.53125 C 138.511719 349.191406 142.71875 331.820312 150.199219 316.351562 C 153.949219 308.640625 158.488281 301.421875 163.75 294.769531 C 173.371094 282.578125 185.359375 272.351562 199.019531 264.769531 C 206.800781 260.429688 215.128906 256.96875 223.878906 254.480469 C 224.78125 254.230469 225.679688 253.988281 226.578125 253.761719 C 226.859375 253.679688 227.140625 253.609375 227.421875 253.539062 C 228.179688 253.351562 228.929688 253.171875 229.699219 253 C 230.078125 252.921875 230.449219 252.828125 230.828125 252.75 C 231.230469 252.660156 231.621094 252.570312 232.019531 252.5 C 232.269531 252.441406 232.53125 252.390625 232.78125 252.339844 C 232.929688 252.308594 233.070312 252.28125 233.210938 252.261719 C 233.921875 252.109375 234.640625 251.980469 235.359375 251.851562 C 235.449219 251.828125 235.539062 251.820312 235.628906 251.800781 L 235.640625 251.800781 C 236.199219 251.699219 236.761719 251.609375 237.328125 251.519531 C 237.949219 251.421875 238.570312 251.328125 239.199219 251.238281 C 240.109375 251.109375 241.019531 250.988281 241.941406 250.878906 C 246.519531 250.320312 251.191406 250.039062 255.929688 250.039062 Z M 256 250.039062 " style=" stroke:none;fill-rule:nonzero;fill:rgb(100%,91.372549%,33.333333%);fill-opacity:1;" />
<path d="M 256 250.039062 L 256 512 C 252.378906 512 248.78125 511.921875 245.199219 511.769531 C 240.941406 511.601562 236.710938 511.320312 232.5 510.929688 C 227.878906 510.511719 223.300781 509.96875 218.75 509.308594 C 210.078125 508.039062 201.558594 506.351562 193.199219 504.238281 C 191.71875 503.871094 190.238281 503.480469 188.769531 503.070312 L 188.769531 364.171875 C 188.769531 343.789062 193.449219 324.488281 201.761719 307.308594 C 205.929688 298.738281 210.96875 290.71875 216.808594 283.328125 C 227.480469 269.808594 240.78125 258.460938 255.929688 250.039062 Z M 256 250.039062 " style=" stroke:none;fill-rule:nonzero;fill:rgb(100%,81.960784%,7.058824%);fill-opacity:1;" />
<path d="M 373.710938 404.300781 L 373.488281 404.078125 L 373.488281 369.929688 L 365.71875 377.699219 L 356.410156 387.019531 L 323.78125 354.378906 L 361.800781 316.359375 L 348.25 294.769531 L 306.210938 336.800781 L 273.570312 304.171875 L 312.96875 264.769531 C 305.191406 260.429688 296.859375 256.960938 288.109375 254.480469 L 256 286.589844 L 234.410156 265.011719 L 223.878906 254.480469 C 215.128906 256.96875 206.800781 260.429688 199.019531 264.769531 L 217.160156 282.898438 L 238.429688 304.171875 L 205.789062 336.800781 L 194.570312 325.578125 L 163.75 294.769531 C 158.488281 301.421875 153.949219 308.640625 150.199219 316.351562 L 188.21875 354.378906 L 155.578125 387.019531 L 146.269531 377.699219 L 138.511719 369.929688 L 138.511719 404.078125 L 138.300781 404.300781 L 138.011719 404.589844 L 138.511719 405.078125 L 138.511719 439.230469 L 155.578125 422.160156 L 188.21875 454.800781 L 152.71875 490.300781 C 160.988281 493.960938 169.488281 497.179688 178.199219 499.960938 L 205.789062 472.371094 L 238.429688 505 L 232.5 510.929688 C 236.710938 511.320312 240.941406 511.601562 245.199219 511.769531 C 248.78125 511.921875 252.378906 512 256 512 C 259.621094 512 263.21875 511.921875 266.800781 511.769531 C 271.058594 511.601562 275.289062 511.320312 279.5 510.929688 L 273.570312 505 L 306.210938 472.371094 L 333.800781 499.960938 C 342.511719 497.179688 351.019531 493.949219 359.289062 490.289062 L 323.78125 454.78125 L 356.421875 422.160156 L 373.488281 439.230469 L 373.488281 405.089844 L 373.988281 404.589844 Z M 256 321.738281 L 288.640625 354.378906 L 256 387.019531 L 223.359375 354.378906 Z M 188.769531 420.210938 L 173.148438 404.589844 L 205.789062 371.949219 L 238.429688 404.589844 L 205.789062 437.230469 Z M 256 487.421875 L 223.359375 454.800781 L 256 422.160156 L 288.640625 454.78125 Z M 306.210938 437.210938 L 273.570312 404.589844 L 306.210938 371.949219 L 338.839844 404.589844 Z M 306.210938 437.210938 " style=" stroke:none;fill-rule:nonzero;fill:rgb(100%,65.882353%,47.843137%);fill-opacity:1;" />
<path d="M 291.699219 404.582031 L 307.011719 419.890625 L 322.316406 404.582031 L 307.011719 389.269531 Z M 291.699219 404.582031 " style=" stroke:none;fill-rule:nonzero;fill:rgb(100%,81.960784%,7.058824%);fill-opacity:1;" />
<path d="M 291.699219 303.417969 L 307.011719 318.722656 L 322.316406 303.417969 L 307.011719 288.105469 Z M 291.699219 303.417969 " style=" stroke:none;fill-rule:nonzero;fill:rgb(100%,81.960784%,7.058824%);fill-opacity:1;" />
<path d="M 191.695312 303.417969 L 207.007812 318.722656 L 222.3125 303.417969 L 207.007812 288.105469 Z M 191.695312 303.417969 " style=" stroke:none;fill-rule:nonzero;fill:rgb(100%,100%,100%);fill-opacity:1;" />
<path d="M 142.613281 354.628906 L 157.925781 369.933594 L 173.230469 354.628906 L 157.925781 339.316406 Z M 142.613281 354.628906 " style=" stroke:none;fill-rule:nonzero;fill:rgb(100%,100%,100%);fill-opacity:1;" />
<path d="M 338.121094 354.628906 L 353.433594 369.933594 L 368.742188 354.628906 L 353.433594 339.316406 Z M 338.121094 354.628906 " style=" stroke:none;fill-rule:nonzero;fill:rgb(100%,81.960784%,7.058824%);fill-opacity:1;" />
<path d="M 340.574219 454.539062 L 355.886719 469.847656 L 371.195312 454.539062 L 355.886719 439.226562 Z M 340.574219 454.539062 " style=" stroke:none;fill-rule:nonzero;fill:rgb(100%,81.960784%,7.058824%);fill-opacity:1;" />
<path d="M 142.613281 454.539062 L 157.925781 469.847656 L 173.230469 454.539062 L 157.925781 439.226562 Z M 142.613281 454.539062 " style=" stroke:none;fill-rule:nonzero;fill:rgb(100%,100%,100%);fill-opacity:1;" />
<path d="M 191.695312 404.582031 L 207.007812 419.890625 L 222.3125 404.582031 L 207.007812 389.269531 Z M 191.695312 404.582031 " style=" stroke:none;fill-rule:nonzero;fill:rgb(100%,91.372549%,33.333333%);fill-opacity:1;" />
<path d="M 240.6875 354.632812 L 256 369.933594 L 271.3125 354.632812 L 256 339.320312 Z M 240.6875 354.632812 " style=" stroke:none;fill-rule:nonzero;fill:rgb(100%,81.960784%,7.058824%);fill-opacity:1;" />
<path d="M 241.9375 250.875 L 256 264.925781 L 270.0625 250.875 C 265.449219 250.324219 260.75 250.039062 256 250.039062 C 251.238281 250.039062 246.539062 250.324219 241.9375 250.875 Z M 241.9375 250.875 " style=" stroke:none;fill-rule:nonzero;fill:rgb(100%,81.960784%,7.058824%);fill-opacity:1;" />
<path d="M 240.6875 454.539062 L 256 469.839844 L 271.3125 454.539062 L 256 439.226562 Z M 240.6875 454.539062 " style=" stroke:none;fill-rule:nonzero;fill:rgb(100%,81.960784%,7.058824%);fill-opacity:1;" />
<path d="M 291.898438 505.75 L 295.171875 509.019531 C 303.789062 507.699219 312.261719 505.949219 320.558594 503.789062 L 307.210938 490.441406 Z M 291.898438 505.75 " style=" stroke:none;fill-rule:nonzero;fill:rgb(100%,81.960784%,7.058824%);fill-opacity:1;" />
<path d="M 193.199219 504.238281 C 201.558594 506.351562 210.078125 508.039062 218.75 509.308594 L 222.308594 505.75 L 207.011719 490.441406 Z M 193.199219 504.238281 " style=" stroke:none;fill-rule:nonzero;fill:rgb(100%,91.372549%,33.333333%);fill-opacity:1;" />
<path d="M 241.9375 250.875 L 256 264.925781 L 256 250.039062 C 251.238281 250.039062 246.539062 250.324219 241.9375 250.875 Z M 241.9375 250.875 " style=" stroke:none;fill-rule:nonzero;fill:rgb(100%,81.960784%,7.058824%);fill-opacity:1;" />
<path d="M 256 439.226562 L 240.6875 454.539062 L 256 469.839844 Z M 256 439.226562 " style=" stroke:none;fill-rule:nonzero;fill:rgb(100%,91.372549%,33.333333%);fill-opacity:1;" />
<path d="M 240.6875 354.632812 L 256 369.933594 L 256 339.320312 Z M 240.6875 354.632812 " style=" stroke:none;fill-rule:nonzero;fill:rgb(100%,91.372549%,33.333333%);fill-opacity:1;" />
<path d="M 352.664062 108.648438 C 351.277344 139.765625 342.148438 170.957031 324.605469 199.324219 C 307.070312 227.683594 283.238281 249.769531 256.011719 264.910156 L 256.011719 264.921875 C 256 264.921875 256 264.921875 256 264.921875 C 228.773438 249.78125 204.941406 227.683594 187.394531 199.324219 C 169.847656 170.957031 160.71875 139.765625 159.335938 108.644531 C 185.738281 123.347656 208.957031 144.609375 226.34375 171.789062 C 225.386719 162.980469 224.882812 154.023438 224.882812 144.96875 C 224.882812 101.417969 236.171875 60.511719 256.011719 25 C 275.816406 60.511719 287.105469 101.417969 287.105469 144.96875 C 287.105469 154.035156 286.601562 162.980469 285.65625 171.804688 C 303.03125 144.625 326.246094 123.347656 352.664062 108.648438 Z M 352.664062 108.648438 " style=" stroke:none;fill-rule:nonzero;fill:rgb(42.352941%,86.27451%,17.647059%);fill-opacity:1;" />
<path d="M 352.664062 108.648438 C 351.277344 139.765625 342.148438 170.957031 324.605469 199.324219 C 307.070312 227.683594 283.238281 249.769531 256.011719 264.910156 L 256.011719 25 C 275.816406 60.511719 287.105469 101.421875 287.105469 144.96875 C 287.105469 154.035156 286.601562 162.980469 285.65625 171.804688 C 303.03125 144.625 326.246094 123.347656 352.664062 108.648438 Z M 352.664062 108.648438 " style=" stroke:none;fill-rule:nonzero;fill:rgb(0%,62.745098%,25.882353%);fill-opacity:1;" />
<path d="M 373.710938 404.300781 L 373.488281 404.078125 L 373.488281 369.929688 L 365.71875 377.699219 L 356.410156 387.019531 L 323.78125 354.378906 L 361.800781 316.359375 L 348.25 294.769531 L 306.210938 336.800781 L 273.570312 304.171875 L 312.96875 264.769531 C 305.191406 260.429688 296.859375 256.960938 288.109375 254.480469 L 256 286.589844 L 234.410156 265.011719 C 228.109375 270.410156 222.320312 276.398438 217.160156 282.898438 L 238.429688 304.171875 L 205.789062 336.800781 L 194.570312 325.578125 C 190.800781 337.769531 188.769531 350.738281 188.769531 364.171875 L 188.769531 388.96875 L 205.789062 371.949219 L 238.429688 404.589844 L 205.789062 437.230469 L 188.769531 420.210938 L 188.769531 489.390625 L 205.789062 472.371094 L 238.429688 505 L 232.5 510.929688 C 236.710938 511.320312 240.941406 511.601562 245.199219 511.769531 C 248.78125 511.921875 252.378906 512 256 512 C 259.621094 512 263.21875 511.921875 266.800781 511.769531 C 271.058594 511.601562 275.289062 511.320312 279.5 510.929688 L 273.570312 505 L 306.210938 472.371094 L 333.800781 499.960938 C 342.511719 497.179688 351.019531 493.949219 359.289062 490.289062 L 323.78125 454.78125 L 356.421875 422.160156 L 373.488281 439.230469 L 373.488281 405.089844 L 373.988281 404.589844 Z M 223.359375 354.378906 L 256 321.738281 L 288.640625 354.378906 L 256 387.019531 Z M 256 487.421875 L 223.359375 454.800781 L 256 422.160156 L 288.640625 454.78125 Z M 306.210938 437.210938 L 273.570312 404.589844 L 306.210938 371.949219 L 338.839844 404.589844 Z M 306.210938 437.210938 " style=" stroke:none;fill-rule:nonzero;fill:rgb(77.254902%,34.509804%,20.784314%);fill-opacity:1;" />
<path d="M 256 321.738281 L 223.359375 354.378906 L 256 387.019531 L 256 422.160156 L 223.359375 454.800781 L 256 487.421875 L 256 512 C 252.378906 512 248.78125 511.921875 245.199219 511.769531 C 240.941406 511.601562 236.710938 511.320312 232.5 510.929688 L 238.429688 505 L 205.789062 472.371094 L 188.769531 489.390625 L 188.769531 420.210938 L 205.789062 437.230469 L 238.429688 404.589844 L 205.789062 371.949219 L 188.769531 388.96875 L 188.769531 364.171875 C 188.769531 350.738281 190.800781 337.769531 194.570312 325.578125 L 205.789062 336.800781 L 238.429688 304.171875 L 217.160156 282.898438 C 222.320312 276.398438 228.109375 270.410156 234.410156 265.011719 L 256 286.589844 Z M 256 321.738281 " style=" stroke:none;fill-rule:nonzero;fill:rgb(91.764706%,50.980392%,30.588235%);fill-opacity:1;" />
</g>
</svg>