<svg xmlns="http://www.w3.org/2000/svg" height="512pt" version="1.1" viewBox="0 0 512 512" width="512pt">
<g id="surface1">
<path d="M 512 256 C 512 397.386719 397.386719 512 256 512 C 114.613281 512 0 397.386719 0 256 C 0 114.613281 114.613281 0 256 0 C 397.386719 0 512 114.613281 512 256 Z M 512 256 " style=" stroke:none;fill-rule:nonzero;fill:rgb(100%,91.372549%,33.333333%);fill-opacity:1;" />
<path d="M 512 256 C 512 282.050781 508.109375 307.191406 500.871094 330.871094 C 498.75 337.800781 496.351562 344.621094 493.671875 351.289062 C 493.238281 352.351562 492.808594 353.398438 492.371094 354.449219 C 492.140625 355 491.910156 355.550781 491.671875 356.089844 C 488.511719 363.578125 484.980469 370.878906 481.121094 377.980469 C 479.039062 381.808594 476.871094 385.578125 474.609375 389.289062 C 473.519531 391.058594 472.410156 392.820312 471.289062 394.558594 C 465.429688 403.648438 459 412.339844 452.070312 420.589844 C 451.488281 421.28125 450.910156 421.96875 450.320312 422.648438 C 448.828125 424.378906 447.320312 426.101562 445.78125 427.789062 C 443.769531 430.019531 441.710938 432.210938 439.609375 434.371094 C 436.121094 437.96875 432.519531 441.460938 428.820312 444.851562 C 383.289062 486.558594 322.609375 512 256 512 C 189.390625 512 128.710938 486.558594 83.191406 444.851562 C 79.488281 441.460938 75.878906 437.96875 72.390625 434.371094 C 70.300781 432.210938 68.238281 430.019531 66.230469 427.789062 C 64.691406 426.101562 63.179688 424.378906 61.691406 422.648438 C 61.101562 421.960938 60.511719 421.269531 59.941406 420.578125 C 53 412.328125 46.570312 403.648438 40.71875 394.558594 C 39.589844 392.808594 38.480469 391.050781 37.398438 389.28125 C 35.140625 385.570312 32.960938 381.808594 30.890625 377.980469 C 27.601562 371.949219 24.558594 365.769531 21.769531 359.449219 C 21.28125 358.339844 20.789062 357.21875 20.320312 356.101562 C 20.089844 355.550781 19.859375 355 19.628906 354.449219 C 19.191406 353.398438 18.761719 352.351562 18.339844 351.289062 C 18.339844 351.289062 18.339844 351.289062 18.339844 351.28125 C 6.5 321.828125 0 289.679688 0 256 C 0 209.78125 12.25 166.429688 33.679688 129 C 50.589844 158.539062 73.210938 184.378906 100.050781 205.019531 C 107.460938 210.730469 115.199219 216.039062 123.230469 220.910156 C 124.488281 221.691406 125.769531 222.449219 127.050781 223.179688 C 127.171875 223.261719 127.289062 223.328125 127.410156 223.398438 C 131.289062 225.671875 135.238281 227.828125 139.25 229.871094 C 139.261719 229.878906 139.261719 229.878906 139.269531 229.878906 C 164.269531 242.71875 191.640625 251.558594 220.578125 255.570312 C 223.378906 255.960938 226.191406 256.300781 229.019531 256.589844 C 231.761719 256.878906 234.511719 257.128906 237.28125 257.320312 C 243.460938 257.769531 249.699219 258 256 258 C 262.300781 258 268.539062 257.769531 274.71875 257.320312 C 277.488281 257.128906 280.238281 256.878906 282.980469 256.589844 C 285.808594 256.300781 288.621094 255.960938 291.421875 255.570312 C 320.359375 251.558594 347.730469 242.71875 372.730469 229.878906 C 372.738281 229.878906 372.738281 229.878906 372.75 229.871094 C 376.761719 227.828125 380.699219 225.671875 384.578125 223.398438 C 384.699219 223.339844 384.828125 223.269531 384.949219 223.179688 C 386.238281 222.449219 387.511719 221.691406 388.769531 220.910156 C 396.800781 216.039062 404.539062 210.730469 411.949219 205.019531 C 438.789062 184.378906 461.410156 158.539062 478.320312 129 C 499.75 166.429688 512 209.78125 512 256 Z M 512 256 " style=" stroke:none;fill-rule:nonzero;fill:rgb(100%,81.960784%,7.058824%);fill-opacity:1;" />
<path d="M 30.742188 377.703125 C 37.898438 390.921875 46.171875 403.441406 55.460938 415.128906 C 102.359375 474.148438 174.761719 512 256 512 C 337.238281 512 409.640625 474.148438 456.539062 415.128906 C 465.828125 403.441406 474.101562 390.921875 481.257812 377.703125 Z M 30.742188 377.703125 " style=" stroke:none;fill-rule:nonzero;fill:rgb(92.156863%,46.666667%,13.333333%);fill-opacity:1;" />
<path d="M 445.78125 427.789062 C 443.769531 430.019531 441.710938 432.210938 439.609375 434.371094 L 410.960938 400.699219 C 406.070312 394.941406 399.660156 390.671875 392.460938 388.371094 C 388.460938 387.089844 384.289062 386.441406 380.121094 386.441406 C 378.039062 386.441406 375.960938 386.601562 373.898438 386.921875 L 275.25 403.960938 L 275.25 403.949219 L 293.148438 382.160156 L 310.910156 379.398438 L 337.898438 375.210938 L 364.238281 371.121094 L 377.019531 369.140625 C 384.46875 367.980469 392.089844 368.929688 399.03125 371.871094 L 400.699219 372.570312 C 407.640625 375.511719 413.621094 380.328125 417.96875 386.480469 L 438.179688 415.058594 C 441.039062 419.109375 443.578125 423.371094 445.78125 427.789062 Z M 445.78125 427.789062 " style=" stroke:none;fill-rule:nonzero;fill:rgb(72.941176%,5.098039%,36.078431%);fill-opacity:1;" />
<path d="M 474.609375 389.289062 C 473.519531 391.058594 472.410156 392.820312 471.289062 394.558594 L 428.210938 364.421875 C 422.019531 360.078125 414.738281 357.570312 407.191406 357.160156 C 406.460938 357.121094 405.730469 357.101562 404.988281 357.101562 C 399.460938 357.101562 393.96875 358.230469 388.871094 360.441406 L 364.238281 371.121094 L 316.328125 391.910156 L 313.871094 386.238281 L 310.910156 379.398438 L 309.53125 376.230469 L 331.691406 366.621094 L 368.101562 350.820312 L 378.140625 346.46875 L 387.398438 342.449219 C 394.308594 339.449219 401.921875 338.441406 409.378906 339.53125 L 411.171875 339.800781 C 418.628906 340.890625 425.628906 344.039062 431.398438 348.890625 L 458.171875 371.441406 C 464.390625 376.691406 469.910156 382.691406 474.609375 389.289062 Z M 474.609375 389.289062 " style=" stroke:none;fill-rule:nonzero;fill:rgb(72.941176%,5.098039%,36.078431%);fill-opacity:1;" />
<path d="M 493.671875 351.289062 C 493.238281 352.351562 492.808594 353.398438 492.371094 354.449219 C 492.140625 355 491.910156 355.550781 491.671875 356.089844 L 442.421875 330.449219 C 435.71875 326.960938 428.179688 325.410156 420.640625 325.988281 C 417.5 326.21875 414.421875 326.820312 411.441406 327.769531 C 408.46875 328.71875 405.601562 330.011719 402.898438 331.628906 L 378.140625 346.46875 L 378.121094 346.480469 L 367.199219 353.019531 L 335.078125 372.269531 L 331.691406 366.621094 L 326.289062 357.601562 L 369.148438 331.921875 L 399.101562 313.980469 C 405.558594 310.109375 412.980469 308.109375 420.519531 308.21875 L 422.328125 308.25 C 429.859375 308.359375 437.21875 310.578125 443.558594 314.640625 L 473.039062 333.511719 C 480.738281 338.441406 487.679688 344.429688 493.671875 351.289062 Z M 493.671875 351.289062 " style=" stroke:none;fill-rule:nonzero;fill:rgb(72.941176%,5.098039%,36.078431%);fill-opacity:1;" />
<path d="M 244.671875 403.738281 L 231.878906 401.71875 L 138.101562 386.921875 C 136.039062 386.601562 133.960938 386.441406 131.878906 386.441406 C 127.710938 386.441406 123.539062 387.089844 119.539062 388.371094 C 112.339844 390.671875 105.929688 394.941406 101.039062 400.699219 L 72.390625 434.371094 C 70.300781 432.210938 68.238281 430.019531 66.230469 427.789062 C 68.421875 423.371094 70.960938 419.109375 73.820312 415.058594 L 94.03125 386.480469 C 98.378906 380.328125 104.359375 375.511719 111.300781 372.570312 L 112.96875 371.871094 C 119.910156 368.929688 127.53125 367.980469 134.980469 369.140625 L 147.761719 371.121094 L 147.769531 371.128906 L 174.101562 375.210938 L 201.089844 379.398438 L 218.851562 382.160156 Z M 244.671875 403.738281 " style=" stroke:none;fill-rule:nonzero;fill:rgb(100%,20.392157%,27.058824%);fill-opacity:1;" />
<path d="M 202.46875 376.230469 L 201.089844 379.398438 L 198.128906 386.238281 L 195.671875 391.910156 L 147.761719 371.121094 L 123.128906 360.441406 C 118.03125 358.230469 112.539062 357.101562 107.011719 357.101562 C 106.269531 357.101562 105.539062 357.121094 104.808594 357.160156 C 97.261719 357.570312 89.980469 360.078125 83.789062 364.421875 L 40.71875 394.558594 C 39.589844 392.808594 38.480469 391.050781 37.398438 389.28125 C 42.089844 382.679688 47.609375 376.679688 53.828125 371.441406 L 80.601562 348.890625 C 86.371094 344.039062 93.371094 340.890625 100.828125 339.800781 L 102.621094 339.53125 C 110.078125 338.441406 117.691406 339.449219 124.601562 342.449219 L 133.839844 346.460938 L 133.859375 346.46875 L 143.898438 350.820312 L 180.308594 366.621094 Z M 202.46875 376.230469 " style=" stroke:none;fill-rule:nonzero;fill:rgb(100%,20.392157%,27.058824%);fill-opacity:1;" />
<path d="M 185.710938 357.601562 L 180.308594 366.621094 L 176.921875 372.269531 L 144.800781 353.019531 L 133.859375 346.46875 L 109.101562 331.628906 C 106.398438 330.011719 103.53125 328.71875 100.558594 327.769531 C 97.578125 326.820312 94.5 326.21875 91.359375 325.988281 C 83.820312 325.410156 76.28125 326.960938 69.578125 330.449219 L 20.320312 356.101562 C 20.089844 355.550781 19.859375 355 19.628906 354.449219 C 19.191406 353.398438 18.761719 352.351562 18.339844 351.289062 C 18.339844 351.289062 18.328125 351.28125 18.339844 351.28125 C 24.320312 344.429688 31.261719 338.441406 38.960938 333.511719 L 68.441406 314.640625 C 74.78125 310.578125 82.140625 308.359375 89.671875 308.25 L 91.480469 308.21875 C 99.019531 308.109375 106.441406 310.109375 112.898438 313.980469 L 142.851562 331.921875 Z M 185.710938 357.601562 " style=" stroke:none;fill-rule:nonzero;fill:rgb(100%,20.392157%,27.058824%);fill-opacity:1;" />
<path d="M 243.058594 200.585938 C 243.058594 201.066406 243.03125 201.566406 242.980469 202.058594 L 234.828125 281.066406 L 223.210938 281.066406 L 215.050781 202.058594 C 214.199219 193.777344 220.691406 186.578125 229.019531 186.578125 C 236.839844 186.578125 243.058594 192.949219 243.058594 200.585938 Z M 243.058594 200.585938 " style=" stroke:none;fill-rule:nonzero;fill:rgb(100%,100%,100%);fill-opacity:1;" />
<path d="M 243.058594 200.585938 C 243.058594 201.066406 243.03125 201.566406 242.980469 202.058594 L 234.828125 281.066406 L 229.019531 281.066406 L 229.019531 186.578125 C 236.839844 186.578125 243.058594 192.949219 243.058594 200.585938 Z M 243.058594 200.585938 " style=" stroke:none;fill-rule:nonzero;fill:rgb(81.568627%,96.470588%,100%);fill-opacity:1;" />
<path d="M 233.839844 197.996094 L 233.839844 217.207031 C 233.839844 219.988281 231.71875 222.265625 229.019531 222.515625 C 228.851562 222.535156 228.671875 222.546875 228.5 222.546875 C 225.550781 222.546875 223.160156 220.15625 223.160156 217.207031 L 223.160156 197.996094 C 223.160156 195.046875 225.550781 192.65625 228.5 192.65625 C 228.671875 192.65625 228.851562 192.667969 229.019531 192.6875 C 230.289062 192.808594 231.421875 193.367188 232.28125 194.21875 C 233.238281 195.1875 233.839844 196.515625 233.839844 197.996094 Z M 233.839844 197.996094 " style=" stroke:none;fill-rule:nonzero;fill:rgb(32.54902%,36.862745%,53.72549%);fill-opacity:1;" />
<path d="M 233.839844 197.996094 L 233.839844 217.207031 C 233.839844 219.988281 231.71875 222.265625 229.019531 222.515625 L 229.019531 192.6875 C 230.289062 192.808594 231.421875 193.367188 232.28125 194.21875 C 233.238281 195.1875 233.839844 196.515625 233.839844 197.996094 Z M 233.839844 197.996094 " style=" stroke:none;fill-rule:nonzero;fill:rgb(19.607843%,23.137255%,35.294118%);fill-opacity:1;" />
<path d="M 297.019531 200.597656 C 297.019531 201.078125 297 201.566406 296.949219 202.058594 L 288.789062 281.066406 L 277.171875 281.066406 L 269.019531 202.058594 C 268.160156 193.777344 274.660156 186.578125 282.980469 186.578125 C 290.820312 186.578125 297.019531 192.949219 297.019531 200.597656 Z M 297.019531 200.597656 " style=" stroke:none;fill-rule:nonzero;fill:rgb(100%,100%,100%);fill-opacity:1;" />
<path d="M 297.019531 200.597656 C 297.019531 201.078125 297 201.566406 296.949219 202.058594 L 288.789062 281.066406 L 282.980469 281.066406 L 282.980469 186.578125 C 290.820312 186.578125 297.019531 192.949219 297.019531 200.597656 Z M 297.019531 200.597656 " style=" stroke:none;fill-rule:nonzero;fill:rgb(81.568627%,96.470588%,100%);fill-opacity:1;" />
<path d="M 287.800781 197.996094 L 287.800781 217.207031 C 287.800781 219.988281 285.679688 222.265625 282.980469 222.515625 C 282.820312 222.535156 282.640625 222.546875 282.46875 222.546875 C 279.519531 222.546875 277.128906 220.15625 277.128906 217.207031 L 277.128906 197.996094 C 277.128906 195.046875 279.519531 192.65625 282.46875 192.65625 C 282.640625 192.65625 282.820312 192.667969 282.980469 192.6875 C 284.25 192.808594 285.378906 193.367188 286.238281 194.21875 C 287.199219 195.1875 287.800781 196.515625 287.800781 197.996094 Z M 287.800781 197.996094 " style=" stroke:none;fill-rule:nonzero;fill:rgb(32.54902%,36.862745%,53.72549%);fill-opacity:1;" />
<path d="M 287.800781 197.996094 L 287.800781 217.207031 C 287.800781 219.988281 285.679688 222.265625 282.980469 222.515625 L 282.980469 192.6875 C 284.25 192.808594 285.378906 193.367188 286.238281 194.21875 C 287.199219 195.1875 287.800781 196.515625 287.800781 197.996094 Z M 287.800781 197.996094 " style=" stroke:none;fill-rule:nonzero;fill:rgb(19.607843%,23.137255%,35.294118%);fill-opacity:1;" />
<path d="M 172.050781 299.46875 L 107.949219 251.953125 C 103.996094 249.019531 103.820312 243.164062 107.59375 240.003906 L 161.574219 194.777344 L 140.53125 157.0625 L 85.152344 222.667969 C 72.773438 237.332031 76.710938 259.632812 93.367188 269.167969 L 166.039062 310.78125 Z M 172.050781 299.46875 " style=" stroke:none;fill-rule:nonzero;fill:rgb(86.666667%,7.058824%,39.607843%);fill-opacity:1;" />
<path d="M 124.132812 225.574219 C 117.742188 197.078125 127.261719 166.105469 151.355469 146.28125 C 175.453125 126.460938 207.679688 123.097656 234.410156 134.863281 Z M 124.132812 225.574219 " style=" stroke:none;fill-rule:nonzero;fill:rgb(86.666667%,7.058824%,39.607843%);fill-opacity:1;" />
<path d="M 124.132812 225.574219 C 143.273438 234 166.347656 231.59375 183.601562 217.398438 C 200.855469 203.207031 207.667969 181.03125 203.09375 160.625 Z M 124.132812 225.574219 " style=" stroke:none;fill-rule:nonzero;fill:rgb(100%,20.392157%,27.058824%);fill-opacity:1;" />
<path d="M 351.199219 369.109375 L 269.511719 406.589844 C 265.21875 408.558594 260.609375 409.539062 256 409.539062 C 251.390625 409.539062 246.78125 408.558594 242.488281 406.589844 L 189.101562 382.089844 L 160.800781 369.109375 C 144.019531 361.398438 137.058594 341.261719 145.5 324.839844 L 165.398438 286.148438 C 173.21875 270.960938 188.859375 261.421875 205.941406 261.421875 L 306.058594 261.421875 C 323.140625 261.421875 338.78125 270.960938 346.601562 286.148438 L 366.5 324.839844 C 374.941406 341.261719 367.980469 361.398438 351.199219 369.109375 Z M 351.199219 369.109375 " style=" stroke:none;fill-rule:nonzero;fill:rgb(100%,20.392157%,27.058824%);fill-opacity:1;" />
<path d="M 351.199219 369.109375 L 269.511719 406.589844 C 265.21875 408.558594 260.609375 409.539062 256 409.539062 C 251.390625 409.539062 246.78125 408.558594 242.488281 406.589844 L 189.101562 382.089844 C 173.859375 371.710938 168.269531 351.289062 176.988281 334.308594 L 199.859375 289.839844 C 208.851562 272.378906 226.828125 261.421875 246.460938 261.421875 L 306.058594 261.421875 C 323.140625 261.421875 338.78125 270.960938 346.601562 286.148438 L 366.5 324.839844 C 374.941406 341.261719 367.980469 361.398438 351.199219 369.109375 Z M 351.199219 369.109375 " style=" stroke:none;fill-rule:nonzero;fill:rgb(86.666667%,7.058824%,39.607843%);fill-opacity:1;" />
<path d="M 339.949219 299.46875 L 393.585938 259.710938 C 402.875 252.824219 403.285156 239.0625 394.421875 231.636719 L 350.425781 194.777344 L 371.46875 157.0625 L 426.847656 222.664062 C 439.230469 237.332031 435.289062 259.632812 418.632812 269.167969 L 345.960938 310.777344 Z M 339.949219 299.46875 " style=" stroke:none;fill-rule:nonzero;fill:rgb(72.941176%,5.098039%,36.078431%);fill-opacity:1;" />
<path d="M 387.867188 225.574219 C 394.257812 197.078125 384.738281 166.105469 360.644531 146.28125 C 336.546875 126.460938 304.320312 123.097656 277.589844 134.863281 Z M 387.867188 225.574219 " style=" stroke:none;fill-rule:nonzero;fill:rgb(86.666667%,7.058824%,39.607843%);fill-opacity:1;" />
<path d="M 387.867188 225.574219 C 368.726562 234 345.652344 231.59375 328.398438 217.398438 C 311.144531 203.207031 304.332031 181.03125 308.90625 160.625 Z M 387.867188 225.574219 " style=" stroke:none;fill-rule:nonzero;fill:rgb(100%,20.392157%,27.058824%);fill-opacity:1;" />
<path d="M 351.199219 369.105469 L 269.511719 406.585938 C 265.21875 408.558594 260.609375 409.535156 256 409.535156 L 256 261.417969 L 306.058594 261.417969 C 323.140625 261.417969 338.78125 270.957031 346.601562 286.148438 L 366.5 324.835938 C 374.941406 341.257812 367.980469 361.398438 351.199219 369.105469 Z M 351.199219 369.105469 " style=" stroke:none;fill-rule:nonzero;fill:rgb(72.941176%,5.098039%,36.078431%);fill-opacity:1;" />
<path d="M 330.210938 298.9375 L 256 373.148438 L 181.789062 298.9375 L 256 339.558594 Z M 330.210938 298.9375 " style=" stroke:none;fill-rule:nonzero;fill:rgb(100%,20.392157%,27.058824%);fill-opacity:1;" />
<path d="M 330.210938 298.9375 L 256 373.148438 L 256 339.558594 Z M 330.210938 298.9375 " style=" stroke:none;fill-rule:nonzero;fill:rgb(86.666667%,7.058824%,39.607843%);fill-opacity:1;" />
</g>
</svg>