<svg xmlns="http://www.w3.org/2000/svg" height="512pt" version="1.1" viewBox="0 0 512 512" width="512pt">
<g id="surface1">
<path d="M 512 256 C 512 397.386719 397.386719 512 256 512 C 114.613281 512 0 397.386719 0 256 C 0 114.613281 114.613281 0 256 0 C 397.386719 0 512 114.613281 512 256 Z M 512 256 " style=" stroke:none;fill-rule:nonzero;fill:rgb(32.54902%,95.686275%,85.098039%);fill-opacity:1;" />
<path d="M 512 256 C 512 282.050781 508.109375 307.191406 500.871094 330.871094 C 498.421875 338.898438 495.578125 346.769531 492.371094 354.449219 C 489.019531 362.511719 485.261719 370.359375 481.121094 377.980469 C 472.871094 393.179688 463.121094 407.441406 452.070312 420.589844 C 451.488281 421.28125 450.910156 421.96875 450.320312 422.648438 C 403.378906 477.351562 333.730469 512 256 512 C 178.269531 512 108.621094 477.351562 61.691406 422.648438 C 61.101562 421.960938 60.511719 421.269531 59.941406 420.578125 C 48.878906 407.441406 39.128906 393.179688 30.890625 377.980469 C 27.601562 371.949219 24.558594 365.769531 21.769531 359.449219 C 21.039062 357.789062 20.320312 356.128906 19.628906 354.449219 C 6.980469 324.148438 0 290.890625 0 256 C 0 209.78125 12.25 166.429688 33.679688 129 C 77.800781 206.070312 160.839844 258 256 258 C 351.160156 258 434.210938 206.070312 478.320312 129 C 499.75 166.429688 512 209.78125 512 256 Z M 512 256 " style=" stroke:none;fill-rule:nonzero;fill:rgb(6.27451%,88.627451%,76.862745%);fill-opacity:1;" />
<path d="M 31.058594 378.28125 C 39.261719 393.367188 48.953125 407.527344 59.941406 420.578125 C 60.511719 421.269531 61.101562 421.960938 61.691406 422.648438 C 108.621094 477.351562 178.269531 512 256 512 C 333.730469 512 403.378906 477.351562 450.320312 422.648438 C 450.910156 421.96875 451.488281 421.28125 452.070312 420.589844 C 463.046875 407.527344 472.738281 393.367188 480.953125 378.28125 Z M 31.058594 378.28125 " style=" stroke:none;fill-rule:nonzero;fill:rgb(5.882353%,60.784314%,90.980392%);fill-opacity:1;" />
<path d="M 123.652344 221.980469 C 124.242188 221.351562 124.53125 221.042969 125.121094 220.410156 C 124.410156 210.015625 115.753906 201.804688 105.175781 201.804688 C 102.964844 201.804688 100.835938 202.167969 98.847656 202.835938 C 98.21875 203.046875 97.519531 202.804688 97.171875 202.242188 C 92.601562 194.847656 84.429688 189.917969 75.097656 189.917969 C 62.878906 189.917969 52.636719 198.371094 49.890625 209.746094 C 49.726562 210.433594 49.074219 210.878906 48.371094 210.835938 C 48.09375 210.820312 47.816406 210.8125 47.539062 210.8125 C 41.402344 210.8125 36.148438 214.605469 33.996094 219.976562 C 33.613281 220.933594 34.328125 221.980469 35.363281 221.980469 Z M 123.652344 221.980469 " style=" stroke:none;fill-rule:nonzero;fill:rgb(100%,100%,100%);fill-opacity:1;" />
<path d="M 104.101562 221.980469 C 104.714844 221.257812 104.9375 221 105.550781 220.277344 C 104.773438 214.6875 99.972656 210.378906 94.164062 210.378906 C 93.046875 210.378906 91.96875 210.539062 90.945312 210.839844 C 90.335938 211.019531 89.675781 210.792969 89.324219 210.261719 C 86.660156 206.214844 82.074219 203.542969 76.867188 203.542969 C 70.003906 203.542969 64.226562 208.183594 62.488281 214.492188 C 62.3125 215.144531 61.707031 215.558594 61.035156 215.558594 C 61.03125 215.558594 61.027344 215.558594 61.023438 215.558594 C 57.890625 215.558594 55.160156 217.273438 53.722656 219.816406 C 53.175781 220.78125 53.902344 221.980469 55.011719 221.980469 Z M 104.101562 221.980469 " style=" stroke:none;fill-rule:nonzero;fill:rgb(81.568627%,96.470588%,100%);fill-opacity:1;" />
<path d="M 465.511719 285.074219 C 466.101562 284.445312 466.390625 284.136719 466.980469 283.507812 C 466.269531 273.113281 457.613281 264.902344 447.035156 264.902344 C 444.820312 264.902344 442.695312 265.265625 440.703125 265.929688 C 440.078125 266.140625 439.378906 265.898438 439.03125 265.335938 C 434.460938 257.941406 426.285156 253.011719 416.957031 253.011719 C 404.738281 253.011719 394.496094 261.464844 391.75 272.84375 C 391.585938 273.527344 390.933594 273.972656 390.230469 273.929688 C 389.953125 273.914062 389.675781 273.90625 389.398438 273.90625 C 383.261719 273.90625 378.007812 277.699219 375.855469 283.070312 C 375.472656 284.027344 376.1875 285.074219 377.222656 285.074219 Z M 465.511719 285.074219 " style=" stroke:none;fill-rule:nonzero;fill:rgb(100%,100%,100%);fill-opacity:1;" />
<path d="M 445.960938 285.074219 C 446.574219 284.355469 446.796875 284.09375 447.410156 283.375 C 446.632812 277.78125 441.832031 273.476562 436.023438 273.476562 C 434.90625 273.476562 433.824219 273.636719 432.804688 273.933594 C 432.191406 274.113281 431.535156 273.886719 431.183594 273.355469 C 428.515625 269.308594 423.933594 266.640625 418.726562 266.640625 C 411.863281 266.640625 406.085938 271.277344 404.347656 277.589844 C 404.167969 278.238281 403.566406 278.652344 402.890625 278.652344 C 402.886719 278.652344 402.882812 278.652344 402.878906 278.652344 C 399.75 278.652344 397.019531 280.367188 395.578125 282.910156 C 395.03125 283.875 395.757812 285.074219 396.867188 285.074219 Z M 445.960938 285.074219 " style=" stroke:none;fill-rule:nonzero;fill:rgb(81.568627%,96.470588%,100%);fill-opacity:1;" />
<path d="M 210.121094 123.421875 C 210.984375 122.503906 211.402344 122.054688 212.261719 121.136719 C 211.226562 106.003906 198.621094 94.050781 183.222656 94.050781 C 180 94.050781 176.902344 94.578125 174.007812 95.546875 C 173.09375 95.851562 172.074219 95.5 171.570312 94.683594 C 164.917969 83.917969 153.015625 76.742188 139.429688 76.742188 C 121.640625 76.742188 106.730469 89.046875 102.730469 105.609375 C 102.488281 106.609375 101.542969 107.253906 100.515625 107.195312 C 100.117188 107.171875 99.714844 107.160156 99.308594 107.160156 C 90.367188 107.160156 82.722656 112.683594 79.589844 120.5 C 79.03125 121.898438 80.074219 123.417969 81.578125 123.417969 Z M 210.121094 123.421875 " style=" stroke:none;fill-rule:nonzero;fill:rgb(100%,100%,100%);fill-opacity:1;" />
<path d="M 181.65625 123.421875 C 182.550781 122.371094 182.875 121.992188 183.769531 120.945312 C 182.636719 112.800781 175.644531 106.53125 167.191406 106.53125 C 165.5625 106.53125 163.988281 106.765625 162.503906 107.199219 C 161.613281 107.460938 160.65625 107.132812 160.144531 106.355469 C 156.261719 100.46875 149.589844 96.578125 142.007812 96.578125 C 132.015625 96.578125 123.601562 103.328125 121.074219 112.519531 C 120.816406 113.46875 119.9375 114.070312 118.953125 114.070312 C 118.949219 114.070312 118.941406 114.070312 118.9375 114.070312 C 114.378906 114.070312 110.40625 116.566406 108.308594 120.269531 C 107.511719 121.675781 108.570312 123.417969 110.183594 123.417969 Z M 181.65625 123.421875 " style=" stroke:none;fill-rule:nonzero;fill:rgb(81.568627%,96.470588%,100%);fill-opacity:1;" />
<path d="M 307.636719 161.375 C 306.773438 160.457031 306.355469 160.007812 305.496094 159.089844 C 306.53125 143.957031 319.136719 132.003906 334.535156 132.003906 C 337.757812 132.003906 340.855469 132.53125 343.753906 133.5 C 344.664062 133.804688 345.683594 133.453125 346.1875 132.636719 C 352.839844 121.871094 364.742188 114.695312 378.328125 114.695312 C 396.117188 114.695312 411.027344 127 415.027344 143.5625 C 415.269531 144.5625 416.214844 145.210938 417.242188 145.148438 C 417.640625 145.125 418.046875 145.113281 418.449219 145.113281 C 427.390625 145.113281 435.035156 150.636719 438.167969 158.453125 C 438.726562 159.851562 437.683594 161.371094 436.179688 161.371094 L 307.636719 161.371094 Z M 307.636719 161.375 " style=" stroke:none;fill-rule:nonzero;fill:rgb(100%,100%,100%);fill-opacity:1;" />
<path d="M 336.101562 161.375 C 335.207031 160.324219 334.882812 159.945312 333.988281 158.898438 C 335.121094 150.753906 342.113281 144.484375 350.566406 144.484375 C 352.195312 144.484375 353.769531 144.71875 355.253906 145.152344 C 356.144531 145.414062 357.101562 145.085938 357.613281 144.3125 C 361.496094 138.421875 368.167969 134.53125 375.75 134.53125 C 385.742188 134.53125 394.15625 141.285156 396.683594 150.472656 C 396.941406 151.421875 397.820312 152.023438 398.804688 152.023438 C 398.808594 152.023438 398.816406 152.023438 398.820312 152.023438 C 403.378906 152.023438 407.351562 154.523438 409.449219 158.222656 C 410.246094 159.628906 409.1875 161.371094 407.574219 161.371094 L 336.101562 161.371094 Z M 336.101562 161.375 " style=" stroke:none;fill-rule:nonzero;fill:rgb(81.568627%,96.470588%,100%);fill-opacity:1;" />
<path d="M 256 106.328125 C 256 106.328125 256 163.578125 256 280.871094 L 256 377.699219 C 178.328125 330.398438 99.148438 397.101562 99.148438 397.101562 C 117.300781 237.871094 256 106.328125 256 106.328125 Z M 256 106.328125 " style=" stroke:none;fill-rule:nonzero;fill:rgb(100%,100%,100%);fill-opacity:1;" />
<path d="M 256 280.871094 L 256 377.699219 C 178.328125 330.398438 99.148438 397.101562 99.148438 397.101562 C 99.148438 397.101562 140.609375 303.609375 256 280.871094 Z M 256 280.871094 " style=" stroke:none;fill-rule:nonzero;fill:rgb(81.568627%,96.470588%,100%);fill-opacity:1;" />
<path d="M 256 338.980469 L 256 280.648438 L 255.988281 205.949219 L 407.589844 397.101562 Z M 256 338.980469 " style=" stroke:none;fill-rule:nonzero;fill:rgb(100%,20.392157%,27.058824%);fill-opacity:1;" />
<path d="M 407.589844 397.101562 L 256 280.648438 L 255.988281 205.949219 Z M 407.589844 397.101562 " style=" stroke:none;fill-rule:nonzero;fill:rgb(86.666667%,7.058824%,39.607843%);fill-opacity:1;" />
<path d="M 319 73.5 L 256 100.5 L 256 46.5 Z M 319 73.5 " style=" stroke:none;fill-rule:nonzero;fill:rgb(0%,62.745098%,25.882353%);fill-opacity:1;" />
<path d="M 319 73.5 L 256 73.5 L 256 46.5 Z M 319 73.5 " style=" stroke:none;fill-rule:nonzero;fill:rgb(42.352941%,86.27451%,17.647059%);fill-opacity:1;" />
<path d="M 250.5 43 L 261.5 43 L 261.5 419 L 250.5 419 Z M 250.5 43 " style=" stroke:none;fill-rule:nonzero;fill:rgb(19.607843%,23.137255%,35.294118%);fill-opacity:1;" />
<path d="M 407.589844 397.101562 C 391.640625 420.191406 372.660156 439.660156 351.488281 454.5 L 155.261719 454.5 C 134.078125 439.660156 115.101562 420.191406 99.148438 397.101562 Z M 407.589844 397.101562 " style=" stroke:none;fill-rule:nonzero;fill:rgb(100%,91.372549%,33.333333%);fill-opacity:1;" />
<path d="M 407.589844 397.101562 C 391.640625 420.191406 372.660156 439.660156 351.488281 454.5 L 216.609375 454.5 C 195.429688 439.660156 176.460938 420.191406 160.5 397.101562 Z M 407.589844 397.101562 " style=" stroke:none;fill-rule:nonzero;fill:rgb(100%,81.960784%,7.058824%);fill-opacity:1;" />
<path d="M 351.488281 454.496094 C 372.660156 439.664062 391.636719 420.191406 407.589844 397.101562 L 256 397.101562 L 256 454.496094 Z M 351.488281 454.496094 " style=" stroke:none;fill-rule:nonzero;fill:rgb(100%,62.352941%,0%);fill-opacity:1;" />
<path d="M 438.070312 435.941406 C 425.421875 448.738281 411.429688 460.21875 396.328125 470.140625 C 385.308594 477.371094 373.699219 483.78125 361.589844 489.269531 C 329.398438 503.871094 293.648438 512 256 512 C 218.351562 512 182.589844 503.871094 150.398438 489.261719 C 138.53125 483.890625 127.148438 477.628906 116.339844 470.578125 C 100.980469 460.558594 86.761719 448.929688 73.921875 435.941406 C 100.941406 437.460938 102.300781 454.050781 131.898438 454.050781 C 162.929688 454.050781 162.929688 435.828125 193.949219 435.828125 C 224.96875 435.828125 224.96875 454.050781 255.988281 454.050781 C 287.011719 454.050781 287.011719 435.828125 318.039062 435.828125 C 349.058594 435.828125 349.058594 454.050781 380.078125 454.050781 C 409.691406 454.050781 411.050781 437.460938 438.070312 435.941406 Z M 438.070312 435.941406 " style=" stroke:none;fill-rule:nonzero;fill:rgb(81.568627%,96.470588%,100%);fill-opacity:1;" />
<path d="M 361.589844 489.269531 C 329.398438 503.871094 293.648438 512 256 512 C 218.351562 512 182.589844 503.871094 150.398438 489.261719 C 164.890625 484.128906 170.730469 473.910156 193.949219 473.910156 C 224.96875 473.910156 224.96875 492.140625 255.988281 492.140625 C 287.011719 492.140625 287.011719 473.910156 318.039062 473.910156 C 341.269531 473.910156 347.101562 484.128906 361.589844 489.269531 Z M 361.589844 489.269531 " style=" stroke:none;fill-rule:nonzero;fill:rgb(51.764706%,76.470588%,96.862745%);fill-opacity:1;" />
</g>
</svg>